<?xml version="1.0" standalone="no"?>
<!DOCTYPE svg PUBLIC "-//W3C//DTD SVG 20010904//EN"
 "http://www.w3.org/TR/2001/REC-SVG-20010904/DTD/svg10.dtd">
<svg version="1.0" xmlns="http://www.w3.org/2000/svg"
 width="512.000000pt" height="512.000000pt" viewBox="0 0 512.000000 512.000000"
 preserveAspectRatio="xMidYMid meet">
<metadata>
Created by potrace 1.16, written by Peter Selinger 2001-2019
</metadata>
<g transform="translate(0.000000,512.000000) scale(0.100000,-0.100000)"
fill="#000000" stroke="none">
<path d="M3620 4940 c-19 -19 -20 -33 -20 -220 0 -187 1 -201 20 -220 11 -11
29 -20 40 -20 40 0 18 -27 -72 -85 -110 -72 -251 -206 -306 -293 -61 -95 -82
-167 -82 -285 l0 -99 -32 9 c-18 4 -79 8 -135 8 l-101 0 -11 55 c-18 90 -61
169 -126 228 -53 49 -56 54 -42 70 30 32 47 91 47 156 0 182 -134 316 -316
316 -77 0 -118 -15 -172 -64 -35 -32 -43 -35 -67 -26 -39 15 -146 12 -194 -5
-56 -19 -121 -67 -150 -110 -23 -34 -26 -35 -86 -35 -77 0 -200 -31 -268 -67
-53 -28 -141 -108 -168 -152 l-15 -24 -47 19 c-26 10 -47 24 -47 31 0 7 -9 37
-21 68 -28 74 -100 146 -174 174 -59 22 -156 28 -212 12 -27 -8 -34 -6 -59 20
-45 47 -101 69 -177 69 -184 0 -317 -133 -317 -318 0 -78 23 -136 67 -173 22
-19 28 -30 22 -44 -12 -30 -10 -163 2 -205 11 -36 11 -37 -40 -89 -76 -75
-114 -161 -118 -268 -2 -69 -7 -89 -28 -122 -15 -21 -33 -60 -41 -87 -27 -91
-39 29 181 -1894 63 -553 118 -1020 121 -1038 3 -18 14 -42 25 -53 19 -19 45
-19 1335 -19 839 0 1322 4 1334 10 21 11 40 60 40 104 l0 31 19 -30 c27 -43
70 -82 113 -99 33 -14 127 -16 740 -16 785 0 744 -3 815 71 67 70 63 13 63
1036 l0 928 -80 120 -80 120 0 285 0 285 80 120 80 120 0 336 c0 380 -3 398
-82 521 -55 86 -196 220 -307 293 -89 58 -111 85 -71 85 11 0 29 9 40 20 19
19 20 33 20 220 0 187 -1 201 -20 220 -19 19 -33 20 -460 20 -427 0 -441 -1
-460 -20z m780 -220 l0 -80 -320 0 -320 0 0 80 0 80 320 0 320 0 0 -80z m-90
-285 c0 -69 16 -91 103 -143 151 -90 291 -222 343 -324 l24 -48 -700 0 -701 0
32 60 c52 97 199 233 349 320 73 43 90 68 90 135 l0 45 230 0 230 0 0 -45z
m-1752 -65 c42 -26 72 -76 72 -121 0 -43 -19 -62 -80 -84 -55 -19 -70 -38 -70
-87 0 -36 6 -47 54 -86 24 -19 21 -109 -4 -150 -58 -95 -201 -96 -259 -1 -11
17 -22 51 -26 76 -8 56 -32 80 -88 88 -91 14 -147 73 -147 155 0 82 65 150
143 150 44 0 72 -13 104 -47 15 -16 33 -23 58 -23 55 0 72 14 89 75 9 30 24
59 34 64 28 17 85 12 120 -9z m-1888 -80 c12 -6 26 -34 36 -65 17 -61 34 -75
89 -75 25 0 43 7 58 23 32 34 60 47 104 47 78 0 143 -68 143 -150 0 -82 -56
-141 -147 -155 -56 -8 -80 -32 -88 -88 -4 -25 -15 -59 -26 -76 -58 -95 -201
-94 -259 1 -25 41 -28 131 -4 150 48 39 54 50 54 86 0 49 -15 68 -70 87 -61
22 -80 41 -80 84 0 94 114 172 190 131z m1170 -170 c0 -96 93 -221 191 -258
48 -18 53 -23 71 -71 76 -203 369 -259 528 -100 31 31 56 67 67 99 10 28 21
50 25 50 16 0 38 -109 38 -192 0 -75 3 -91 20 -108 27 -27 72 -25 145 5 77 32
158 33 226 4 48 -21 49 -23 49 -64 l0 -43 -98 -4 c-113 -4 -176 -29 -256 -99
l-46 -41 -46 41 c-26 22 -72 53 -103 68 -51 26 -66 28 -171 28 -105 0 -120 -2
-171 -28 -31 -15 -77 -46 -103 -68 l-46 -41 -46 41 c-26 22 -72 53 -103 68
-51 26 -66 28 -171 28 -105 0 -120 -2 -171 -28 -31 -15 -77 -46 -103 -68 l-46
-41 -46 41 c-26 22 -72 53 -103 68 -51 26 -66 28 -171 28 -105 0 -120 -2 -171
-28 -31 -15 -77 -46 -103 -68 l-46 -41 -46 41 c-78 68 -144 95 -249 99 -50 2
-107 0 -128 -6 -20 -6 -37 -7 -37 -3 0 14 57 87 84 108 l26 21 42 -22 c57 -28
179 -34 242 -13 94 32 171 106 201 193 10 30 21 41 49 50 56 20 118 68 151
118 17 25 36 46 43 46 6 0 30 -18 51 -41 75 -77 148 -69 174 19 20 67 39 101
78 140 55 56 158 99 242 101 35 1 37 -1 37 -29z m2950 -480 l0 -120 -710 0
-710 0 0 120 0 120 710 0 710 0 0 -120z m0 -307 c0 -18 -23 -62 -61 -118 -107
-160 -99 -118 -99 -495 0 -377 -8 -335 99 -495 38 -56 61 -100 61 -117 l0 -28
-710 0 -710 0 0 28 c0 17 23 61 61 117 107 160 99 118 99 495 0 377 8 335 -99
495 -38 56 -61 100 -61 118 l0 27 710 0 710 0 0 -27z m-4115 -92 c69 -39 111
-108 119 -199 3 -37 20 -318 37 -625 l31 -557 -51 -55 c-68 -72 -91 -123 -91
-206 0 -87 32 -151 112 -224 l61 -55 28 -482 c16 -266 28 -491 29 -501 0 -16
-12 -17 -157 -15 l-157 3 -83 720 c-169 1471 -223 1957 -223 2008 0 127 127
237 255 220 22 -3 63 -17 90 -32z m625 9 c46 -24 87 -65 113 -115 19 -38 21
-70 35 -553 8 -282 12 -515 10 -518 -3 -3 -57 -15 -119 -28 -63 -13 -156 -38
-208 -55 -52 -17 -96 -29 -99 -26 -7 6 -61 944 -62 1060 0 82 3 95 30 142 61
107 193 147 300 93z m640 0 c46 -24 87 -65 113 -115 19 -39 20 -50 13 -355 -3
-173 -9 -402 -13 -507 l-6 -193 -207 0 -207 0 -6 193 c-4 105 -10 334 -13 507
-7 305 -6 316 13 355 64 124 198 173 313 115z m640 0 c92 -46 130 -117 129
-240 0 -112 -54 -1049 -61 -1055 -3 -3 -47 9 -99 26 -52 17 -145 42 -208 55
-62 13 -116 25 -119 28 -2 3 2 236 10 518 14 482 16 515 35 553 65 125 197
174 313 115z m605 12 c6 -4 47 -63 93 -132 l82 -126 0 -284 0 -285 -80 -120
-80 -120 0 -265 -1 -265 -77 -670 -78 -670 -157 -3 c-145 -2 -157 -1 -157 15
1 10 13 235 29 501 l28 482 61 55 c80 73 112 137 112 224 0 83 -23 134 -91
206 l-51 55 35 613 c38 665 37 659 100 726 44 46 101 71 167 71 30 0 60 -4 65
-8z m-1170 -1356 c304 -13 611 -106 731 -223 38 -36 44 -48 44 -83 0 -35 -6
-47 -44 -83 -105 -102 -336 -182 -629 -217 -114 -14 -440 -14 -554 0 -287 34
-526 116 -627 214 -38 37 -46 52 -46 82 0 48 27 84 100 133 147 97 414 166
705 180 77 4 154 6 170 4 17 -1 84 -4 150 -7z m2775 -757 c0 -483 -4 -777 -10
-789 -20 -38 -53 -40 -700 -40 -647 0 -680 2 -700 40 -6 12 -10 306 -10 789
l0 771 710 0 710 0 0 -771z m-3405 6 c55 -9 101 -17 102 -18 2 -3 23 -673 23
-750 l0 -67 -195 0 c-149 0 -195 3 -195 13 0 6 -11 203 -25 437 -14 234 -25
434 -25 446 0 21 2 20 108 -11 59 -18 152 -41 207 -50z m1200 -379 c-14 -241
-25 -442 -25 -447 0 -5 -82 -9 -195 -9 l-195 0 0 67 c0 77 21 747 23 750 1 1
47 9 102 18 55 10 147 31 205 49 69 21 106 28 108 20 2 -6 -9 -208 -23 -448z
m-568 187 c-4 -87 -10 -267 -13 -400 l-7 -243 -157 0 -157 0 -7 243 c-3 133
-9 313 -13 400 l-6 157 183 0 183 0 -6 -157z"/>
<path d="M3953 3186 c-101 -33 -190 -113 -241 -216 -25 -50 -27 -65 -27 -170
0 -107 2 -119 29 -175 38 -77 114 -153 191 -191 56 -27 68 -29 175 -29 107 0
119 2 175 29 77 38 153 114 191 191 27 56 29 68 29 175 0 107 -2 119 -29 175
-38 77 -114 153 -191 190 -52 26 -72 30 -160 32 -64 2 -115 -2 -142 -11z m222
-175 c52 -23 111 -89 126 -140 7 -23 10 -44 6 -47 -5 -5 -364 109 -390 123
-14 8 25 45 68 64 52 24 138 24 190 0z m-130 -291 c99 -33 186 -62 194 -65 20
-8 -14 -43 -64 -66 -85 -39 -196 -17 -262 52 -44 47 -81 139 -55 139 4 0 88
-27 187 -60z"/>
</g>
</svg>
