<?xml version="1.0" standalone="no"?>
<!DOCTYPE svg PUBLIC "-//W3C//DTD SVG 20010904//EN"
 "http://www.w3.org/TR/2001/REC-SVG-20010904/DTD/svg10.dtd">
<svg version="1.0" xmlns="http://www.w3.org/2000/svg"
 width="512.000000pt" height="512.000000pt" viewBox="0 0 512.000000 512.000000"
 preserveAspectRatio="xMidYMid meet">
<metadata>
Created by potrace 1.16, written by Peter Selinger 2001-2019
</metadata>
<g transform="translate(0.000000,512.000000) scale(0.100000,-0.100000)"
fill="#000000" stroke="none">
<path d="M3994 5102 c-159 -55 -278 -181 -319 -337 -28 -108 -16 -182 32 -204
37 -17 69 -13 99 12 21 19 29 36 36 88 16 124 76 206 186 257 47 21 65 24 131
20 118 -7 196 -57 251 -160 29 -54 34 -73 35 -133 0 -121 -63 -223 -175 -280
-50 -26 -154 -31 -222 -11 -31 9 -65 16 -76 16 -41 0 -72 -45 -146 -210 l-74
-165 -660 -3 -660 -2 -6 27 c-2 16 -8 51 -11 78 -16 118 -92 303 -177 428
-213 314 -609 496 -993 457 -258 -26 -479 -131 -661 -314 -205 -207 -301 -430
-311 -726 -6 -166 14 -292 68 -430 66 -171 207 -357 359 -472 80 -62 261 -151
358 -177 91 -25 261 -45 307 -37 60 12 90 72 64 129 -16 35 -40 43 -159 55
-230 24 -416 115 -576 285 -170 178 -253 402 -241 652 9 184 55 321 158 470
151 219 381 355 656 386 145 16 342 -20 478 -88 129 -65 266 -183 344 -296 70
-103 131 -253 150 -374 l8 -53 -469 0 -469 0 -24 -25 c-17 -16 -25 -35 -25
-59 0 -42 -69 46 994 -1261 l715 -880 1 -792 0 -792 -356 -3 -356 -3 -24 -28
c-32 -38 -32 -90 1 -122 l24 -25 799 0 799 0 21 23 c32 34 30 96 -4 128 l-26
24 -349 3 -349 3 0 797 1 797 849 1045 c776 954 850 1048 850 1081 0 22 -8 47
-21 63 l-20 26 -245 0 -245 0 -24 -25 c-35 -34 -34 -93 1 -126 24 -22 35 -24
145 -27 65 -2 119 -6 119 -8 0 -3 -67 -87 -149 -188 l-149 -182 -93 -44 c-166
-77 -424 -150 -529 -150 l-29 0 58 128 c32 70 126 278 209 462 l152 335 96 -3
c111 -4 198 17 276 67 114 72 200 205 220 339 36 233 -107 463 -331 532 -83
26 -225 27 -297 2z m-333 -1309 c-5 -10 -62 -135 -126 -278 -64 -143 -120
-264 -125 -268 -11 -12 -158 17 -370 73 -238 64 -360 82 -522 78 -118 -3 -128
-5 -152 -27 -35 -33 -36 -92 -3 -125 22 -22 33 -23 193 -29 180 -6 220 -13
484 -85 80 -22 178 -45 218 -52 39 -7 72 -16 72 -19 -1 -3 -7 -17 -15 -31 -8
-14 -14 -43 -15 -64 0 -54 30 -86 82 -86 58 0 71 11 108 92 18 40 34 75 36 77
2 2 55 7 119 12 101 7 295 43 349 65 15 6 17 4 10 -8 -5 -8 -220 -274 -478
-592 -371 -456 -472 -574 -481 -564 -22 24 -1481 1823 -1488 1836 -7 9 207 12
1053 12 1007 0 1060 -1 1051 -17z"/>
<path d="M1305 4558 c-38 -22 -44 -41 -45 -130 0 -77 3 -90 24 -115 19 -22 32
-28 66 -28 34 0 47 6 66 28 21 25 24 38 24 113 0 81 -1 87 -29 115 -31 31 -70
37 -106 17z"/>
<path d="M712 3970 c-31 -29 -38 -66 -19 -105 21 -44 68 -59 160 -52 61 4 74
8 94 31 31 37 31 89 -2 121 -22 23 -32 25 -118 25 -80 0 -96 -3 -115 -20z"/>
</g>
</svg>
