<?xml version="1.0" standalone="no"?>
<!DOCTYPE svg PUBLIC "-//W3C//DTD SVG 20010904//EN"
 "http://www.w3.org/TR/2001/REC-SVG-20010904/DTD/svg10.dtd">
<svg version="1.0" xmlns="http://www.w3.org/2000/svg"
 width="512.000000pt" height="512.000000pt" viewBox="0 0 512.000000 512.000000"
 preserveAspectRatio="xMidYMid meet">
<metadata>
Created by potrace 1.16, written by Peter Selinger 2001-2019
</metadata>
<g transform="translate(0.000000,512.000000) scale(0.100000,-0.100000)"
fill="#000000" stroke="none">
<path d="M3465 4715 c-58 -15 -118 -75 -129 -126 -3 -17 -6 -163 -6 -324 0
-264 2 -295 18 -314 28 -34 73 -37 108 -8 l29 25 5 299 5 298 724 3 c526 1
728 -1 737 -9 12 -9 14 -136 14 -729 0 -593 -2 -720 -14 -729 -9 -8 -211 -10
-737 -9 l-724 3 -5 225 c-5 228 -10 260 -46 274 -33 13 -71 6 -92 -17 -21 -23
-22 -31 -22 -262 0 -223 1 -242 21 -283 13 -26 38 -54 62 -70 l40 -27 304 -3
303 -3 0 -430 c0 -396 -1 -429 -17 -429 -42 0 -156 36 -238 75 -51 24 -231
137 -414 260 -330 222 -404 264 -546 308 -144 45 -217 49 -825 45 l-565 -4
-98 -26 c-111 -31 -256 -96 -346 -157 -33 -23 -104 -80 -157 -127 -180 -160
-304 -224 -532 -274 -51 -11 -114 -31 -140 -44 -57 -29 -122 -95 -153 -156
-24 -45 -24 -45 -27 -477 -3 -412 -2 -434 17 -470 32 -63 71 -91 230 -162 84
-38 155 -71 158 -74 3 -3 15 -35 28 -70 51 -147 167 -255 324 -303 62 -19 204
-18 272 2 132 39 238 130 297 256 l37 77 1206 1 1206 0 12 -39 c26 -88 131
-210 220 -256 149 -76 322 -76 472 0 90 47 194 166 220 256 l12 37 111 4 c124
4 165 19 223 80 68 71 73 93 73 384 0 282 -6 324 -57 414 -73 127 -176 224
-293 277 -30 14 -113 37 -185 52 l-130 27 -3 472 -2 472 260 0 c316 0 343 7
391 102 18 36 19 71 19 794 0 749 0 758 -21 801 -15 30 -35 52 -67 71 l-47 27
-735 2 c-593 2 -745 -1 -785 -12z m835 -2240 c0 -253 -4 -455 -9 -455 -5 0
-23 3 -40 6 l-31 7 0 448 0 449 40 0 40 0 0 -455z m-1565 107 c170 -45 206
-64 580 -316 456 -308 436 -300 920 -396 198 -39 383 -78 410 -87 121 -38 219
-122 287 -247 l33 -61 3 -235 c3 -214 1 -238 -16 -269 -27 -50 -73 -71 -153
-71 l-66 0 -6 53 c-17 165 -145 327 -305 387 -201 76 -453 2 -570 -170 -56
-82 -92 -173 -92 -237 l0 -33 -1188 0 -1188 0 -11 65 c-48 281 -328 460 -607
389 -80 -20 -184 -82 -236 -141 -43 -48 -110 -173 -110 -204 0 -49 -7 -49
-123 2 -62 27 -120 59 -129 70 -16 19 -18 54 -18 395 0 402 2 417 53 472 33
36 64 49 183 76 240 54 398 137 581 307 167 155 351 243 563 268 41 5 311 8
600 7 497 -3 529 -4 605 -24z m-1747 -1382 c177 -45 278 -255 211 -437 -64
-170 -276 -257 -440 -181 -72 33 -134 94 -168 167 -37 80 -37 192 0 271 72
152 229 223 397 180z m3393 -17 c71 -31 130 -91 166 -168 22 -49 27 -73 27
-135 -1 -93 -24 -150 -91 -221 -55 -59 -95 -82 -176 -100 -215 -47 -428 159
-388 375 26 142 122 242 261 272 70 15 130 8 201 -23z"/>
<path d="M1460 2491 c-178 -38 -306 -107 -460 -246 -90 -82 -168 -140 -264
-196 -82 -47 -116 -102 -116 -184 0 -75 32 -131 94 -167 38 -21 54 -23 222
-26 152 -3 187 -1 213 12 53 28 54 103 1 131 -22 12 -66 15 -193 15 -138 0
-167 3 -178 16 -20 24 -4 40 104 108 53 34 152 110 219 169 202 178 329 227
587 227 l141 0 0 -260 0 -260 -125 0 c-71 0 -135 -5 -149 -11 -52 -24 -52
-114 0 -138 18 -8 301 -11 1035 -11 1087 0 1056 -1 1093 51 20 29 21 105 2
150 -8 19 -27 46 -43 60 -29 28 -603 415 -684 461 -58 34 -134 65 -224 91 -66
19 -102 20 -630 23 -512 3 -567 2 -645 -15z m1212 -156 c77 -18 151 -46 204
-76 21 -13 175 -115 341 -226 l303 -203 -770 0 -770 0 0 260 0 260 314 0 c243
0 329 -3 378 -15z"/>
<path d="M1882 1547 c-28 -30 -29 -80 -2 -107 18 -18 33 -20 168 -20 137 0
150 2 167 20 27 30 25 88 -4 111 -20 17 -41 19 -165 19 -136 0 -144 -1 -164
-23z"/>
<path d="M789 1082 c-76 -40 -112 -94 -117 -176 -5 -77 9 -126 51 -173 112
-127 329 -82 383 80 64 191 -138 363 -317 269z"/>
<path d="M4165 1096 c-51 -19 -120 -92 -134 -142 -28 -101 6 -200 87 -257 44
-30 53 -32 128 -32 71 0 85 3 122 28 144 95 131 315 -22 394 -42 22 -133 26
-181 9z"/>
<path d="M1920 4353 c-269 -28 -536 -149 -732 -335 -40 -37 -48 -51 -48 -79 0
-44 34 -79 77 -79 23 0 47 15 98 60 212 187 457 280 737 280 263 0 499 -89
716 -270 81 -67 107 -79 147 -64 23 9 47 61 39 87 -18 60 -201 203 -356 279
-208 101 -453 144 -678 121z"/>
<path d="M3985 4297 c-19 -15 -20 -29 -23 -436 l-3 -421 25 -25 c35 -35 97
-35 131 0 24 23 25 29 25 168 l0 145 118 4 c128 6 168 18 225 68 54 47 80 119
80 220 -1 139 -36 208 -133 257 -53 27 -61 28 -240 31 -152 3 -189 1 -205 -11z
m353 -156 c40 -21 57 -77 53 -169 -1 -24 -11 -44 -35 -68 -34 -34 -35 -34
-125 -34 l-91 0 0 146 0 147 88 -5 c49 -3 98 -11 110 -17z"/>
<path d="M1875 3916 c-145 -34 -294 -111 -387 -201 -56 -54 -64 -96 -25 -133
39 -36 74 -28 151 34 136 109 267 157 431 158 167 0 307 -51 438 -160 66 -55
98 -65 137 -44 24 13 41 65 31 93 -27 70 -221 194 -373 238 -94 27 -314 35
-403 15z"/>
<path d="M1925 3496 c-84 -27 -168 -87 -186 -133 -12 -33 7 -79 41 -93 35 -15
61 -7 116 35 48 37 129 60 179 52 41 -7 108 -38 155 -73 59 -43 130 -11 130
58 0 40 -54 90 -140 132 -57 27 -77 31 -160 33 -58 2 -111 -3 -135 -11z"/>
</g>
</svg>
