<?xml version="1.0" standalone="no"?>
<!DOCTYPE svg PUBLIC "-//W3C//DTD SVG 20010904//EN"
 "http://www.w3.org/TR/2001/REC-SVG-20010904/DTD/svg10.dtd">
<svg version="1.0" xmlns="http://www.w3.org/2000/svg"
 width="512.000000pt" height="512.000000pt" viewBox="0 0 512.000000 512.000000"
 preserveAspectRatio="xMidYMid meet">
<metadata>
Created by potrace 1.16, written by Peter Selinger 2001-2019
</metadata>
<g transform="translate(0.000000,512.000000) scale(0.100000,-0.100000)"
fill="#000000" stroke="none">
<path d="M4015 4138 c-253 -38 -1209 -181 -2125 -318 -1634 -245 -1665 -250
-1688 -275 l-22 -26 0 -453 c0 -440 1 -454 20 -479 15 -19 34 -28 68 -32 128
-17 218 -79 269 -183 91 -187 -40 -412 -256 -438 -35 -4 -64 -14 -79 -27 l-22
-20 0 -464 c0 -450 1 -464 20 -483 20 -20 33 -20 2359 -20 l2340 0 15 22 c14
20 16 82 16 483 0 361 -3 465 -13 479 -8 11 -40 23 -85 31 -39 8 -87 21 -106
30 -57 27 -113 83 -141 140 -96 195 24 416 242 446 53 7 73 15 91 35 l22 25 0
454 0 454 -24 28 c-23 27 -28 28 -135 31 -61 2 -111 7 -111 12 0 4 -18 130
-40 279 -22 149 -40 276 -40 281 0 25 -49 60 -82 59 -18 -1 -240 -33 -493 -71z
m470 -319 c19 -123 35 -230 35 -236 0 -10 -329 -13 -1617 -12 l-1618 1 145 23
c305 48 1897 285 1916 285 18 0 22 -11 33 -97 10 -74 18 -104 34 -120 26 -29
79 -31 107 -3 24 24 25 54 6 167 l-13 81 86 12 c47 7 257 38 466 69 209 31
381 56 383 55 2 -1 19 -103 37 -225z m305 -752 l0 -363 -57 -18 c-148 -46
-260 -156 -305 -300 -16 -49 -19 -82 -16 -168 4 -99 7 -113 41 -180 60 -122
183 -222 300 -243 l37 -7 0 -364 0 -364 -515 0 -515 0 0 110 c0 129 -11 150
-79 150 -61 0 -71 -22 -71 -152 l0 -108 -1635 0 -1635 0 0 363 0 364 58 16
c72 20 168 83 216 142 20 24 51 74 68 111 40 86 50 217 23 310 -43 152 -156
269 -303 314 l-57 18 -3 361 -2 361 1635 0 1635 0 0 -104 c0 -84 3 -108 18
-125 26 -32 72 -37 105 -11 27 21 27 23 27 136 l0 114 515 0 515 0 0 -363z"/>
<path d="M1037 2962 c-23 -25 -22 -85 1 -106 17 -15 62 -16 492 -14 l473 3 20
27 c22 29 18 65 -9 92 -14 14 -72 16 -488 16 -445 0 -474 -1 -489 -18z"/>
<path d="M3637 2940 l-27 -21 0 -269 0 -269 27 -21 c33 -26 79 -21 106 11 15
19 17 48 17 279 0 231 -2 260 -17 279 -27 32 -73 37 -106 11z"/>
<path d="M1040 2520 c-13 -13 -20 -33 -20 -59 0 -76 -64 -71 940 -71 1004 0
940 -5 940 71 0 26 -7 46 -20 59 -20 20 -33 20 -920 20 -887 0 -900 0 -920
-20z"/>
<path d="M3632 2117 c-21 -23 -22 -30 -22 -285 0 -249 1 -263 20 -282 12 -12
33 -20 55 -20 22 0 43 8 55 20 19 19 20 33 20 283 0 263 0 264 -23 285 -31 29
-77 29 -105 -1z"/>
<path d="M1046 2079 c-20 -16 -26 -29 -26 -59 0 -30 6 -43 26 -59 27 -21 31
-21 914 -21 883 0 887 0 914 21 37 29 37 89 0 118 -27 21 -31 21 -914 21 -883
0 -887 0 -914 -21z"/>
<path d="M1042 1634 c-29 -20 -31 -85 -2 -114 20 -20 33 -20 920 -20 887 0
900 0 920 20 13 13 20 33 20 59 0 76 64 71 -940 71 -794 0 -898 -2 -918 -16z"/>
</g>
</svg>
