<?xml version="1.0" standalone="no"?>
<!DOCTYPE svg PUBLIC "-//W3C//DTD SVG 20010904//EN"
 "http://www.w3.org/TR/2001/REC-SVG-20010904/DTD/svg10.dtd">
<svg version="1.0" xmlns="http://www.w3.org/2000/svg"
 width="512.000000pt" height="512.000000pt" viewBox="0 0 512.000000 512.000000"
 preserveAspectRatio="xMidYMid meet">
<metadata>
Created by potrace 1.16, written by Peter Selinger 2001-2019
</metadata>
<g transform="translate(0.000000,512.000000) scale(0.100000,-0.100000)"
fill="#000000" stroke="none">
<path d="M811 5104 c-80 -21 -147 -61 -224 -133 -78 -74 -138 -183 -156 -285
-15 -83 -15 -4169 0 -4252 18 -102 78 -211 156 -285 38 -35 91 -76 119 -91
113 -61 9 -58 1854 -58 1844 0 1740 -3 1854 58 28 15 84 59 124 98 81 81 132
174 151 278 15 83 15 4167 0 4252 -18 102 -78 211 -156 285 -78 73 -144 112
-228 134 -87 22 -3410 22 -3494 -1z m3485 -236 c67 -35 138 -115 161 -181 17
-50 18 -146 18 -2127 0 -1981 -1 -2077 -18 -2127 -23 -66 -94 -146 -161 -181
l-51 -27 -1685 0 -1685 0 -51 27 c-67 35 -138 115 -161 181 -17 50 -18 146
-18 2127 0 1981 1 2077 18 2127 31 88 123 175 217 204 14 4 776 7 1695 6
l1670 -2 51 -27z"/>
<path d="M2426 3614 c-32 -8 -86 -29 -120 -46 -74 -39 -181 -144 -219 -215
-32 -60 -67 -189 -67 -247 0 -111 119 -165 193 -88 19 21 28 43 35 98 24 176
145 288 312 288 126 0 221 -60 280 -176 24 -50 30 -74 30 -128 0 -120 -16
-148 -170 -300 -123 -121 -142 -144 -179 -220 -53 -110 -71 -184 -71 -293 0
-88 0 -89 34 -123 28 -28 42 -34 76 -34 34 0 48 6 76 34 32 32 34 39 34 98 0
73 20 159 51 221 12 24 79 98 154 172 147 144 185 202 211 324 18 84 17 139
-1 226 -42 200 -200 363 -396 410 -79 18 -185 18 -263 -1z"/>
<path d="M1550 3407 c-16 -7 -112 -143 -259 -361 -218 -326 -233 -352 -228
-386 3 -27 69 -133 235 -382 127 -190 238 -348 247 -352 26 -9 94 -7 116 4 10
6 26 24 34 40 33 64 28 75 -186 396 l-200 302 200 301 c172 258 201 307 201
339 0 82 -87 136 -160 99z"/>
<path d="M3463 3400 c-39 -23 -53 -48 -53 -94 0 -29 35 -87 201 -337 l200
-301 -200 -302 c-214 -321 -219 -332 -186 -396 8 -16 24 -34 34 -40 28 -15
103 -12 127 4 11 8 120 165 243 349 169 254 224 344 228 374 5 38 -4 53 -226
386 -234 351 -255 377 -313 377 -13 0 -37 -9 -55 -20z"/>
<path d="M2497 1909 c-25 -15 -47 -63 -47 -104 0 -42 40 -90 84 -101 64 -16
136 38 136 101 0 43 -22 90 -49 105 -25 13 -101 13 -124 -1z"/>
</g>
</svg>
