<?xml version="1.0" encoding="UTF-8"?>
<svg width="191px" height="63px" viewBox="0 0 191 63" version="1.1" xmlns="http://www.w3.org/2000/svg" xmlns:xlink="http://www.w3.org/1999/xlink">
    <title>logo_branco</title>
    <defs>
        <polygon id="path-1" points="7.10542736e-14 44.9063967 177.536925 44.9063967 177.536925 0.00562319959 7.10542736e-14 0.00562319959"></polygon>
    </defs>
    <g id="logo_branco" stroke="none" stroke-width="1" fill="none" fill-rule="evenodd">
        <g id="Group" transform="translate(7.000000, 9.034056)">
            <g id="Group-3" fill="#FFFFFF">
                <path d="M37.7841828,0.00560735959 L7.11659864,0.00560735959 C3.18621973,0.00560735959 3.95999971e-06,3.19182313 3.95999971e-06,7.12224164 L3.95999971e-06,37.7897862 C3.95999971e-06,41.7201651 3.18621973,44.9063809 7.11659864,44.9063809 L37.7841828,44.9063809 C41.7145617,44.9063809 44.9007775,41.7201651 44.9007775,37.7897862 L44.9007775,7.12224164 C44.9007775,3.19182313 41.7145617,0.00560735959 37.7841828,0.00560735959" id="Fill-1"></path>
            </g>
            <path d="M62.5273896,41.2185322 C61.3155901,41.9074137 59.6639138,42.2520921 57.5733904,42.2520921 C54.8408322,42.2520921 52.7380723,41.5927521 51.2651504,40.2740326 C49.7916741,38.9553923 49.0554706,36.9773329 49.0554706,34.3400127 L49.0554706,18.0168938 L57.1100704,18.0168938 L57.1100704,23.4698134 L61.1017897,23.4698134 L61.1017897,29.350413 L57.1100704,29.350413 L57.1100704,34.2687327 C57.1100704,34.8629306 57.264352,35.326211 57.5733904,35.6586926 C57.8819139,35.9916889 58.2861903,36.1576525 58.7851899,36.1576525 C59.4740318,36.1576525 60.0799118,35.9794525 60.6027901,35.6230526 L62.5273896,41.2185322 Z" id="Fill-4" fill="#FFFFFF"></path>
            <mask id="mask-2" fill="white">
                <use xlink:href="#path-1"></use>
            </mask>
            <g id="Clip-7"></g>
            <path d="M64.3093261,41.8956881 L72.3639655,41.8956881 L72.3639655,22.4006096 L64.3093261,22.4006096 L64.3093261,41.8956881 Z M64.8260665,19.6741498 C63.9350665,18.9023062 63.4895666,17.9222063 63.4895666,16.73385 C63.4895666,15.5460085 63.9350665,14.5659085 64.8260665,13.7935502 C65.7170664,13.0217067 66.8870879,12.6352503 68.3366458,12.6352503 C69.8095677,12.6352503 70.9856876,13.0038867 71.864966,13.7400902 C72.7437295,14.4768085 73.1836459,15.4274065 73.1836459,16.59129 C73.1836459,17.8270079 72.7437295,18.8427082 71.864966,19.6385098 C70.9856876,20.4348261 69.8095677,20.8324497 68.3366458,20.8324497 C66.8870879,20.8324497 65.7170664,20.4465081 64.8260665,19.6741498 L64.8260665,19.6741498 Z" id="Fill-6" fill="#FFFFFF" mask="url(#mask-2)"></path>
            <path d="M80.2221691,40.9690601 C78.4758093,40.1136606 77.109253,38.9141766 76.1235694,37.3694204 C75.1373711,35.8251789 74.6445096,34.078819 74.6445096,32.1303407 C74.6445096,30.1823773 75.1373711,28.4415614 76.1235694,26.9090415 C77.109253,25.3765612 78.4758093,24.1826213 80.2221691,23.3272614 C81.968529,22.4718618 83.9465489,22.0442215 86.1562287,22.0442215 C88.5318721,22.0442215 90.563352,22.5554178 92.2506683,23.5767414 C93.9374697,24.5985797 95.1018681,26.0124976 95.743388,27.8178615 L89.5063885,30.8829408 C88.7456725,29.172221 87.6174686,28.316861 86.1205887,28.316861 C85.1699908,28.316861 84.3797728,28.6498574 83.7505289,29.3147413 C83.1206909,29.9802193 82.806069,30.9185412 82.806069,32.1303407 C82.806069,33.366019 83.1206909,34.316617 83.7505289,34.9815405 C84.3797728,35.6469789 85.1699908,35.9794605 86.1205887,35.9794605 C87.6174686,35.9794605 88.7456725,35.1240609 89.5063885,33.413341 L95.743388,36.4784204 C95.1018681,38.2843387 93.9374697,39.6982566 92.2506683,40.7195405 C90.563352,41.7414184 88.5318721,42.2520604 86.1562287,42.2520604 C83.9465489,42.2520604 81.968529,41.82442 80.2221691,40.9690601" id="Fill-8" fill="#FFFFFF" mask="url(#mask-2)"></path>
            <polygon id="Fill-9" fill="#FFFFFF" mask="url(#mask-2)" points="106.684519 35.9081488 105.401518 37.2981483 105.401518 41.8956683 97.3468394 41.8956683 97.3468394 15.4507903 105.401518 15.4507903 105.401518 28.0673494 110.996958 22.4005898 120.512838 22.4005898 112.458198 30.8472692 121.154358 41.8956683 111.424638 41.8956683"></polygon>
            <path d="M129.547716,28.3524773 C128.965239,28.8993532 128.614938,29.7067972 128.496336,30.7759971 L134.733335,29.5642768 C134.519495,28.9466752 134.156997,28.4538532 133.646315,28.0851773 C133.135119,27.7170953 132.523655,27.5327573 131.810856,27.5327573 C130.884216,27.5327573 130.129638,27.8061953 129.547716,28.3524773 M134.786795,35.9794763 C135.368717,35.7655967 136.004139,35.3975147 136.693535,34.8745968 L140.899055,39.1157565 C138.950537,41.2067947 136.111019,42.2520762 132.381095,42.2520762 C130.028856,42.2520762 127.961736,41.8188523 126.179736,40.9512163 C124.397736,40.0841744 123.019498,38.8785525 122.045496,37.3337566 C121.07094,35.7895547 120.584256,34.0548768 120.584256,32.130317 C120.584256,30.1823931 121.07094,28.4415772 122.045496,26.9090574 C123.019498,25.3765771 124.355998,24.1825976 126.054996,23.3272772 C127.75344,22.4718777 129.660219,22.0441977 131.775216,22.0441977 C133.699775,22.0441977 135.469539,22.4306937 137.085575,23.2024976 C138.701097,23.9748956 139.984097,25.1153755 140.934695,26.623977 C141.884738,28.1330933 142.360295,29.9328735 142.360295,32.023397 L129.030936,34.5894768 C129.62454,35.7299567 130.824618,36.3001967 132.630575,36.3001967 C133.485935,36.3001967 134.204319,36.1932767 134.786795,35.9794763" id="Fill-10" fill="#FFFFFF" mask="url(#mask-2)"></path>
            <path d="M158.041886,41.2185322 C156.830086,41.9074137 155.17841,42.2520921 153.087886,42.2520921 C150.355328,42.2520921 148.252568,41.5927521 146.779646,40.2740326 C145.30617,38.9553923 144.569967,36.9773329 144.569967,34.3400127 L144.569967,18.0168938 L152.624566,18.0168938 L152.624566,23.4698134 L156.616286,23.4698134 L156.616286,29.350413 L152.624566,29.350413 L152.624566,34.2687327 C152.624566,34.8629306 152.778848,35.326211 153.087886,35.6586926 C153.39641,35.9916889 153.800686,36.1576525 154.299686,36.1576525 C154.988528,36.1576525 155.594408,35.9794525 156.117286,35.6230526 L158.041886,41.2185322 Z" id="Fill-11" fill="#FFFFFF" mask="url(#mask-2)"></path>
            <path d="M162.532502,41.7174763 C160.916426,41.3610763 159.609982,40.8977563 158.612102,40.3275164 L160.821782,35.0171568 C161.724464,35.5639931 162.793664,35.9916731 164.029381,36.3001967 C165.264505,36.6092747 166.464583,36.7635166 167.628982,36.7635166 C168.555661,36.7635166 169.202725,36.6866926 169.571401,36.5318567 C169.939483,36.3776147 170.123781,36.1459547 170.123781,35.8368767 C170.123781,35.5283927 169.892161,35.3145527 169.428801,35.1953568 C168.965482,35.0767548 168.210943,34.9581528 167.165701,34.8389568 C165.573583,34.6490748 164.219263,34.4056932 163.102702,34.1083764 C161.985626,33.8114953 161.005526,33.2351569 160.162402,32.379797 C159.318764,31.5244766 158.897182,30.3009951 158.897182,28.7088772 C158.897182,27.4497953 159.276986,26.3209974 160.037702,25.3230775 C160.797824,24.3251575 161.932166,23.5293956 163.441282,22.9351976 C164.949883,22.3415937 166.761385,22.0441977 168.876382,22.0441977 C170.349343,22.0441977 171.792763,22.1811741 173.206681,22.4540577 C174.620005,22.7274957 175.826181,23.1256736 176.824101,23.6479976 L174.614461,28.9583572 C172.903701,28.0083533 171.026503,27.5327573 168.983302,27.5327573 C167.224705,27.5327573 166.345981,27.8417957 166.345981,28.4593972 C166.345981,28.7684752 166.583185,28.9884532 167.058781,29.1187768 C167.533783,29.2496152 168.282223,29.3743552 169.304101,29.4929572 C170.895625,29.6833936 172.244401,29.9328735 173.349201,30.2413971 C174.454081,30.5504751 175.428043,31.132397 176.271681,31.987757 C177.114805,32.8431169 177.536901,34.0671528 177.536901,35.6586767 C177.536901,36.8704762 177.156583,37.9752766 176.396461,38.9731965 C175.635784,39.9711164 174.495265,40.7674723 172.974981,41.3610763 C171.454183,41.9547199 169.612585,42.2520762 167.450782,42.2520762 C165.787423,42.2520762 164.147983,42.0738763 162.532502,41.7174763" id="Fill-12" fill="#FFFFFF" mask="url(#mask-2)"></path>
            <path d="M23.2568605,34.4989472 C24.1001028,33.5151645 24.521724,32.2387774 24.521724,30.6692315 C24.521724,29.5448688 24.205518,28.6549777 23.5730665,27.9989245 C22.9406545,27.3434654 22.0622474,27.0151814 20.9379243,27.0151814 C19.6028104,27.0151814 18.5136124,27.5070926 17.6703701,28.4908357 C16.8271278,29.4746184 16.4055066,30.7630835 16.4055066,32.3557162 C16.4055066,33.4800393 16.7217522,34.3644657 17.3541641,35.0084012 C17.9866157,35.6529308 18.8649832,35.9746411 19.9893063,35.9746411 C21.3244202,35.9746411 22.4136182,35.48273 23.2568605,34.4989472 M14.3325656,40.278646 C12.8332701,39.5644205 11.6738217,38.5515713 10.854181,37.239465 C10.0339859,35.9279527 9.6244427,34.4056497 9.6244427,32.6719222 C9.6244427,30.5874179 10.1278775,28.7137045 11.1352618,27.0503066 C12.1420917,25.3874235 13.535972,24.0759112 15.3163087,23.1151757 C17.0961306,22.1549945 19.0988212,21.674607 21.3244202,21.674607 C23.3386345,21.674607 25.0954092,22.0320366 26.5947047,22.7462621 C28.0934062,23.461042 29.2528941,24.467872 30.0730496,25.7679003 C30.8926903,27.067889 31.3027879,28.5846877 31.3027879,30.3178607 C31.3027879,32.4029194 30.7988384,34.2826521 29.7919688,35.9570191 C28.7845845,37.6319802 27.396763,38.9495909 25.6284647,39.909772 C23.8596517,40.870468 21.8514566,41.3503011 19.6028104,41.3503011 C17.5880417,41.3503011 15.831267,40.993426 14.3325656,40.278646" id="Fill-13" fill="#38A0FF" mask="url(#mask-2)"></path>
            <path d="M35.8349838,18.9341011 C35.1322819,18.3016495 34.7809111,17.5171736 34.7809111,16.5800792 C34.7809111,15.4793577 35.1729115,14.5718842 35.9579418,13.8570646 C36.7424574,13.1428391 37.7789477,12.7854491 39.0674128,12.7854491 C40.2383847,12.7854491 41.1755186,13.0841123 41.8782206,13.681399 C42.5809225,14.2786858 42.9322537,15.0461733 42.9322537,15.9827529 C42.9322537,17.1306776 42.5337193,18.0678115 41.7376802,18.7935607 C40.9410867,19.5198642 39.8985771,19.8827586 38.6106664,19.8827586 C37.4627021,19.8827586 36.5376858,19.5665526 35.8349838,18.9341011 L35.8349838,18.9341011 Z M34.3592899,21.9908248 L40.9998531,21.9908248 L37.2052625,41.0340674 L30.564739,41.0340674 L34.3592899,21.9908248 Z" id="Fill-14" fill="#38A0FF" mask="url(#mask-2)"></path>
        </g>
    </g>
</svg>