<?xml version="1.0" encoding="UTF-8"?>
<svg width="68px" height="68px" viewBox="0 0 68 68" version="1.1" xmlns="http://www.w3.org/2000/svg" xmlns:xlink="http://www.w3.org/1999/xlink">
    <title>ic_ajustes</title>
    <g id="ic_ajustes" stroke="none" stroke-width="1" fill="none" fill-rule="evenodd">
        <g id="credit-card-machine" transform="translate(17.000000, 3.000000)" fill="#F16826" fill-rule="nonzero">
            <path d="M9.07199976,50.5259987 L7.05599981,50.5259987 C5.38589077,50.5259987 4.03199989,51.8798895 4.03199989,53.5499986 C4.03199989,55.2201076 5.38589077,56.5739985 7.05599981,56.5739985 L9.07199976,56.5739985 C10.7421088,56.5739985 12.0959997,55.2201076 12.0959997,53.5499986 C12.0959997,51.8798895 10.7421088,50.5259987 9.07199976,50.5259987 Z M9.07199976,54.5579986 L7.05599981,54.5579986 C6.4992968,54.5579986 6.04799984,54.1067016 6.04799984,53.5499986 C6.04799984,52.9932956 6.4992968,52.5419986 7.05599981,52.5419986 L9.07199976,52.5419986 C9.62870277,52.5419986 10.0799997,52.9932956 10.0799997,53.5499986 C10.0799997,54.1067016 9.62870277,54.5579986 9.07199976,54.5579986 Z" id="Shape"></path>
            <path d="M18.1439995,50.5259987 L16.1279996,50.5259987 C14.4578905,50.5259987 13.1039997,51.8798895 13.1039997,53.5499986 C13.1039997,55.2201076 14.4578905,56.5739985 16.1279996,56.5739985 L18.1439995,56.5739985 C19.8141086,56.5739985 21.1679994,55.2201076 21.1679994,53.5499986 C21.1679994,51.8798895 19.8141086,50.5259987 18.1439995,50.5259987 Z M18.1439995,54.5579986 L16.1279996,54.5579986 C15.5712966,54.5579986 15.1199996,54.1067016 15.1199996,53.5499986 C15.1199996,52.9932956 15.5712966,52.5419986 16.1279996,52.5419986 L18.1439995,52.5419986 C18.7007025,52.5419986 19.1519995,52.9932956 19.1519995,53.5499986 C19.1519995,54.1067016 18.7007025,54.5579986 18.1439995,54.5579986 Z" id="Shape"></path>
            <path d="M27.2159993,50.5259987 L25.1999993,50.5259987 C23.5298903,50.5259987 22.1759994,51.8798895 22.1759994,53.5499986 C22.1759994,55.2201076 23.5298903,56.5739985 25.1999993,56.5739985 L27.2159993,56.5739985 C28.8861083,56.5739985 30.2399992,55.2201076 30.2399992,53.5499986 C30.2399992,51.8798895 28.8861083,50.5259987 27.2159993,50.5259987 Z M27.2159993,54.5579986 L25.1999993,54.5579986 C24.6432963,54.5579986 24.1919994,54.1067016 24.1919994,53.5499986 C24.1919994,52.9932956 24.6432963,52.5419986 25.1999993,52.5419986 L27.2159993,52.5419986 C27.7727023,52.5419986 28.2239993,52.9932956 28.2239993,53.5499986 C28.2239993,54.1067016 27.7727023,54.5579986 27.2159993,54.5579986 Z" id="Shape"></path>
            <path d="M9.07199976,43.4699988 L7.05599981,43.4699988 C5.38589077,43.4699988 4.03199989,44.8238897 4.03199989,46.4939988 C4.03199989,48.1641078 5.38589077,49.5179987 7.05599981,49.5179987 L9.07199976,49.5179987 C10.7421088,49.5179987 12.0959997,48.1641078 12.0959997,46.4939988 C12.0959997,44.8238897 10.7421088,43.4699988 9.07199976,43.4699988 Z M9.07199976,47.5019987 L7.05599981,47.5019987 C6.4992968,47.5019987 6.04799984,47.0507018 6.04799984,46.4939988 C6.04799984,45.9372958 6.4992968,45.4859988 7.05599981,45.4859988 L9.07199976,45.4859988 C9.62870277,45.4859988 10.0799997,45.9372958 10.0799997,46.4939988 C10.0799997,47.0507018 9.62870277,47.5019987 9.07199976,47.5019987 Z" id="Shape"></path>
            <path d="M18.1439995,43.4699988 L16.1279996,43.4699988 C14.4578905,43.4699988 13.1039997,44.8238897 13.1039997,46.4939988 C13.1039997,48.1641078 14.4578905,49.5179987 16.1279996,49.5179987 L18.1439995,49.5179987 C19.8141086,49.5179987 21.1679994,48.1641078 21.1679994,46.4939988 C21.1679994,44.8238897 19.8141086,43.4699988 18.1439995,43.4699988 Z M18.1439995,47.5019987 L16.1279996,47.5019987 C15.5712966,47.5019987 15.1199996,47.0507018 15.1199996,46.4939988 C15.1199996,45.9372958 15.5712966,45.4859988 16.1279996,45.4859988 L18.1439995,45.4859988 C18.7007025,45.4859988 19.1519995,45.9372958 19.1519995,46.4939988 C19.1519995,47.0507018 18.7007025,47.5019987 18.1439995,47.5019987 Z" id="Shape"></path>
            <path d="M27.2159993,43.4699988 L25.1999993,43.4699988 C23.5298903,43.4699988 22.1759994,44.8238897 22.1759994,46.4939988 C22.1759994,48.1641078 23.5298903,49.5179987 25.1999993,49.5179987 L27.2159993,49.5179987 C28.8861083,49.5179987 30.2399992,48.1641078 30.2399992,46.4939988 C30.2399992,44.8238897 28.8861083,43.4699988 27.2159993,43.4699988 Z M27.2159993,47.5019987 L25.1999993,47.5019987 C24.6432963,47.5019987 24.1919994,47.0507018 24.1919994,46.4939988 C24.1919994,45.9372958 24.6432963,45.4859988 25.1999993,45.4859988 L27.2159993,45.4859988 C27.7727023,45.4859988 28.2239993,45.9372958 28.2239993,46.4939988 C28.2239993,47.0507018 27.7727023,47.5019987 27.2159993,47.5019987 Z" id="Shape"></path>
            <path d="M9.07199976,36.413999 L7.05599981,36.413999 C5.38589077,36.413999 4.03199989,37.7678899 4.03199989,39.437999 C4.03199989,41.108108 5.38589077,42.4619989 7.05599981,42.4619989 L9.07199976,42.4619989 C10.7421088,42.4619989 12.0959997,41.108108 12.0959997,39.437999 C12.0959997,37.7678899 10.7421088,36.413999 9.07199976,36.413999 Z M9.07199976,40.4459989 L7.05599981,40.4459989 C6.4992968,40.4459989 6.04799984,39.994702 6.04799984,39.437999 C6.04799984,38.8812959 6.4992968,38.429999 7.05599981,38.429999 L9.07199976,38.429999 C9.62870277,38.429999 10.0799997,38.8812959 10.0799997,39.437999 C10.0799997,39.994702 9.62870277,40.4459989 9.07199976,40.4459989 Z" id="Shape"></path>
            <path d="M18.1439995,36.413999 L16.1279996,36.413999 C14.4578905,36.413999 13.1039997,37.7678899 13.1039997,39.437999 C13.1039997,41.108108 14.4578905,42.4619989 16.1279996,42.4619989 L18.1439995,42.4619989 C19.8141086,42.4619989 21.1679994,41.108108 21.1679994,39.437999 C21.1679994,37.7678899 19.8141086,36.413999 18.1439995,36.413999 Z M18.1439995,40.4459989 L16.1279996,40.4459989 C15.5712966,40.4459989 15.1199996,39.994702 15.1199996,39.437999 C15.1199996,38.8812959 15.5712966,38.429999 16.1279996,38.429999 L18.1439995,38.429999 C18.7007025,38.429999 19.1519995,38.8812959 19.1519995,39.437999 C19.1519995,39.994702 18.7007025,40.4459989 18.1439995,40.4459989 Z" id="Shape"></path>
            <path d="M27.2159993,36.413999 L25.1999993,36.413999 C23.5298903,36.413999 22.1759994,37.7678899 22.1759994,39.437999 C22.1759994,41.108108 23.5298903,42.4619989 25.1999993,42.4619989 L27.2159993,42.4619989 C28.8861083,42.4619989 30.2399992,41.108108 30.2399992,39.437999 C30.2399992,37.7678899 28.8861083,36.413999 27.2159993,36.413999 Z M27.2159993,40.4459989 L25.1999993,40.4459989 C24.6432963,40.4459989 24.1919994,39.994702 24.1919994,39.437999 C24.1919994,38.8812959 24.6432963,38.429999 25.1999993,38.429999 L27.2159993,38.429999 C27.7727023,38.429999 28.2239993,38.8812959 28.2239993,39.437999 C28.2239993,39.994702 27.7727023,40.4459989 27.2159993,40.4459989 Z" id="Shape"></path>
            <path d="M18.1439995,15.2459996 L16.1279996,15.2459996 C15.5712966,15.2459996 15.1199996,14.7947026 15.1199996,14.2379996 C15.1199996,13.6812966 14.6687026,13.2299996 14.1119996,13.2299996 C13.5552966,13.2299996 13.1039997,13.6812966 13.1039997,14.2379996 C13.1039997,15.9081087 14.4578905,17.2619995 16.1279996,17.2619995 L16.1279996,18.2699995 C16.1279996,18.8267025 16.5792965,19.2779995 17.1359995,19.2779995 C17.6927026,19.2779995 18.1439995,18.8267025 18.1439995,18.2699995 L18.1439995,17.2619995 C19.8141086,17.2619995 21.1679994,15.9081087 21.1679994,14.2379996 C21.1679994,12.5678906 19.8141086,11.2139997 18.1439995,11.2139997 L16.1279996,11.2139997 C15.5712966,11.2139997 15.1199996,10.7627027 15.1199996,10.2059997 C15.1199996,9.64929672 15.5712966,9.19799976 16.1279996,9.19799976 L18.1439995,9.19799976 C18.7007025,9.19799976 19.1519995,9.64929672 19.1519995,10.2059997 C19.1519995,10.7627027 19.6032965,11.2139997 20.1599995,11.2139997 C20.7167025,11.2139997 21.1679994,10.7627027 21.1679994,10.2059997 C21.1679994,8.53589069 19.8141086,7.18199981 18.1439995,7.18199981 L18.1439995,6.17399984 C18.1439995,5.61729682 17.6927026,5.16599986 17.1359995,5.16599986 C16.5792965,5.16599986 16.1279996,5.61729682 16.1279996,6.17399984 L16.1279996,7.18199981 C14.4578905,7.18199981 13.1039997,8.53589069 13.1039997,10.2059997 C13.1039997,11.8761088 14.4578905,13.2299996 16.1279996,13.2299996 L18.1439995,13.2299996 C18.7007025,13.2299996 19.1519995,13.6812966 19.1519995,14.2379996 C19.1519995,14.7947026 18.7007025,15.2459996 18.1439995,15.2459996 Z" id="Path"></path>
            <path d="M8.06399979,31.3739992 L26.2079993,31.3739992 C26.7647023,31.3739992 27.2159993,30.9227022 27.2159993,30.3659992 L27.2159993,24.3179994 C27.2159993,23.7612963 26.7647023,23.3099994 26.2079993,23.3099994 L8.06399979,23.3099994 C7.50729677,23.3099994 7.05599981,23.7612963 7.05599981,24.3179994 L7.05599981,30.3659992 C7.05599981,30.9227022 7.50729677,31.3739992 8.06399979,31.3739992 Z M9.07199976,25.3259993 L25.1999993,25.3259993 L25.1999993,29.3579992 L9.07199976,29.3579992 L9.07199976,25.3259993 Z" id="Shape"></path>
            <path d="M31.2479992,12.2219997 L30.0585592,12.2219997 C29.6299269,11.0185972 28.493442,10.2125795 27.2159993,10.2059997 L27.2159993,1.13399997 C27.2159993,1.10375997 27.1958393,1.07351997 27.1958393,1.04327997 C27.1931615,0.977639699 27.1795338,0.912908294 27.1555193,0.851759977 C27.1381294,0.785825744 27.1145029,0.721696519 27.0849593,0.660239983 C27.0647993,0.629999983 27.0647993,0.599759984 27.0446393,0.579599985 C27.0270357,0.554003968 27.0067619,0.530351157 26.9841593,0.509039987 L26.8329593,0.357839991 C26.7849526,0.320781652 26.7344311,0.287100689 26.6817593,0.257039993 C26.6230607,0.229173577 26.5624223,0.205591977 26.5003193,0.186479995 C26.434409,0.167246604 26.3669571,0.153756223 26.2987193,0.146159996 C26.2684793,0.146159996 26.2382393,0.125999997 26.2079993,0.125999997 C26.1768825,0.127873519 26.1462609,0.134678319 26.1172793,0.146159996 C26.0484908,0.149841408 25.9805923,0.163421098 25.9156793,0.186479995 C25.8535763,0.205591977 25.7929379,0.229173577 25.7342393,0.257039993 C25.7039993,0.277199993 25.6737593,0.277199993 25.6535993,0.297359992 L23.1839994,1.94039995 L20.7043195,0.297359992 C20.3710819,0.0655019336 19.9287571,0.0655019336 19.5955195,0.297359992 L17.1259195,1.94039995 L14.6663996,0.297359992 C14.3294756,0.0654981258 13.8844436,0.0654981258 13.5475196,0.297359992 L11.0879997,1.94039995 L8.62847977,0.297359992 C8.59823977,0.277199993 8.56799977,0.277199993 8.53775977,0.257039993 C8.47906123,0.229173577 8.41842283,0.205591977 8.35631978,0.186479995 C8.29140675,0.163421098 8.22350831,0.149841408 8.15471978,0.146159996 C8.12447978,0.146159996 8.09423979,0.125999997 8.06399979,0.125999997 C8.03375979,0.125999997 8.00351979,0.146159996 7.97327979,0.146159996 C7.90504203,0.153756223 7.83759012,0.167246604 7.77167979,0.186479995 C7.70957674,0.205591977 7.64893835,0.229173577 7.5902398,0.257039993 C7.53756798,0.287100689 7.48704653,0.320781652 7.4390398,0.357839991 C7.38693995,0.403268006 7.33965109,0.45393464 7.29791981,0.509039987 C7.27232379,0.526643573 7.24867098,0.546917412 7.22735981,0.569519985 C7.20719981,0.599759984 7.20719981,0.629999983 7.18703981,0.660239983 C7.15917339,0.71893853 7.13559179,0.779576928 7.11647981,0.841679978 C7.09342091,0.906593002 7.07984122,0.974491451 7.07615981,1.04327997 C7.07615981,1.07351997 7.05599981,1.10375997 7.05599981,1.13399997 L7.05599981,10.2059997 C5.77855711,10.2125795 4.64207219,11.0185972 4.21343989,12.2219997 L3.02399992,12.2219997 C1.35595874,12.2269814 0.00498173915,13.5779584 0,15.2459996 L0,57.5819985 C0.00498173915,59.2500397 1.35595874,60.6010167 3.02399992,60.6059984 L31.2479992,60.6059984 C32.9160403,60.6010167 34.2670174,59.2500397 34.2719991,57.5819985 L34.2719991,15.2459996 C34.2670174,13.5779584 32.9160403,12.2269814 31.2479992,12.2219997 Z M9.07199976,3.01895992 L10.5235197,3.98663989 C10.8604437,4.21850176 11.3054757,4.21850176 11.6423997,3.98663989 L14.1019196,2.34359994 L16.5715196,3.98663989 C16.7352924,4.09735932 16.9282346,4.15699601 17.1259195,4.15799989 C17.326752,4.15706803 17.5229414,4.09751053 17.6903995,3.98663989 L20.1499195,2.34359994 L22.6195194,3.98663989 C22.9564434,4.21850176 23.4014754,4.21850176 23.7383994,3.98663989 L25.1999993,3.01895992 L25.1999993,20.2859995 L9.07199976,20.2859995 L9.07199976,3.01895992 Z M6.04799984,13.2299996 C6.04799984,12.6732966 6.4992968,12.2219997 7.05599981,12.2219997 L7.05599981,21.2939994 C7.05599981,21.8507024 7.50729677,22.3019994 8.06399979,22.3019994 L26.2079993,22.3019994 C26.7647023,22.3019994 27.2159993,21.8507024 27.2159993,21.2939994 L27.2159993,12.2219997 C27.7727023,12.2219997 28.2239993,12.6732966 28.2239993,13.2299996 L28.2239993,31.3739992 C28.2239993,31.9307022 27.7727023,32.3819991 27.2159993,32.3819991 L7.05599981,32.3819991 C6.4992968,32.3819991 6.04799984,31.9307022 6.04799984,31.3739992 L6.04799984,13.2299996 Z M32.2559991,57.5819985 C32.2559991,58.1387015 31.8047022,58.5899984 31.2479992,58.5899984 L3.02399992,58.5899984 C2.46729691,58.5899984 2.01599995,58.1387015 2.01599995,57.5819985 L2.01599995,15.2459996 C2.01599995,14.6892966 2.46729691,14.2379996 3.02399992,14.2379996 L4.03199989,14.2379996 L4.03199989,31.3739992 C4.03698163,33.0420403 5.38795864,34.3930173 7.05599981,34.3979991 L27.2159993,34.3979991 C28.8840405,34.3930173 30.2350175,33.0420403 30.2399992,31.3739992 L30.2399992,14.2379996 L31.2479992,14.2379996 C31.8047022,14.2379996 32.2559991,14.6892966 32.2559991,15.2459996 L32.2559991,57.5819985 Z" id="Shape"></path>
        </g>
    </g>
</svg>