<?xml version="1.0" encoding="UTF-8"?>
<svg width="50px" height="50px" viewBox="0 0 50 50" version="1.1" xmlns="http://www.w3.org/2000/svg" xmlns:xlink="http://www.w3.org/1999/xlink">
    <title>ic_aporte</title>
    <g id="ic_aporte" stroke="none" stroke-width="1" fill="none" fill-rule="evenodd">
        <g id="credit-card---coÌpia-3" transform="translate(9.000000, 3.000000)" fill="#004FFA" fill-rule="nonzero">
            <path d="M29.5199992,8.63999977 L20.1599995,8.63999977 L20.1599995,0 L4.31999989,0 L4.31999989,19.4587195 C3.7166399,19.0015195 2.97359992,18.7199995 2.15999994,18.7199995 C0.969119974,18.7199995 0,19.6891195 0,20.8799994 L0,33.8695191 C0,35.4146391 0.554399985,36.912239 1.56023996,38.085839 L4.31999989,41.3063989 L4.31999989,44.6399988 L20.1599995,44.6399988 L20.1599995,41.2315189 L22.1860794,37.685519 C22.7447994,36.707039 23.0399994,35.5953591 23.0399994,34.4699991 L23.0399994,33.1199991 L29.5199992,33.1199991 C30.7108792,33.1199991 31.6799992,32.1508791 31.6799992,30.9599992 L31.6799992,10.7999997 C31.6799992,9.60911975 30.7108792,8.63999977 29.5199992,8.63999977 Z M12.9599997,14.3999996 C13.3574396,14.3999996 13.6799996,14.7225596 13.6799996,15.1199996 L14.3999996,15.1199996 L14.3999996,16.4015996 C14.0169596,16.0559996 13.5151196,15.8399996 12.9599997,15.8399996 L11.5199997,15.8399996 C11.1225597,15.8399996 10.7999997,15.5174396 10.7999997,15.1199996 L10.7999997,14.3999996 L12.9599997,14.3999996 Z M14.3999996,10.7999997 L14.3999996,13.5215996 C14.0169596,13.1759997 13.5151196,12.9599997 12.9599997,12.9599997 L12.9599997,11.5199997 L11.5199997,11.5199997 L11.5199997,12.9599997 L9.35999975,12.9599997 L9.35999975,15.1199996 C9.35999975,16.3108796 10.3291197,17.2799995 11.5199997,17.2799995 L12.9599997,17.2799995 C13.3574396,17.2799995 13.6799996,17.6025595 13.6799996,17.9999995 L13.6799996,18.7199995 L11.5199997,18.7199995 C11.1225597,18.7199995 10.7999997,18.3974395 10.7999997,17.9999995 L9.35999975,17.9999995 C9.35999975,19.1908795 10.3291197,20.1599995 11.5199997,20.1599995 L11.5199997,21.5999994 L12.9599997,21.5999994 L12.9599997,20.1599995 L14.3999996,20.1599995 L14.3999996,22.6641594 C13.7087996,22.9089594 12.9859197,23.0399994 12.2399997,23.0399994 C8.66663977,23.0399994 5.75999985,20.1333595 5.75999985,16.5599996 C5.75999985,12.9866397 8.66663977,10.0799997 12.2399997,10.0799997 C12.9995997,10.0799997 13.7339996,10.2117597 14.4338396,10.4644797 C14.4165596,10.5746397 14.3999996,10.6847997 14.3999996,10.7999997 Z M15.8399996,30.9599992 L15.8399996,10.7999997 C15.8399996,10.4025597 16.1625596,10.0799997 16.5599996,10.0799997 L24.4799994,10.0799997 L24.4799994,31.6799992 L17.9999995,31.6799992 L16.5599996,31.6799992 C16.1625596,31.6799992 15.8399996,31.3574392 15.8399996,30.9599992 Z M25.9199993,10.0799997 L27.3599993,10.0799997 L27.3599993,31.6799992 L25.9199993,31.6799992 L25.9199993,10.0799997 Z M5.75999985,1.43999996 L18.7199995,1.43999996 L18.7199995,8.63999977 L16.5599996,8.63999977 C16.0084796,8.63999977 15.5102396,8.85383977 15.1279196,9.19511976 C14.2099196,8.83367977 13.2429596,8.63999977 12.2399997,8.63999977 C9.56159975,8.63999977 7.19423981,9.97991974 5.75999985,12.0203997 L5.75999985,1.43999996 Z M12.2399997,24.4799994 C12.9801597,24.4799994 13.7015996,24.3712794 14.3999996,24.1725594 L14.3999996,30.9599992 C14.3999996,31.2134392 14.4518396,31.4539192 14.5324796,31.6799992 L7.91999979,31.6799992 L7.91999979,30.7130392 C7.91999979,29.7511192 7.5448798,28.8467992 6.86519982,28.1671193 L5.75999985,27.0619193 L5.75999985,26.6399993 L5.75999985,22.3199994 L5.75999985,21.0995994 C7.19423981,23.1400794 9.56159975,24.4799994 12.2399997,24.4799994 Z M21.5999994,34.4699991 C21.5999994,35.3455191 21.3703194,36.210959 20.9361594,36.971279 L18.7199995,40.8484789 L18.7199995,43.1999989 L5.75999985,43.1999989 L5.75999985,40.7735989 L2.65391993,37.149839 C1.87127995,36.236159 1.43999996,35.0711991 1.43999996,33.8695191 L1.43999996,20.8799994 C1.43999996,20.4825595 1.76255995,20.1599995 2.15999994,20.1599995 C3.35087991,20.1599995 4.31999989,21.1291194 4.31999989,22.3199994 L4.31999989,26.6399993 L4.31999989,27.6580793 L5.84711985,29.1851992 C6.25535983,29.5934392 6.47999983,30.1355992 6.47999983,30.7130392 L6.47999983,33.1199991 L16.5599996,33.1199991 L17.9999995,33.1199991 L21.5999994,33.1199991 L21.5999994,34.4699991 Z M30.2399992,30.9599992 C30.2399992,31.3574392 29.9174392,31.6799992 29.5199992,31.6799992 L28.7999992,31.6799992 L28.7999992,10.0799997 L29.5199992,10.0799997 C29.9174392,10.0799997 30.2399992,10.4025597 30.2399992,10.7999997 L30.2399992,30.9599992 Z" id="Shape"></path>
            <polygon id="Path" points="17.2799995 28.7999992 18.7199995 28.7999992 18.7199995 30.2399992 17.2799995 30.2399992"></polygon>
            <polygon id="Path" points="17.2799995 23.0399994 18.7199995 23.0399994 18.7199995 24.4799994 17.2799995 24.4799994"></polygon>
            <polygon id="Path" points="17.2799995 25.9199993 18.7199995 25.9199993 18.7199995 27.3599993 17.2799995 27.3599993"></polygon>
            <polygon id="Path" points="20.1599995 23.0399994 21.5999994 23.0399994 21.5999994 30.2399992 20.1599995 30.2399992"></polygon>
            <polygon id="Path" points="8.63999977 4.31999989 10.0799997 4.31999989 10.0799997 2.87999992 7.19999981 2.87999992 7.19999981 5.75999985 8.63999977 5.75999985"></polygon>
            <polygon id="Path" points="15.8399996 5.75999985 17.2799995 5.75999985 17.2799995 2.87999992 14.3999996 2.87999992 14.3999996 4.31999989 15.8399996 4.31999989"></polygon>
        </g>
    </g>
</svg>