<?xml version="1.0" encoding="UTF-8"?>
<svg width="68px" height="68px" viewBox="0 0 68 68" version="1.1" xmlns="http://www.w3.org/2000/svg" xmlns:xlink="http://www.w3.org/1999/xlink">
    <title>ic_baixa-produtos copy</title>
    <g id="ic_baixa-produtos-copy" stroke="none" stroke-width="1" fill="none" fill-rule="evenodd">
        <g id="transaction" transform="translate(5.000000, 5.000000)" fill="#7ED321" fill-rule="nonzero" stroke="#7ED321">
            <path d="M51.84708,2.88708 L51.84708,11.54244 C42.30744,-1.18512 24.25632,-3.76944 11.52876,5.7702 C1.65288,13.17252 -2.40864,26.04468 1.43076,37.77444 C1.55964,38.1696 1.92804,38.4368406 2.34372,38.4368406 C2.44524,38.4368406 2.54616,38.4204 2.64228,38.38788 C3.1458,38.22288 3.42036,37.68096 3.25572,37.17732 C2.37276,34.47516 1.92432,31.64988 1.92708,28.80708 C1.9242,13.96164 13.95648,1.92468 28.80192,1.92192 C37.6008,1.92024 45.8436,6.225 50.8698,13.44708 L40.32708,13.44708 L40.32708,15.36708 L53.76708,15.36708 L53.76708,2.88708 L51.84708,2.88708 Z" id="Path"></path>
            <path d="M56.1834,19.83972 C56.00448,19.34064 55.45476,19.08108 54.95568,19.26 C54.47616,19.43196 54.21444,19.94844 54.3594,20.43684 C58.98108,34.54788 51.28848,49.73376 37.17744,54.35532 C25.89624,58.05012 13.52712,53.90928 6.74436,44.16708 L17.28708,44.16708 L17.28708,42.24708 L3.84708,42.24708 L3.84708,54.72708 L5.76708,54.72708 L5.76708,46.07172 C15.30672,58.79928 33.35784,61.3836 46.08528,51.84396 C55.96128,44.44164 60.02268,31.56948 56.1834,19.83972 Z" id="Path"></path>
            <path d="M28.80708,27.84708 C25.09572,27.84708 22.08708,24.83844 22.08708,21.12708 C22.08708,17.41572 25.09572,14.40708 28.80708,14.40708 C32.51664,14.41128 35.52288,17.41752 35.52708,21.12708 L37.44708,21.12708 C37.44072,16.72992 34.13652,13.03704 29.76708,12.54372 L29.76708,9.60708 L27.84708,9.60708 L27.84708,12.54372 C23.1066,13.089 19.70568,17.37396 20.25096,22.11444 C20.75136,26.46504 24.4278,29.75328 28.80708,29.76708 C32.51844,29.76708 35.52708,32.77572 35.52708,36.48708 C35.52708,40.19844 32.51844,43.20708 28.80708,43.20708 C25.09572,43.20708 22.08708,40.19844 22.08708,36.48708 L20.16708,36.48708 C20.17344,40.88424 23.47764,44.57712 27.84708,45.07044 L27.84708,48.00708 L29.76708,48.00708 L29.76708,45.07044 C34.50756,44.52516 37.90848,40.2402 37.3632,35.49972 C36.86268,31.149 33.18636,27.86088 28.80708,27.84708 Z" id="Path"></path>
        </g>
    </g>
</svg>