<?xml version="1.0" encoding="UTF-8"?>
<svg width="68px" height="68px" viewBox="0 0 68 68" version="1.1" xmlns="http://www.w3.org/2000/svg" xmlns:xlink="http://www.w3.org/1999/xlink">
    <title>ic_baixa-produtos</title>
    <g id="ic_baixa-produtos" stroke="none" stroke-width="1" fill="none" fill-rule="evenodd">
        <g id="box" transform="translate(2.000000, 4.000000)" fill="#9013FE" fill-rule="nonzero">
            <path d="M24.84495,0.20436 C25.1247227,0.0417421769 25.4702373,0.0417421769 25.75001,0.20436 L25.75001,0.20436 L50.13502,14.28882 C50.4116732,14.4536939 50.5779396,14.7549213 50.57,15.07688 L50.57,15.07688 L50.57,23.53 L54.0267,23.53 C55.4498741,23.5434132 56.6919305,24.4981476 57.07091,25.87 L57.07091,25.87 L60.30908,25.87 C62.4705457,25.878302 64.2187276,27.6321787 64.22,29.79366 L64.22,29.79366 L64.22,56.06666 C64.2169633,57.0986127 63.8024179,58.0867257 63.0682617,58.8119502 C62.3341056,59.5371746 61.3409926,59.9395946 60.30908,59.9301677 L60.30908,59.9301677 L42.49583,59.9301677 C41.466517,59.9386503 40.476528,59.5351247 39.7465588,58.8093803 C39.0165895,58.0836359 38.6073245,57.0960058 38.61,56.06666 L38.61,56.06666 L38.61,50.71404 L25.77302,58.11845 C25.6300339,58.1984971 25.4688875,58.2404846 25.30502,58.24039 C25.1452795,58.240383 24.9883552,58.1983273 24.85002,58.11845 L24.85002,58.11845 L0.455,44.03399 C0.173452173,43.8714383 -4.66353939e-06,43.5710334 -4.66353939e-06,43.24593 L-4.66353939e-06,43.24593 L-4.66353939e-06,15.07688 C-0.00103864188,14.7521767 0.17147885,14.4516592 0.4524,14.28882 L0.4524,14.28882 Z M45.76949,27.69 L42.49583,27.69 C41.9427562,27.6944945 41.4141802,27.9187823 41.0266494,28.3134097 C40.6391186,28.7080371 40.4244584,29.2405957 40.4298953,29.79366 L40.4298953,29.79366 L40.4298953,56.06666 C40.4267732,56.6134868 40.6441201,57.1385261 41.0329022,57.5230757 C41.4216844,57.9076253 41.9490713,58.1192121 42.49583,58.11 L42.49583,58.11 L60.30908,58.11 C60.8584314,58.1201298 61.3889211,57.9096427 61.7818825,57.5256234 C62.1748439,57.141604 62.3974841,56.616099 62.4,56.06666 L62.4,56.06666 L62.4,29.79366 C62.3997371,28.636915 61.4658021,27.6972895 60.30908,27.69 L60.30908,27.69 L57.03529,27.69 C56.6345143,29.0130702 55.409075,29.913233 54.0267,29.9 L54.0267,29.9 L48.77821,29.9 C47.395815,29.9132042 46.1703536,29.0130641 45.76949,27.69 L45.76949,27.69 Z M1.82,16.65105 L1.82,42.72047 L24.44,55.75414 L24.44,29.68472 L1.82,16.65105 Z M48.75,16.65105 L26.26,29.68472 L26.26,55.75414 L38.61,48.61259 L38.61,29.79366 C38.5995642,27.6371332 40.3393033,25.880457 42.49583,25.87 L42.49583,25.87 L45.734,25.87 C46.1129412,24.4981218 47.3550208,23.5433696 48.77821,23.53 L48.77821,23.53 L48.75,23.53 L48.75,16.65105 Z M49.92572,50.80894 C50.2811152,50.4535448 50.8573247,50.4535448 51.21272,50.80894 C51.5681152,51.1643353 51.5681152,51.7405448 51.21272,52.09594 L51.21272,52.09594 L47.90396,55.4047 C47.7332992,55.5753782 47.5018231,55.6712657 47.26046,55.6712657 C47.0190969,55.6712657 46.7876208,55.5753782 46.61696,55.4047 L46.61696,55.4047 L45.16265,53.95052 C44.9327496,53.7206196 44.8429633,53.3855324 44.9271127,53.0714827 C45.011262,52.7574329 45.2565629,52.512132 45.5706127,52.4279827 C45.8846624,52.3438333 46.2197496,52.4336196 46.44965,52.66352 L46.44965,52.66352 L47.26033,53.47433 Z M47.83012,49.53 C48.341272,49.5456884 48.748069,49.9635809 48.75,50.47497 L48.75,50.47497 L48.75,51.35182 C48.7392372,51.8495869 48.3323766,52.2473494 47.8344936,52.246854 C47.3366106,52.2463586 46.9305423,51.8477874 46.92077,51.35 L46.92077,51.35 L44.46,51.35 L44.46,53.82 L44.49601,53.82 C44.9985891,53.82 45.40601,54.2274209 45.40601,54.73 C45.40601,55.2325791 44.9985891,55.64 44.49601,55.64 L44.49601,55.64 L43.54337,55.64 C43.3060784,55.6469264 43.0760997,55.5574435 42.9058907,55.3919619 C42.7356817,55.2264803 42.6397583,54.9991125 42.64,54.76172 L42.64,54.76172 L42.64,50.47497 C42.6342007,49.9667907 43.0354444,49.5470699 43.54337,49.53 L43.54337,49.53 Z M59.26141,51.74 C59.7639891,51.74 60.17141,52.1474209 60.17141,52.65 C60.17141,53.1525791 59.7639891,53.56 59.26141,53.56 L59.26141,53.56 L53.54583,53.56 C53.0432509,53.56 52.63583,53.1525791 52.63583,52.65 C52.63583,52.1474209 53.0432509,51.74 53.54583,51.74 L53.54583,51.74 Z M47.84,41.21 C48.3425791,41.21 48.75,41.6174209 48.75,42.12 L48.75,42.12 L48.75,46.41 C48.75,46.9125791 48.3425791,47.32 47.84,47.32 L47.84,47.32 L43.55,47.32 C43.0474209,47.32 42.64,46.9125791 42.64,46.41 L42.64,46.41 L42.64,42.12 C42.64,41.6174209 43.0474209,41.21 43.55,41.21 L43.55,41.21 Z M46.93,43.03 L44.46,43.03 L44.46,45.5 L46.93,45.5 L46.93,43.03 Z M59.26141,43.42 C59.7639891,43.42 60.17141,43.8274209 60.17141,44.33 C60.17141,44.8325791 59.7639891,45.24 59.26141,45.24 L59.26141,45.24 L53.54583,45.24 C53.0432509,45.24 52.63583,44.8325791 52.63583,44.33 C52.63583,43.8274209 53.0432509,43.42 53.54583,43.42 L53.54583,43.42 Z M47.83012,32.89 C48.3354839,32.8911932 48.7457265,33.2989428 48.75,33.80429 L48.75,33.80429 L48.75,34.41659 C48.747493,34.9197207 48.338195,35.3258782 47.83506,35.32451 C47.4413097,35.3375008 47.087318,35.086063 46.96991,34.71 L46.96991,34.71 L44.46,34.71 L44.46,37.18 L44.49588,37.18 C44.9984591,37.18 45.40588,37.5874209 45.40588,38.09 C45.40588,38.5925791 44.9984591,39 44.49588,39 L44.49588,39 L43.54337,39 C43.3028204,39 43.0722138,38.9040155 42.902645,38.7333974 C42.7330762,38.5627793 42.6385463,38.3315852 42.6399784,38.09104 L42.6399784,38.09104 L42.6399784,33.80429 C42.63834,33.5631898 42.732634,33.3313275 42.9020943,33.1598187 C43.0715547,32.98831 43.3022672,32.8912369 43.54337,32.89 L43.54337,32.89 Z M49.92572,34.00657 C50.2811152,33.6511748 50.8573248,33.6511748 51.21272,34.00657 C51.5681152,34.3619652 51.5681152,34.9381748 51.21272,35.29357 L51.21272,35.29357 L47.90396,38.60233 C47.7332992,38.7730082 47.5018231,38.8688957 47.26046,38.8688957 C47.0190969,38.8688957 46.7876208,38.7730082 46.61696,38.60233 L46.61696,38.60233 L45.16265,37.14815 C44.9327496,36.9182496 44.8429633,36.5831624 44.9271127,36.2691127 C45.011262,35.9550629 45.2565629,35.709762 45.5706127,35.6256127 C45.8846624,35.5414633 46.2197496,35.6312496 46.44965,35.86115 L46.44965,35.86115 L47.26033,36.67196 Z M59.26141,35.1 C59.7639891,35.1 60.17141,35.5074209 60.17141,36.01 C60.17141,36.5125791 59.7639891,36.92 59.26141,36.92 L59.26141,36.92 L53.54583,36.92 C53.0432509,36.92 52.63583,36.5125791 52.63583,36.01 C52.63583,35.5074209 53.0432509,35.1 53.54583,35.1 L53.54583,35.1 Z M37.26164,8.94634 L14.68818,21.97897 L25.30502,28.1086 L47.879,15.07597 L37.26164,8.94634 Z M54.05907,25.35 L48.77093,25.35 C48.0414005,25.35 47.45,25.9414005 47.45,26.67093 L47.45,26.67093 L47.45,26.75907 C47.45,27.4885995 48.0414005,28.08 48.77093,28.08 L48.77093,28.08 L54.05907,28.08 C54.7885995,28.08 55.38,27.4885995 55.38,26.75907 L55.38,26.75907 L55.38,26.67093 C55.38,25.9414005 54.7885995,25.35 54.05907,25.35 L54.05907,25.35 Z M25.30502,2.04321 L2.73169,15.07597 L12.86818,20.92831 L35.44164,7.89555 L25.30502,2.04321 Z" id="Combined-Shape"></path>
        </g>
    </g>
</svg>