<?xml version="1.0" encoding="UTF-8"?>
<svg width="60px" height="60px" viewBox="0 0 60 60" version="1.1" xmlns="http://www.w3.org/2000/svg" xmlns:xlink="http://www.w3.org/1999/xlink">
    <title>Group 6</title>
    <g id="Page-1" stroke="none" stroke-width="1" fill="none" fill-rule="evenodd">
        <g id="1-2_indicadores-eventos-copy-3" transform="translate(-266.000000, -355.000000)" fill="#0054FE">
            <g id="Group-6" transform="translate(266.000000, 355.000000)">
                <rect id="background" opacity="0.066125" x="0" y="0" width="60" height="60" rx="6"></rect>
                <g id="cocktail" transform="translate(14.000000, 6.000000)" fill-rule="nonzero">
                    <path d="M8.32433495,18.4025031 C9.93009413,17.331881 11.9911244,17.270633 13.6484746,18.2178021 L17.1321289,11.2233493 L1.39217416,11.2233493 C0.341823039,11.2233493 -0.278052032,12.4049834 0.317811036,13.2692415 L5.2647186,20.4423053 C10.4207742,17.0048479 6.09008769,19.8916823 8.32433495,18.4025031 Z" id="Path"></path>
                    <path d="M25.0561768,41.9343528 L16.6171759,41.9343528 L16.6171759,33.1187288 L23.8776747,22.5910316 C19.9951253,20.0026943 21.1427424,20.7677724 20.8524234,20.5741973 C20.0235743,20.0213993 18.9527782,20.0213993 18.1242771,20.5740233 C17.218868,21.1776294 16.1250168,21.4907424 14.9724407,21.4139214 L13.5619095,24.2461198 C13.3337085,24.7044358 12.8721735,24.9695248 12.3928034,24.9695248 C11.4336283,24.9695248 10.7912202,23.9549307 11.2256983,23.0824946 L12.4809344,20.5621043 C11.6667013,20.0301863 10.6034742,20.0200073 9.77210211,20.5741103 C9.43671707,20.7977004 10.7763432,19.9046453 6.74676377,22.5910316 L14.0072626,33.1187288 L14.0072626,41.9343528 L5.56826163,41.9343528 C4.84755355,41.9343528 4.26326148,42.5186448 4.26326148,43.2393529 C4.26326148,43.960061 4.84755355,44.5443531 5.56826163,44.5443531 L25.0562638,44.5443531 C25.7769719,44.5443531 26.361264,43.960061 26.361264,43.2393529 C26.361264,42.5186448 25.7768849,41.9343528 25.0561768,41.9343528 Z" id="Path"></path>
                    <path d="M29.2321773,11.2233493 L22.9663496,11.2233493 L27.6163261,1.88720421 C27.9376172,1.24201214 27.6751381,0.458577052 27.0300331,0.137286016 C26.384754,-0.184179021 25.6013189,0.0784740089 25.2801149,0.723579082 C20.4731903,10.3750122 21.1984224,8.91349901 16.3913239,18.5652801 C16.4891989,18.5173431 16.5846379,18.4637511 16.6763359,18.4025901 C18.3844941,17.263412 20.5921193,17.263499 22.3002775,18.4026771 C24.5947288,19.9319633 20.2153223,17.0126779 25.3596329,20.4423053 L30.3065404,13.2692415 C30.9027515,12.4044614 30.2818324,11.2233493 29.2321773,11.2233493 L29.2321773,11.2233493 Z" id="Path"></path>
                </g>
            </g>
        </g>
    </g>
</svg>