<?xml version="1.0" encoding="UTF-8"?>
<svg width="20px" height="20px" viewBox="0 0 20 20" version="1.1" xmlns="http://www.w3.org/2000/svg" xmlns:xlink="http://www.w3.org/1999/xlink">
    <title>ic_config</title>
    <g id="ic_config" stroke="none" stroke-width="1" fill="none" fill-rule="evenodd">
        <g id="coÌpia-de-settings-copy-2" transform="translate(2.000000, 2.000000)" fill="#515253" fill-rule="nonzero" stroke="#515253" stroke-width="0.5">
            <path d="M15.366,6.3 L13.8504,6.3 C13.6068,6.3 13.4061,6.1659 13.3128,5.9409 C13.2195,5.7159 13.2669,5.4789 13.4388,5.3067 L14.5104,4.2354 C14.6679,4.0779 14.7546,3.8682 14.7546,3.6456 C14.7546,3.4227 14.6679,3.2133 14.5104,3.0555 L13.1445,1.6896 C12.8295,1.3746 12.2802,1.374 11.9646,1.6896 L10.8933,2.7609 C10.7211,2.9328 10.4835,2.9808 10.2591,2.8872 C10.0341,2.7939 9.9,2.5932 9.9,2.3496 L9.9,0.834 C9.9,0.3741 9.5259,0 9.066,0 L7.134,0 C6.6741,0 6.3,0.3741 6.3,0.834 L6.3,2.3496 C6.3,2.5932 6.1659,2.7939 5.9409,2.8872 C5.7165,2.9811 5.4789,2.9328 5.3067,2.7609 L4.2354,1.6896 C3.9198,1.374 3.3705,1.3746 3.0555,1.6896 L1.6896,3.0555 C1.5321,3.213 1.4454,3.4227 1.4454,3.6456 C1.4454,3.8682 1.5321,4.0776 1.6896,4.2354 L2.7612,5.3067 C2.9331,5.4789 2.9802,5.7159 2.8872,5.9409 C2.7942,6.1659 2.5932,6.3 2.3496,6.3 L0.834,6.3 C0.3741,6.3 0,6.6741 0,7.134 L0,9.0657 C0,9.5259 0.3741,9.9 0.834,9.9 L2.3496,9.9 C2.5932,9.9 2.7939,10.0341 2.8872,10.2591 C2.9805,10.4841 2.9331,10.7211 2.7612,10.8933 L1.6896,11.9646 C1.5321,12.1221 1.4454,12.3318 1.4454,12.5544 C1.4454,12.7773 1.5321,12.9867 1.6896,13.1445 L3.0555,14.5104 C3.3708,14.8257 3.9198,14.8263 4.2354,14.5104 L5.3067,13.4388 C5.4789,13.2669 5.7156,13.2195 5.9409,13.3128 C6.1659,13.4061 6.3,13.6068 6.3,13.8504 L6.3,15.366 C6.3,15.8259 6.6741,16.2 7.134,16.2 L9.0657,16.2 C9.5256,16.2 9.8997,15.8259 9.8997,15.366 L9.8997,13.8504 C9.8997,13.6068 10.0338,13.4061 10.2588,13.3128 C10.4841,13.2192 10.7208,13.2669 10.893,13.4388 L11.9643,14.5104 C12.2799,14.826 12.8292,14.8254 13.1442,14.5104 L14.5101,13.1445 C14.6676,12.987 14.7543,12.7773 14.7543,12.5544 C14.7543,12.3318 14.6676,12.1224 14.5101,11.9646 L13.4385,10.8933 C13.2666,10.7211 13.2195,10.4841 13.3125,10.2591 C13.4055,10.0341 13.6068,9.9 13.8504,9.9 L15.366,9.9 C15.8259,9.9 16.2,9.5259 16.2,9.066 L16.2,7.134 C16.2,6.6741 15.8259,6.3 15.366,6.3 Z M15.6,9.066 C15.6,9.195 15.495,9.3 15.366,9.3 L13.8504,9.3 C13.3632,9.3 12.9447,9.5796 12.7584,10.0296 C12.5718,10.4796 12.6699,10.9734 13.0146,11.3178 L14.0862,12.3891 C14.1777,12.4806 14.1777,12.6291 14.0862,12.7203 L12.7203,14.0862 C12.6291,14.1774 12.4806,14.178 12.3891,14.0862 L11.3178,13.0146 C10.9731,12.6699 10.4796,12.5724 10.0296,12.7584 C9.5796,12.9447 9.3,13.3632 9.3,13.8504 L9.3,15.366 C9.3,15.495 9.195,15.6 9.066,15.6 L7.134,15.6 C7.005,15.6 6.9,15.495 6.9,15.366 L6.9,13.8504 C6.9,13.3632 6.6204,12.9447 6.1704,12.7584 C6.0195,12.6957 5.8641,12.6651 5.7105,12.6651 C5.4063,12.6651 5.1114,12.7851 4.8822,13.0143 L3.8109,14.0859 C3.7191,14.1777 3.5706,14.1771 3.4797,14.0859 L2.1138,12.72 C2.0223,12.6285 2.0223,12.48 2.1138,12.3888 L3.1854,11.3175 C3.5298,10.9731 3.6282,10.4793 3.4416,10.0293 C3.2553,9.5796 2.8368,9.3 2.3496,9.3 L0.834,9.3 C0.705,9.3 0.6,9.195 0.6,9.066 L0.6,7.134 C0.6,7.005 0.705,6.9 0.834,6.9 L2.3496,6.9 C2.8368,6.9 3.2553,6.6204 3.4416,6.1704 C3.6282,5.7204 3.5301,5.2266 3.1854,4.8822 L2.1138,3.8109 C2.0223,3.7194 2.0223,3.5709 2.1138,3.4797 L3.4797,2.1138 C3.5709,2.0223 3.7194,2.0223 3.8109,2.1138 L4.8822,3.1851 C5.2263,3.5292 5.7198,3.6279 6.1704,3.4413 C6.6204,3.2553 6.9,2.8368 6.9,2.3496 L6.9,0.834 C6.9,0.705 7.005,0.6 7.134,0.6 L9.0657,0.6 C9.195,0.6 9.3,0.705 9.3,0.834 L9.3,2.3496 C9.3,2.8368 9.5796,3.2553 10.0296,3.4416 C10.4802,3.6282 10.9734,3.5298 11.3178,3.1854 L12.3891,2.1141 C12.4809,2.0226 12.6294,2.0226 12.7203,2.1141 L14.0862,3.48 C14.1777,3.5715 14.1777,3.72 14.0862,3.8112 L13.0146,4.8825 C12.6702,5.2269 12.5718,5.7207 12.7584,6.1707 C12.9447,6.6207 13.3632,6.9003 13.8504,6.9003 L15.366,6.9003 C15.495,6.9 15.6,7.005 15.6,7.134 L15.6,9.066 Z" id="Shape"></path>
            <path d="M8.1,5.4 C6.6111,5.4 5.4,6.6111 5.4,8.1 C5.4,9.5889 6.6111,10.8 8.1,10.8 C9.5889,10.8 10.8,9.5889 10.8,8.1 C10.8,6.6111 9.5889,5.4 8.1,5.4 Z M8.1,10.2 C6.9423,10.2 6,9.2577 6,8.1 C6,6.9423 6.9423,6 8.1,6 C9.2577,6 10.2,6.9423 10.2,8.1 C10.2,9.2577 9.2577,10.2 8.1,10.2 Z" id="Shape"></path>
        </g>
    </g>
</svg>