<?xml version="1.0" encoding="UTF-8"?>
<svg width="68px" height="68px" viewBox="0 0 68 68" version="1.1" xmlns="http://www.w3.org/2000/svg" xmlns:xlink="http://www.w3.org/1999/xlink">
    <title>ic_consumido</title>
    <g id="ic_consumido" stroke="none" stroke-width="1" fill="none" fill-rule="evenodd">
        <g id="9c56501e745f1886a3db7a9c3a537dd4" transform="translate(18.000000, 7.000000)" fill="#BD10E0" fill-rule="nonzero">
            <g id="Group" transform="translate(15.526625, 27.394998) scale(-1, 1) rotate(-180.000000) translate(-15.526625, -27.394998) translate(0.026625, 0.894998)">
                <path d="M12.838575,52.0769009 C8.8842301,51.7201259 4.76694023,50.3649135 1.84191782,48.4383285 C0.588412853,47.6129536 0.435585358,47.2865311 0.985657841,46.6651036 C1.24019283,46.3695661 1.34243283,46.3392136 1.92339031,46.3083286 C2.4633453,46.2779761 2.63694029,46.3083286 2.95271278,46.5021586 C4.80741023,47.6438386 5.46984021,48.010731 6.48904517,48.4489785 C13.1341125,51.2616435 21.6035247,50.6098635 27.1883845,46.8488161 C27.860932,46.4004511 28.0339945,46.3290961 28.5643645,46.2982111 C29.073967,46.2678586 29.236912,46.2982111 29.5324495,46.5021586 C29.970697,46.7976961 30.1235245,47.1848236 29.9605795,47.5517161 C29.7976345,47.9084911 28.2587095,48.896811 26.6281946,49.6918335 C22.6221972,51.6493034 17.6795323,52.5050309 12.838575,52.0769009 Z" id="Path"></path>
                <path d="M12.410445,47.7455461 C10.5456301,47.4601261 8.49710261,46.8280486 6.97841266,46.0639111 C5.38836771,45.2587711 4.56299273,44.5862237 4.56299273,44.0867387 C4.56299273,43.8013187 5.07259522,43.3428362 5.5007252,43.2405962 C6.09180019,43.0877687 6.57105017,43.2102437 7.28406765,43.6889612 C8.70051761,44.6368112 10.5962176,45.3705961 12.5632725,45.7273711 C13.9696049,45.9925561 16.7519174,45.9925561 18.1688998,45.7273711 C20.1258373,45.3705961 22.0316547,44.6368112 23.4481047,43.6889612 C24.1616546,43.2097112 24.6409046,43.0877687 25.2314471,43.2405962 C25.6595771,43.3423037 26.1691796,43.8013187 26.1691796,44.0867387 C26.1691796,44.4435137 25.8736421,44.7901711 25.1600921,45.2486536 C23.1525672,46.5330436 20.8287372,47.3685361 18.2093698,47.7455461 C16.8440399,47.9494936 13.75554,47.9494936 12.410445,47.7455461 Z" id="Path"></path>
                <path d="M13.684185,43.6181387 C12.0637875,43.4141912 9.78096008,42.5275787 8.9044651,41.7735587 C8.38474512,41.3150763 8.35439262,40.8768288 8.8229926,40.4588163 C9.30224259,40.0306863 9.94390507,39.9694488 10.5557476,40.2857538 C10.8209325,40.4284638 11.35077,40.7037663 11.7378975,40.9071813 C13.745955,41.9567387 16.9052774,41.9673887 18.9229198,40.9380663 C19.2898123,40.7442363 19.8404173,40.4694663 20.1253048,40.3166388 C20.5736697,40.0823388 20.7366147,40.0514538 21.1242747,40.1126913 C21.7558197,40.2042813 22.2249522,40.6222938 22.2249522,41.0807763 C22.2249522,41.4987887 21.7968222,41.9061512 20.7776172,42.4466387 C18.7802098,43.4956637 16.1608424,43.9237937 13.684185,43.6181387 Z" id="Path"></path>
                <path d="M6.69299267,36.5550589 C5.83673269,36.2494039 5.18442021,35.4341464 4.97088772,34.394174 C4.91976772,34.1188715 4.43093274,30.4297116 3.90056275,26.2000642 C3.36007527,21.9709493 2.4633453,14.9078695 1.90262281,10.5051597 C1.28066283,5.62319983 0.913770343,2.36216993 0.944655342,2.14810494 C1.10760034,1.25137496 1.83126782,0.425467487 2.71788029,0.129929996 C3.21736527,-0.0431324987 27.5142745,-0.0431324987 28.0137595,0.129929996 C28.829017,0.405232488 29.522332,1.14913497 29.7465145,1.99474494 C29.827987,2.29028243 29.827987,2.64705742 29.7465145,3.2684849 C29.685277,3.74773489 28.7581945,10.9631097 27.697987,19.3206969 C26.6377796,27.6782842 25.7106971,34.6694765 25.6494596,34.8633064 C25.4455121,35.4644989 24.9662621,36.0656914 24.4571921,36.3612289 L23.9784746,36.6466489 L15.5191799,36.6668839 C8.8027576,36.6876514 6.98853016,36.6674164 6.69299267,36.5550589 Z M24.6403721,32.9271365 C24.6403721,32.865899 25.2617996,27.0057367 26.0163521,19.9123044 C26.7703721,12.8087546 27.392332,6.95870979 27.392332,6.91770729 C27.392332,6.87723729 21.9704172,6.83623479 15.3557024,6.83623479 L3.31960527,6.83623479 L3.38084277,7.37618978 C3.50331776,8.40551225 6.09180019,32.8248965 6.09180019,32.926604 C6.09180019,32.997959 9.1084126,33.0283184 15.3663524,33.0283184 C21.7052322,33.028844 24.6403721,32.9984915 24.6403721,32.9271365 Z M16.4462624,5.21583734 C17.3025223,4.82870985 17.5778248,3.91121238 17.0272199,3.2588999 C15.9675449,2.00539494 13.42965,2.54534992 13.42965,4.02303738 C13.42965,4.56299236 13.7049525,4.95065235 14.2859099,5.21530484 C14.8460999,5.47037233 15.8855399,5.47037233 16.4462624,5.21583734 Z" id="Shape"></path>
                <path d="M13.66395,27.3827467 C11.81937,27.0259717 10.3518001,26.2921867 9.20000259,25.1302717 C8.25215262,24.1824218 7.79367014,23.3671643 7.54872014,22.1541293 C7.08012016,19.8611844 8.47633511,17.3744095 10.9732275,16.079902 C15.9057749,13.5015371 22.5204897,15.9473095 23.2239222,20.5949694 C23.4683397,22.1850143 22.8873822,23.7644093 21.5832897,25.0898017 C20.5129648,26.1702442 19.2291073,26.8731442 17.5980598,27.2709217 C16.6805624,27.4945717 14.5814474,27.5558092 13.66395,27.3827467 Z M16.0181324,25.9354117 C16.1406074,25.8944092 16.1810774,25.7314642 16.1810774,25.3954567 L16.1810774,24.9162067 L16.8131549,24.7223768 C17.5671748,24.4981943 18.1582498,23.9683568 18.3217273,23.3463968 C18.3829648,23.1222143 18.4031998,22.8879143 18.3728473,22.8367943 C18.3419623,22.7755568 17.9958373,22.7350868 17.6188273,22.7350868 L16.9255124,22.7350868 L16.7726849,23.1328643 C16.5485024,23.6829368 16.1714924,23.9071193 15.4579424,23.9071193 C14.7955124,23.9071193 14.3673824,23.6627018 14.2044374,23.2036868 C13.9600199,22.5412568 14.4696224,22.1030093 15.9265424,21.7153493 C16.9760999,21.4299294 17.8935973,20.9410944 18.1992523,20.4921969 C18.3621973,20.2477794 18.4234348,20.0129469 18.4234348,19.5853494 C18.4234348,18.6172644 17.9649523,18.107662 16.7721524,17.771122 L16.1911949,17.608177 L16.1603099,17.139577 L16.1299574,16.6704445 L15.5186474,16.6704445 L14.9073374,16.6704445 L14.8769849,17.159812 C14.8460999,17.587942 14.8157474,17.639062 14.6016824,17.639062 C14.2145549,17.639062 13.409415,17.9345995 13.0425225,18.2200194 C12.5941575,18.5565594 12.3087375,19.0352769 12.3087375,19.4532894 L12.3087375,19.7898294 L13.032405,19.7589444 L13.7560725,19.7285919 L13.8785475,19.3718169 C14.0516099,18.8318619 14.7039224,18.5256744 15.5601824,18.5869119 C16.2838499,18.6380319 16.6810949,18.8622144 16.8339224,19.3105794 C17.0682224,19.9527744 16.5282674,20.4416094 15.2236424,20.7579144 C14.2757924,20.9922144 13.1852325,21.5529368 12.8998125,21.9400643 C12.5941575,22.3783118 12.53292,23.1935693 12.7773375,23.7031718 C12.9914025,24.1616543 13.643715,24.5999018 14.3572649,24.7734968 L14.8567499,24.8959717 L14.8567499,25.3241017 C14.8567499,25.5584017 14.9078699,25.8033517 14.9792249,25.8741742 C15.1112849,26.0067667 15.7428299,26.0371192 16.0181324,25.9354117 Z" id="Shape"></path>
            </g>
        </g>
    </g>
</svg>