<?xml version="1.0" encoding="UTF-8"?>
<svg width="20px" height="20px" viewBox="0 0 20 20" version="1.1" xmlns="http://www.w3.org/2000/svg" xmlns:xlink="http://www.w3.org/1999/xlink">
    <title>ic_cadastros</title>
    <g id="ic_cadastros" stroke="none" stroke-width="1" fill="none" fill-rule="evenodd">
        <g id="add-copy-2" transform="translate(2.000000, 3.000000)" fill="#515253" fill-rule="nonzero">
            <path d="M1.52097188,3.0419081 L5.64526194e-13,3.0419081 L5.64526194e-13,13.6886399 C5.64526194e-13,14.5289585 0.680617714,15.2096118 1.52097188,15.2096118 L12.1677037,15.2096118 L12.1677037,13.6886399 L1.52097188,13.6886399 L1.52097188,3.0419081 Z" id="Path"></path>
            <path d="M13.6886399,-7.33635362e-14 L4.56287998,-7.33635362e-14 C3.72256147,-7.33635362e-14 3.0419081,0.680617714 3.0419081,1.52097188 L3.0419081,10.6467318 C3.0419081,11.4870503 3.72252582,12.1677037 4.56287998,12.1677037 L13.6886399,12.1677037 C14.5289585,12.1677037 15.2096118,11.487086 15.2096118,10.6467318 L15.2096118,1.52097188 C15.2096118,0.680617714 14.5289585,-7.33635362e-14 13.6886399,-7.33635362e-14 Z M12.9281718,6.84431997 L9.88626372,6.84431997 L9.88626372,9.88622807 L8.36529184,9.88622807 L8.36529184,6.84431997 L5.32338374,6.84431997 L5.32338374,5.32334809 L8.36529184,5.32334809 L8.36529184,2.28143999 L9.88626372,2.28143999 L9.88626372,5.32334809 L12.9281718,5.32334809 L12.9281718,6.84431997 Z" id="Shape"></path>
        </g>
    </g>
</svg>