<?xml version="1.0" encoding="UTF-8"?>
<svg width="50px" height="50px" viewBox="0 0 50 50" version="1.1" xmlns="http://www.w3.org/2000/svg" xmlns:xlink="http://www.w3.org/1999/xlink">
    <title>ic_dinheiro-disponivel</title>
    <g id="ic_dinheiro-disponivel" stroke="none" stroke-width="1" fill="none" fill-rule="evenodd">
        <g id="money" transform="translate(1.000000, 1.000000)" fill="#6DD400" fill-rule="nonzero">
            <path d="M40.6872,15.3016996 C40.6867,15.3016996 40.6861,15.3016996 40.6856,15.3016996 L0.6856,15.3016996 C0.3074,15.3013 -3.91454574e-07,15.6075 -3.91454574e-07,15.9857 C-3.91454574e-07,15.9862 -3.91454574e-07,15.9868 -3.91454574e-07,15.9873 L-3.91454574e-07,35.1873 C-3.91454574e-07,35.5655 0.3058,35.8725 0.684,35.8729 C0.6845,35.8729 0.6851,35.8729 0.6856,35.8729 L27.8856,35.8729 C28.2642,35.8729 28.5712,35.5659 28.5712,35.1873 C28.5712,34.8087 28.2642,34.5017 27.8856,34.5017 L1.3712,34.5017 L1.3712,16.6729 L39.9999996,16.6729 L39.9999996,18.3873 C39.9996,18.7655 40.3058,19.0725 40.684,19.0729 C40.6845,19.0729 40.6851,19.0729 40.6856,19.0729 C41.0638,19.0733 41.3712004,18.7671 41.3712004,18.3889 C41.3712004,18.3884 41.3712004,18.3878 41.3712004,18.3873 L41.3712004,15.9873 C41.3712004,15.6091 41.0654,15.3022 40.6872,15.3016996 Z" id="Path"></path>
            <path d="M36.036,12.1185 L4.036,4.9185 C3.8584,4.8788 3.6723,4.911 3.5184,5.0081 C3.3647,5.106 3.256,5.2607 3.216,5.4385 L1.616,12.6385 C1.5338,13.0083 1.767,13.3747 2.1368,13.4569 C2.5066,13.5391 2.873,13.3059 2.9552,12.9361 L4.4056,6.4073 L35.7352,13.4561 C35.7848,13.4676 35.8355,13.4733 35.8864,13.4729 C36.265,13.4722 36.5714,13.1647 36.5708009,12.7861 C36.5702,12.466 36.3482,12.189 36.036,12.1185 Z" id="Path"></path>
            <path d="M32.1504,8.1513 L12.9504,0.1513 C12.6167,0.0122 12.2322,0.1551 12.0704,0.4785 L10.4704,3.6785 C10.2897,4.0127 10.4141,4.4302 10.7484,4.6109 C11.0826,4.7916 11.5001,4.6672 11.6808,4.3329 C11.6879,4.3198 11.6946,4.3064 11.7008,4.2928 L11.7008,4.2944 L13.0136,1.6672 L31.6208,9.42 C31.9712,9.5662 32.3738,9.4008 32.52,9.0504 C32.6662,8.7002 32.5008,8.2976 32.1504,8.1513 Z" id="Path"></path>
            <path d="M32.6352,18.5017 L26.2856,18.5017 C25.907,18.5017 25.6,18.8087 25.6,19.1873 C25.6,19.5659 25.907,19.8729 26.2856,19.8729 L32.6352,19.8729 C33.0138,19.8729 33.3208,19.5659 33.3208,19.1873 C33.3208,18.8087 33.0138,18.5017 32.6352,18.5017 Z" id="Path"></path>
            <path d="M19.8856,18.5473 C15.9975,18.5473 12.8456,21.6992 12.8456,25.5873 C12.8496,29.4737 15.9992,32.6233 19.8856,32.6273 C23.7737,32.6273 26.9256,29.4754 26.9256,25.5873 C26.9256,21.6992 23.7737,18.5473 19.8856,18.5473 Z M19.8856,31.3473 C16.7044,31.3473 14.1256,28.7685 14.1256,25.5873 C14.1291,22.4076 16.7059,19.8308 19.8856,19.8273 C23.0668,19.8273 25.6456,22.4061 25.6456,25.5873 C25.6456,28.7685 23.0668,31.3473 19.8856,31.3473 Z" id="Shape"></path>
            <path d="M39.0856,20.7873 C34.8456,20.7873 30.2856,21.7889 30.2856,23.9873 L30.2856,43.1873 C30.2856,45.3857 34.8456,46.3873 39.0856,46.3873 C43.3256,46.3873 47.8856,45.3857 47.8856,43.1873 L47.8856,23.9873 C47.8856,21.7889 43.3256,20.7873 39.0856,20.7873 Z M46.2856,43.1753 C46.1648,43.6193 43.7656,44.7873 39.0856,44.7873 C34.4056,44.7873 32.0064,43.6193 31.8856,43.1873 L31.8856,41.9297 C33.588,42.7873 36.4,43.1873 39.0856,43.1873 C41.7712,43.1873 44.584,42.7833 46.2856,41.9289 L46.2856,43.1753 Z M46.2856,39.9753 C46.1648,40.4193 43.7656,41.5873 39.0856,41.5873 C34.4056,41.5873 32.0064,40.4193 31.8856,39.9873 L31.8856,38.7297 C33.588,39.5873 36.4,39.9873 39.0856,39.9873 C41.7712,39.9873 44.584,39.5833 46.2856,38.7289 L46.2856,39.9753 Z M46.2856,36.7753 C46.1648,37.2193 43.7656,38.3873 39.0856,38.3873 C34.4056,38.3873 32.0064,37.2193 31.8856,36.7873 L31.8856,35.5297 C33.588,36.3873 36.4,36.7873 39.0856,36.7873 C41.7712,36.7873 44.584,36.3833 46.2856,35.5289 L46.2856,36.7753 Z M46.2856,33.5753 C46.1648,34.0193 43.7656,35.1873 39.0856,35.1873 C34.4056,35.1873 32.0064,34.0193 31.8856,33.5873 L31.8856,32.3297 C33.588,33.1873 36.4,33.5873 39.0856,33.5873 C41.7712,33.5873 44.584,33.1833 46.2856,32.3289 L46.2856,33.5753 Z M46.2856,30.3753 C46.1648,30.8193 43.7656,31.9873 39.0856,31.9873 C34.4056,31.9873 32.0064,30.8193 31.8856,30.3873 L31.8856,29.1297 C33.588,29.9833 36.4,30.3873 39.0856,30.3873 C41.7712,30.3873 44.584,29.9833 46.2856,29.1289 L46.2856,30.3753 Z M46.2856,27.1753 C46.1648,27.6193 43.7656,28.7873 39.0856,28.7873 C34.4056,28.7873 32.0064,27.6193 31.8856,27.1873 L31.8856,25.9297 C33.588,26.7833 36.4,27.1873 39.0856,27.1873 C41.7712,27.1873 44.584,26.7833 46.2856,25.9289 L46.2856,27.1753 Z M39.0856,25.5873 C34.4128,25.5873 32.0144,24.4225 31.8856,24.0017 L31.8856,23.9969 C32.0144,23.5513 34.4128,22.3873 39.0856,22.3873 C43.7256,22.3873 46.1256,23.5345 46.2856,23.9873 C46.1256,24.4401 43.7256,25.5873 39.0856,25.5873 Z" id="Shape"></path>
            <path d="M13.4856,31.3009 L7.4384,31.3009 L4.5712,28.1649 L4.5712,22.9649 L7.7376,19.8729 L13.4856,19.8729 C13.8642,19.8729 14.1712,19.5659 14.1712,19.1873 C14.1712,18.8087 13.8642,18.5016983 13.4856,18.5016983 L7.4592,18.5016983 C7.28,18.5013 7.1077,18.5711 6.9792,18.6961 L3.4056,22.1817 C3.2721,22.3377 3.1989,22.5364 3.19919908,22.7417 L3.19919908,28.4313 C3.19919908,28.6024 3.2631,28.7673 3.3784,28.8937 L6.6288,32.4489 C6.7587,32.5911 6.9425,32.6721001 7.1352,32.6721001 L13.4856,32.6721001 C13.8642,32.6721001 14.1712,32.3651 14.1712,31.9865 C14.1712,31.6079 13.8643,31.3009 13.4856,31.3009 Z" id="Path"></path>
            <path d="M20.2856,24.7873 L19.4856,24.7873 C19.2368,24.7873 19.0856,24.6481 19.0856,24.5873 C19.0856,24.5265 19.2368,24.3873 19.4856,24.3873 L21.4856,24.3873 C21.9274,24.3873 22.2856,24.0291 22.2856,23.5873 C22.2856,23.1455 21.9274,22.7873 21.4856,22.7873 L20.6856,22.7873 C20.6856,22.3455 20.3274,21.9873 19.8856,21.9873 C19.4438,21.9873 19.0856,22.3455 19.0856,22.7873 L19.0856,22.8233 C18.1983,22.9486 17.5261,23.6881 17.4856,24.5833 C17.5429,25.6322 18.4363,26.4381 19.4856,26.3873 L20.2856,26.3873 C20.5344,26.3873 20.6856,26.5265 20.6856,26.5873 C20.6856,26.6481 20.5344,26.7873 20.2856,26.7873 L18.2856,26.7873 C17.8438,26.7873 17.4856,27.1455 17.4856,27.5873 C17.4856,28.0291 17.8438,28.3873 18.2856,28.3873 L19.0856,28.3873 C19.0856,28.8291 19.4438,29.1873 19.8856,29.1873 C20.3274,29.1873 20.6856,28.8291 20.6856,28.3873 L20.6856,28.3513 C21.5729,28.226 22.2451,27.4865 22.2856,26.5913 C22.2283,25.5424 21.3349,24.7365 20.2856,24.7873 Z" id="Path"></path>
        </g>
    </g>
</svg>