<?xml version="1.0" encoding="UTF-8"?>
<svg width="68px" height="68px" viewBox="0 0 68 68" version="1.1" xmlns="http://www.w3.org/2000/svg" xmlns:xlink="http://www.w3.org/1999/xlink">
    <title>ic_devolvido</title>
    <g id="ic_devolvido" stroke="none" stroke-width="1" fill="none" fill-rule="evenodd">
        <g id="Group-2" transform="translate(6.000000, 6.000000)" fill="#D0021B" fill-rule="nonzero">
            <path d="M53.5111148,6.33414677 L53.5111148,8.14390299 L47.5693199,8.14390299 L37.977297,0.204502453 C37.8180859,0.0723902488 37.6177303,0 37.4111137,0 L10.5777785,0 C8.60463392,0 7.00000048,1.62335133 7.00000048,3.61951244 C7.00000048,5.61567355 8.60463392,7.23902488 10.5777785,7.23902488 L10.6681174,7.23902488 C11.0840341,9.3012421 12.8899175,10.8585373 15.050001,10.8585373 L19.5222236,10.8585373 L19.5222236,17.1926841 C19.5222236,18.2749183 20.014168,19.2711891 20.7985959,19.9462282 C18.9148957,21.7605088 17.7333345,24.3140748 17.7333345,27.1463433 C17.7333345,32.6344291 22.1474182,37.1000025 27.5722241,37.1000025 C32.99703,37.1000025 37.4111137,32.6344291 37.4111137,27.1463433 C37.4111137,24.7420822 36.5640747,22.5341796 35.1562191,20.8121965 L53.5111148,20.8121965 L53.5111148,22.6219528 L55.3000038,22.6219528 L55.3000038,6.33414677 L53.5111148,6.33414677 Z M20.046368,9.0487811 L15.050001,9.0487811 C13.8854343,9.0487811 12.9015453,8.28958837 12.5312453,7.23902488 L21.835257,7.23902488 L20.046368,9.0487811 Z M19.5222236,27.1463433 C19.5222236,22.9612821 22.6590404,19.5073623 26.6777796,19.0558281 L26.6777796,20.9406892 C25.139335,21.3451697 23.9944461,22.7495406 23.9944461,24.431709 C23.9944461,26.4278701 25.5990795,28.0512214 27.5722241,28.0512214 C28.5587964,28.0512214 29.3611131,28.8628971 29.3611131,29.8609776 C29.3611131,30.8590582 28.5587964,31.6707339 27.5722241,31.6707339 C26.5856518,31.6707339 25.7833351,30.8590582 25.7833351,29.8609776 L23.9944461,29.8609776 C23.9944461,31.5431461 25.139335,32.9475169 26.6777796,33.3519974 L26.6777796,35.2368585 C22.6590404,34.7853243 19.5222236,31.3314046 19.5222236,27.1463433 L19.5222236,27.1463433 Z M28.4711408,17.2388329 C28.1750797,17.2116865 27.8754408,17.1926841 27.5722241,17.1926841 C27.2690074,17.1926841 26.9693685,17.2116865 26.6733074,17.2388329 C26.6733074,17.22345 26.6777796,17.208067 26.6777796,17.1926841 L26.6777796,12.0909813 L30.6741576,7.23902488 L34.3574801,7.23902488 L36.5166692,9.42340064 L36.5166692,13.5731717 L32.0444466,13.5731717 C30.071302,13.5731717 28.4666686,15.196523 28.4666686,17.1926841 C28.4666686,17.208067 28.4711408,17.22345 28.4711408,17.2388329 L28.4711408,17.2388329 Z M28.4666686,35.2368585 L28.4666686,33.3519974 C30.0051132,32.9475169 31.1500021,31.5431461 31.1500021,29.8609776 C31.1500021,27.8648165 29.5453687,26.2414652 27.5722241,26.2414652 C26.5856518,26.2414652 25.7833351,25.4297895 25.7833351,24.431709 C25.7833351,23.4336284 26.5856518,22.6219528 27.5722241,22.6219528 C28.5587964,22.6219528 29.3611131,23.4336284 29.3611131,24.431709 L31.1500021,24.431709 C31.1500021,22.7495406 30.0051132,21.3451697 28.4666686,20.9406892 L28.4666686,19.0558281 C32.4854078,19.5073623 35.6222246,22.9612821 35.6222246,27.1463433 C35.6222246,31.3314046 32.4854078,34.7853243 28.4666686,35.2368585 L28.4666686,35.2368585 Z M33.2116967,19.0024403 C32.3342466,18.3789793 31.3539355,17.898489 30.2993854,17.5899256 C30.2707632,17.460528 30.2555576,17.3284158 30.2555576,17.1926841 C30.2555576,16.1946035 31.0578743,15.3829279 32.0444466,15.3829279 L37.4111137,15.3829279 C37.904847,15.3829279 38.3055582,14.9784474 38.3055582,14.4780498 L38.3055582,9.0487811 C38.3055582,8.80808353 38.2116415,8.57824449 38.0434859,8.40903228 L35.3601524,5.69439795 C35.1928913,5.52428086 34.9648079,5.42926866 34.7277801,5.42926866 L30.2555576,5.42926866 C29.9899076,5.42926866 29.7385687,5.54871257 29.5686242,5.7541199 L25.0964017,11.1833886 C24.962235,11.3462666 24.8888906,11.551674 24.8888906,11.7634154 L24.8888906,17.1926841 C24.8888906,17.3284158 24.8710017,17.460528 24.8423795,17.5908305 C23.923785,17.8595793 23.0615405,18.2613451 22.2744293,18.7726013 C21.7001959,18.463133 21.3111126,17.8677232 21.3111126,17.1926841 L21.3111126,10.3282788 L24.6268183,6.9738956 C24.8826295,6.71510046 24.9595517,6.32600287 24.8209128,5.98757846 C24.6822739,5.64915404 24.3558017,5.42926866 23.9944461,5.42926866 L10.5777785,5.42926866 C9.59120621,5.42926866 8.78888949,4.617593 8.78888949,3.61951244 C8.78888949,2.62143189 9.59120621,1.80975622 10.5777785,1.80975622 L37.091797,1.80975622 L46.6838198,9.74915676 C46.843031,9.88126897 47.0433865,9.95365921 47.2500032,9.95365921 L53.5111148,9.95365921 L53.5111148,19.0024403 L33.2116967,19.0024403 Z" id="Shape"></path>
            <path d="M45.9000031,43.3416696 L25.1064017,43.3416696 C25.0047017,42.9411238 24.8220017,42.5640862 24.5502017,42.2458195 L19.5831013,36.4247941 C19.4121013,36.2240691 19.1628013,36.1083358 18.9000013,36.1083358 L9,36.1083358 L9,35.2041691 C9,34.7041649 8.59680059,34.3000023 8.10000055,34.3000023 L0.900000061,34.3000023 C0.403200027,34.3000023 0,34.7041649 0,35.2041691 L0,53.2875036 C0,53.7875078 0.403200027,54.1916704 0.900000061,54.1916704 L8.10000055,54.1916704 C8.59680059,54.1916704 9,53.7875078 9,53.2875036 L9,52.3833369 L15.027301,52.3833369 L20.2005014,55.8481038 C20.3499014,55.9475621 20.5236014,56.0000038 20.7000014,56.0000038 C20.7639014,56.0000038 20.8287014,55.9927705 20.8926014,55.979208 L49.6926034,49.6500409 C50.1057034,49.5596242 50.4000034,49.1916284 50.4000034,48.76667 L50.4000034,47.8625033 C50.4000034,45.3697156 48.3813033,43.3416696 45.9000031,43.3416696 L45.9000031,43.3416696 Z M7.20000049,52.3833369 L1.80000012,52.3833369 L1.80000012,36.1083358 L7.20000049,36.1083358 L7.20000049,52.3833369 Z M48.6000033,48.0388158 L20.8809014,54.130187 L15.7995011,50.7259993 C15.6519011,50.6283493 15.4773011,50.5750034 15.300001,50.5750034 L9.00000061,50.5750034 L9.00000061,37.9166692 L18.4860013,37.9166692 L23.1831016,43.4221405 C23.3235016,43.5866988 23.4000016,43.7955613 23.4000016,44.010753 L23.4000016,45.1500031 C23.4000016,45.6491031 22.9959016,46.0541698 22.5000006,46.0541698 L21.4461015,46.0541698 C21.2058014,46.0541698 20.9790014,45.9601365 20.8089014,45.789249 L16.8363011,41.798257 L15.5637011,43.0767488 L19.5363013,47.0677407 C20.0457014,47.5804032 20.7243014,47.8625033 21.4461015,47.8625033 L22.5000006,47.8625033 C23.9886016,47.8625033 25.2000017,46.6454948 25.2000017,45.1500031 L45.9000031,45.1500031 C47.3886032,45.1500031 48.6000033,46.3670115 48.6000033,47.8625033 L48.6000033,48.0388158 Z" id="Shape"></path>
            <path d="M50.4775634,36.5873225 C49.0379433,36.1068425 47.8922533,34.9611524 47.4126832,33.5224423 C47.2889232,33.1502523 46.9422132,32.9000022 46.5500032,32.9000022 C46.1577931,32.9000022 45.8110831,33.1502523 45.6864131,33.5224423 C45.2068431,34.9611524 44.061153,36.1068425 42.6215329,36.5873225 C42.2502529,36.7110825 42.0000029,37.0577925 42.0000029,37.4500026 C42.0000029,37.8422126 42.2502529,38.1889226 42.6224429,38.3126826 C44.062063,38.7931626 45.2077531,39.9388527 45.6873231,41.3775628 C45.8110831,41.7497528 46.1577931,42.0000029 46.5500032,42.0000029 C46.9422132,42.0000029 47.2889232,41.7497528 47.4135932,41.3775628 C47.8931633,39.9388527 49.0388533,38.7931626 50.4784734,38.3126826 C50.8497535,38.1889226 51.1000035,37.8422126 51.1000035,37.4500026 C51.1000035,37.0577925 50.8497535,36.7110825 50.4775634,36.5873225 Z M46.5500032,39.0916427 C46.1022831,38.4546426 45.5453631,37.8977226 44.9083631,37.4500026 C45.5462731,37.0022825 46.1022831,36.4453625 46.5500032,35.8083624 C46.9977232,36.4453625 47.5546432,37.0022825 48.1916433,37.4500026 C47.5546432,37.8977226 46.9977232,38.4546426 46.5500032,39.0916427 Z" id="Shape"></path>
            <path d="M4.82244033,18.7126813 C6.26206043,19.1931613 7.4077505,20.3388514 7.88732054,21.7775615 C8.01108055,22.1497515 8.35779057,22.4000015 8.7500006,22.4000015 C9.14221062,22.4000015 9.48892065,22.1497515 9.61359065,21.7775615 C10.0931607,20.3388514 11.2388508,19.1931613 12.6784709,18.7126813 C13.0497509,18.5889213 13.3000009,18.2422112 13.3000009,17.8500012 C13.3000009,17.4577912 13.0497509,17.1110812 12.6775609,16.9873212 C11.2379408,16.5068411 10.0922507,15.361151 9.61268065,13.9224409 C9.48892065,13.5502509 9.14221062,13.3000009 8.7500006,13.3000009 C8.35779057,13.3000009 8.01108055,13.5502509 7.88641054,13.9224409 C7.4068405,15.361151 6.26115043,16.5068411 4.82153033,16.9873212 C4.4502503,17.1110812 4.20000029,17.4577912 4.20000029,17.8500012 C4.20000029,18.2422112 4.4502503,18.5889213 4.82244033,18.7126813 Z M8.7500006,16.2083611 C9.19772063,16.8453611 9.75464066,17.4022812 10.3916407,17.8500012 C9.75373066,18.2977212 9.19772063,18.8546413 8.7500006,19.4916413 C8.30228057,18.8546413 7.74536053,18.2977212 7.10836048,17.8500012 C7.74536053,17.4022812 8.30228057,16.8453611 8.7500006,16.2083611 Z" id="Shape"></path>
        </g>
    </g>
</svg>