<?xml version="1.0" encoding="UTF-8"?>
<svg width="20px" height="20px" viewBox="0 0 20 20" version="1.1" xmlns="http://www.w3.org/2000/svg" xmlns:xlink="http://www.w3.org/1999/xlink">
    <title>ic_estoques</title>
    <g id="ic_estoques" stroke="none" stroke-width="1" fill="none" fill-rule="evenodd">
        <g id="stock-(1)-copy-2" transform="translate(3.000000, 3.000000)" fill="#515253" fill-rule="nonzero">
            <path d="M3.57322325,0 L3.57322325,6.22680704 L10.0965601,6.22680704 L10.0965601,0 L3.57322325,0 Z M8.61399083,2.66863539 L5.05581919,2.66863539 L5.05581919,1.77909914 L8.61399083,1.77909914 L8.61399083,2.66863539 L8.61399083,2.66863539 Z" id="Shape"></path>
            <path d="M0.0150516002,7.11634329 L0.0150516002,13.6396802 L6.24185864,13.6396802 L6.24185864,7.11634329 L0.0150516002,7.11634329 Z M4.75928934,9.78497869 L1.4976209,9.78497869 L1.4976209,8.89544243 L4.75928934,8.89544243 L4.75928934,9.78497869 Z" id="Shape"></path>
            <path d="M7.13142153,7.11634329 L7.13142153,13.6396802 L13.3582286,13.6396802 L13.3582286,7.11634329 L7.13142153,7.11634329 Z M11.8756593,9.78497869 L8.61399083,9.78497869 L8.61399083,8.89544243 L11.8756593,8.89544243 L11.8756593,9.78497869 Z" id="Shape"></path>
        </g>
    </g>
</svg>