<?xml version="1.0" encoding="UTF-8"?>
<svg width="20px" height="20px" viewBox="0 0 20 20" version="1.1" xmlns="http://www.w3.org/2000/svg" xmlns:xlink="http://www.w3.org/1999/xlink">
    <title>ic_gerencial</title>
    <g id="ic_gerencial" stroke="none" stroke-width="1" fill="none" fill-rule="evenodd">
        <g id="user-copy-2" transform="translate(2.000000, 2.000000)" fill="#515253" fill-rule="nonzero">
            <path d="M13.1105851,2.24941394 C11.6600384,0.798867132 9.7313666,0 7.67999954,0 C5.6285153,0 3.69996071,0.798867132 2.24941394,2.24941394 C0.798867132,3.69996071 -8.52651232e-16,5.6285153 -8.52651232e-16,7.67999954 C-8.52651232e-16,9.7313666 0.798867132,11.6600384 2.24941394,13.1105851 C3.69996071,14.561132 5.6285153,15.3599991 7.67999954,15.3599991 C9.7313666,15.3599991 11.6600384,14.561132 13.1105851,13.1105851 C14.561132,11.6600384 15.3599991,9.7313666 15.3599991,7.67999954 C15.3599991,5.6285153 14.561132,3.69996071 13.1105851,2.24941394 Z M3.85019509,13.2716008 C4.171406,11.4221477 5.77406216,10.0579682 7.67999954,10.0579682 C9.58605411,10.0579682 11.1885931,11.4221477 11.509804,13.2716008 C10.4193744,14.0207804 9.1000776,14.4599991 7.67999954,14.4599991 C6.25992149,14.4599991 4.94062471,14.0207804 3.85019509,13.2716008 Z M5.23804655,6.71601524 C5.23804655,5.36941375 6.33351526,4.27406225 7.67999954,4.27406225 C9.02648382,4.27406225 10.1219525,5.36953093 10.1219525,6.71601524 C10.1219525,8.06249952 9.02648382,9.1579682 7.67999954,9.1579682 C6.33351526,9.1579682 5.23804655,8.06249952 5.23804655,6.71601524 Z M12.2893352,12.647343 C12.0471086,11.7863665 11.566054,11.0051947 10.8917572,10.3949994 C10.4780853,10.0205853 10.007226,9.72515567 9.500976,9.5169135 C10.4159759,8.92007761 11.0220697,7.8875386 11.0220697,6.71601524 C11.0220697,4.87324189 9.52277286,3.3740623 7.67999954,3.3740623 C5.83722622,3.3740623 4.3380466,4.87324189 4.3380466,6.71601524 C4.3380466,7.8875386 4.94414035,8.92007761 5.85902308,9.5169135 C5.35289032,9.72515567 4.88191378,10.0204682 4.46824191,10.3948822 C3.79406227,11.0050775 3.31289044,11.7862493 3.07066389,12.647343 C1.73648426,11.4082025 0.899999946,9.64007757 0.899999946,7.67999954 C0.899999946,3.94148413 3.94148413,0.899999946 7.67999954,0.899999946 C11.418515,0.899999946 14.4599991,3.94148413 14.4599991,7.67999954 C14.4599991,9.64019475 13.6235148,11.4083196 12.2893352,12.647343 Z" id="Shape"></path>
        </g>
    </g>
</svg>