<?xml version="1.0" encoding="UTF-8"?>
<svg width="50px" height="50px" viewBox="0 0 50 50" version="1.1" xmlns="http://www.w3.org/2000/svg" xmlns:xlink="http://www.w3.org/1999/xlink">
    <title>ic_itens-cancelados</title>
    <g id="ic_itens-cancelados" stroke="none" stroke-width="1" fill="none" fill-rule="evenodd">
        <g id="cancel---coÌpia" transform="translate(16.000000, 16.000000)" fill="#E2574C" fill-rule="nonzero">
            <path d="M12.989583,9.06417548 L16.8922195,5.1614162 C17.4317651,4.62046412 17.4317651,3.74820977 16.8922195,3.21003656 L14.9409012,1.25726749 C14.4013556,0.719094275 13.5291287,0.717704844 12.989583,1.25726749 L9.08555711,5.1614162 L5.18431001,1.26004635 C4.64337496,0.719094275 3.76975866,0.719094275 3.23021299,1.25726749 L1.27889475,3.21003656 C0.739349081,3.74820977 0.740738469,4.62324299 1.28167353,5.16280563 L5.18292063,9.06417548 L1.28846609,12.9585982 C0.74892042,13.4981608 0.74892042,14.3704152 1.28846609,14.9099778 L3.23978433,16.8627469 C3.77933,17.4009201 4.65155691,17.4023095 5.19110258,16.8627469 L9.08540274,12.9683242 L13.0073363,16.8917706 C13.5482713,17.4327226 14.4218876,17.4327226 14.9614333,16.89316 L16.9127515,14.9417804 C17.4522972,14.4022177 17.4509078,13.5285739 16.9113622,12.9876219 L12.989583,9.06417548 Z" id="Shape"></path>
        </g>
        <path d="M25.1972,3.0028 C13.067,3.0028 3.1984,12.8716 3.1984,25.0016 C3.1984,37.1316 13.0672,47.0004 25.1972,47.0004 C37.3274,47.0004 47.196,37.1316 47.196,25.0016 C47.196,12.8716 37.3274,3.0028 25.1972,3.0028 Z M25.1984,44.0028 C14.7218513,44.0028 6.1984,35.4793487 6.1984,25.0028 C6.1984,14.5262513 14.7218513,6.0028 25.1984,6.0028 C35.6749487,6.0028 44.1984,14.5262513 44.1984,25.0028 C44.1984,35.4793487 35.6749487,44.0028 25.1984,44.0028 Z" id="Shape" fill="#E2574C" fill-rule="nonzero"></path>
    </g>
</svg>