<?xml version="1.0" encoding="UTF-8"?>
<svg width="50px" height="50px" viewBox="0 0 50 50" version="1.1" xmlns="http://www.w3.org/2000/svg" xmlns:xlink="http://www.w3.org/1999/xlink">
    <title>ic_itens-vendidos</title>
    <g id="ic_itens-vendidos" stroke="none" stroke-width="1" fill="none" fill-rule="evenodd">
        <g id="invoice" transform="translate(9.000000, 3.000000)" fill="#004FFA" fill-rule="nonzero">
            <path d="M31.7395833,9.43525 L22.8506667,0.268554688 C22.684,0.0966796875 22.4583333,0 22.2221667,0 L3.5555,0 C1.5955,0 0,1.64441406 0,3.66669531 L0,40.3333906 C0,42.3555859 1.5955,44 3.55558333,44 L28.4445,44 C30.4045,44 32,42.3555859 32,40.3333047 L32,10.0833047 C32,9.83984375 31.90625,9.607125 31.7395833,9.43525 Z M23.1110833,3.12958594 L28.96525,9.16669531 L24.8888333,9.16669531 C23.9079167,9.16669531 23.1110833,8.34401562 23.1110833,7.33339062 L23.1110833,3.12958594 L23.1110833,3.12958594 Z M30.22225,40.3333047 C30.22225,41.3439297 29.4253333,42.1666094 28.4445,42.1666094 L3.55558333,42.1666094 C2.57466667,42.1666094 1.77783333,41.3439297 1.77783333,40.3333047 L1.77783333,3.66669531 C1.77783333,2.65607031 2.57475,1.83339062 3.55558333,1.83339062 L21.3333333,1.83339062 L21.3333333,7.33339062 C21.3333333,9.35558594 22.9288333,11 24.8889167,11 L30.22225,11 L30.22225,40.3333047 Z" id="Shape"></path>
            <path d="M26.0832223,26 L5.91669173,26 C5.41000621,26 5,26.4472673 5,27 C5,27.5527327 5.41000621,28 5.91669173,28 L26.0833083,28 C26.5899938,28 27,27.5527327 27,27 C27,26.4472673 26.5899079,26 26.0832223,26 Z" id="Path"></path>
            <path d="M26.0832223,20 L5.91669173,20 C5.41000621,20 5,20.4472673 5,21 C5,21.5527327 5.41000621,22 5.91669173,22 L26.0833083,22 C26.5899938,22 27,21.5527327 27,21 C27,20.4472673 26.5899079,20 26.0832223,20 Z" id="Path"></path>
            <path d="M26.0832223,31 L5.91669173,31 C5.41000621,31 5,31.4472673 5,32 C5,32.5527327 5.41000621,33 5.91669173,33 L26.0833083,33 C26.5899938,33 27,32.5527327 27,32 C27,31.4472673 26.5899079,31 26.0832223,31 Z" id="Path"></path>
            <path d="M17.0714037,36 L5.9285963,36 C5.41533074,36 5,36.4472673 5,37 C5,37.5527327 5.41533074,38 5.9285963,38 L17.0714037,38 C17.5846693,38 18,37.5527327 18,37 C18,36.4472673 17.5846693,36 17.0714037,36 Z" id="Path"></path>
            <path d="M14,15 C14,15.5527327 14.4153307,16 14.9285963,16 L26.0714037,16 C26.5846693,16 27,15.5527327 27,15 C27,14.4472673 26.5846693,14 26.0714037,14 L14.9285963,14 C14.4153307,14.0000937 14,14.447361 14,15 Z" id="Path"></path>
            <path d="M8,15.2499785 L6.00003125,15.2499785 C5.44728125,15.2499785 5,15.6599767 5,16.1666523 C5,16.673328 5.44728125,17.0833262 6.00003125,17.0833262 L7.0000625,17.0833262 C7.0000625,17.5900018 7.44734375,18 8.00009375,18 C8.55284375,18 9.000125,17.5900018 9.000125,17.0833262 L9.000125,16.9144629 C10.1615,16.534714 11,15.5267767 11,14.3333047 C11,12.8168871 9.6543125,11.5833691 8,11.5833691 C7.44921875,11.5833691 6.99996875,11.1725116 6.99996875,10.6666953 C6.99996875,10.160965 7.44921875,9.75002148 8,9.75002148 L9.99996875,9.75002148 C10.5527187,9.75002148 11,9.34002328 11,8.83334766 C11,8.32667203 10.5527188,7.91667383 9.99996875,7.91667383 L8.9999375,7.91667383 C8.9999375,7.4099982 8.55265625,7 7.99990625,7 C7.44715625,7 6.999875,7.4099982 6.999875,7.91667383 L6.999875,8.08553706 C5.8385,8.46528597 5,9.47322328 5,10.6666953 C5,12.1831129 6.3456875,13.4166309 8,13.4166309 C8.55078125,13.4166309 9.00003125,13.8274884 9.00003125,14.3333047 C9.00003125,14.839121 8.55078125,15.2499785 8,15.2499785 Z" id="Path"></path>
        </g>
    </g>
</svg>