<?xml version="1.0" encoding="UTF-8"?>
<svg width="50px" height="50px" viewBox="0 0 50 50" version="1.1" xmlns="http://www.w3.org/2000/svg" xmlns:xlink="http://www.w3.org/1999/xlink">
    <title>ic_loja</title>
    <g id="ic_loja" stroke="none" stroke-width="1" fill="none" fill-rule="evenodd">
        <g id="Group" transform="translate(3, 2)">
            <g id="ic_online_store" fill-rule="nonzero">
                <path d="M22.3333333,0 L22.332,0.084 L22.4222496,0.0904990637 C32.2101243,0.999804365 39.9975164,8.78873799 40.9068321,18.5776899 L40.9139999,18.666 L41,18.6666667 L41,22.3333333 L40.9139999,22.332 L40.9068344,22.4222785 C39.99757,32.210646 32.210646,39.99757 22.4222785,40.9068344 L22.332,40.9139999 L22.3333333,41 L18.6666667,41 L18.666,40.9139999 L18.5776899,40.9068321 C8.78873799,39.9975164 0.999804365,32.2101243 0.0904990637,22.4222496 L0.084,22.332 L0,22.3333333 L0,18.6666667 L0.084,18.666 L0.0905014968,18.5777189 C0.999857816,8.78925969 8.78925969,0.999857816 18.5777189,0.0905014968 L18.666,0.084 L18.6666667,0 L22.3333333,0 Z M27.65,30.3319999 L22.332,30.3319999 L22.332,36.964 C24.385172,36.1086147 26.2237804,33.8811431 27.5074778,30.7045084 L27.65,30.3319999 Z M18.666,30.3319999 L13.348,30.3319999 L13.4926444,30.7049548 C14.7765518,33.8827531 16.6138094,36.1091162 18.6475346,36.957902 L18.666,30.3319999 Z M34.162,30.3319999 L31.4780001,30.3319999 L31.3216353,30.8045528 C30.8433744,32.1510897 30.2747859,33.4021931 29.6274687,34.5347423 L29.518,34.7139999 C31.2156739,33.6360423 32.7074174,32.2635591 33.9218827,30.6634134 L34.162,30.3319999 Z M9.52,30.3319999 L6.83600001,30.3319999 L7.07849492,30.6641004 C8.15830825,32.0871415 9.45642947,33.3294412 10.9209389,34.3439729 L11.476,34.7119999 L11.3735768,34.539651 C10.7266465,33.4080628 10.1585587,32.1557055 9.68067305,30.8061216 L9.52,30.3319999 Z M29.2780001,22.332 L22.332,22.332 L22.332,26.666 L28.7060001,26.666 L28.8013776,26.2225791 C29.0192204,25.0993801 29.1719564,23.9272504 29.2565086,22.7223355 L29.2780001,22.332 Z M37.228,22.332 L32.946,22.332 L32.9114441,22.9624606 C32.8316774,24.0668857 32.6973821,25.1543589 32.5106264,26.2167056 L32.422,26.666 L36.162,26.666 L36.3211643,26.2646077 C36.7560203,25.0721839 37.0541006,23.8313457 37.2070623,22.561636 L37.228,22.332 Z M8.05199999,22.332 L3.76799999,22.332 L3.79125821,22.5617297 C3.94575505,23.8325775 4.24439554,25.0735921 4.67904779,26.2652096 L4.83599999,26.666 L8.57600001,26.666 L8.48937375,26.2167056 C8.30261782,25.1543589 8.16832273,24.0668857 8.08855577,22.9624606 L8.05199999,22.332 Z M18.666,22.332 L11.72,22.332 L11.7433748,22.7208455 C11.8277125,23.9242183 11.9799806,25.0965717 12.196903,26.2216271 L12.288,26.666 L18.666,26.666 L18.666,22.332 Z M36.162,14.332 L32.422,14.332 L32.5106264,14.7832945 C32.6973821,15.8456411 32.8316774,16.9331143 32.9114441,18.0375394 L32.946,18.666 L37.23,18.666 L37.2087418,18.4382703 C37.0542451,17.1674225 36.7556044,15.9264079 36.3209521,14.7347904 L36.162,14.332 Z M28.7060001,14.332 L22.332,14.332 L22.332,18.666 L29.276,18.666 L29.2540794,18.2694511 C29.1670118,17.0543902 29.0148631,15.8827394 28.7993374,14.7688299 L28.7060001,14.332 Z M18.666,14.332 L12.288,14.332 L12.196903,14.7783728 C11.9799806,15.9034283 11.8277125,17.0757817 11.7433748,18.2791545 L11.72,18.666 L18.666,18.666 L18.666,14.332 Z M8.57600001,14.332 L4.83599999,14.332 L4.67904779,14.7347904 C4.24439554,15.9264079 3.94575505,17.1674225 3.79125821,18.4382703 L3.76799999,18.666 L8.05199999,18.666 L8.08855577,18.0375394 C8.16832273,16.9331143 8.30261782,15.8456411 8.48937375,14.7832945 L8.57600001,14.332 Z M22.332,4.036 L22.332,10.666 L27.65,10.666 L27.5074389,10.2953945 C26.2236295,7.11853631 24.3850317,4.8916547 22.3523676,4.044322 L22.332,4.036 Z M18.666,4.036 C16.6139487,4.89115458 14.7767023,7.11692699 13.4926834,10.2949483 L13.348,10.666 L18.666,10.666 L18.666,4.036 Z M11.474875,6.2858125 L10.9222405,6.65559604 C9.4581282,7.67014526 8.15955432,8.91293257 7.07898746,10.3360863 L6.83799999,10.666 L9.52400001,10.666 L9.68312957,10.1944629 C10.1606678,8.84571018 10.7284049,7.59348849 11.3747218,6.46162468 L11.474875,6.2858125 Z M29.5240001,6.288 L29.6252501,6.45605852 C30.2460721,7.54106573 30.7948076,8.73880683 31.2623596,10.0294986 L31.4799999,10.666 L34.162,10.666 L33.9213913,10.3367747 C32.8411138,8.91431105 31.5420498,7.67135118 30.0776812,6.65634518 L29.5240001,6.288 Z" id="Combined-Shape" fill="#0061E6"></path>
                <path d="M34,26 C28.4773663,26 24,30.4773663 24,36 C24,41.5226337 28.4773663,46 34,46 C39.5226337,46 44,41.5226337 44,36 C44,30.4773663 39.5226337,26 34,26 Z" id="Shape" fill="#FFFFFF"></path>
                <path d="M34,28 C29.581893,28 26,31.581893 26,36 C26,40.418107 29.581893,44 34,44 C38.418107,44 42,40.418107 42,36 C42,31.581893 38.418107,28 34,28 Z" id="Shape" fill="#000000"></path>
            </g>
            <path d="M36.4651171,39.3015674 C36.0827907,39.7280778 35.585045,40.0157243 35.0043417,40.1612007 C34.7518619,40.2240201 34.6364426,40.3463525 34.6508701,40.5877111 C34.6616906,40.8257634 34.6508701,41.0605094 34.6472632,41.2985617 C34.6472632,41.5101638 34.5282371,41.6225773 34.3010053,41.6291899 C34.1531243,41.6324962 34.0052434,41.6358025 33.8573624,41.6358025 C33.7275157,41.6358025 33.597669,41.6358025 33.4678223,41.6324962 C33.2225563,41.6291899 33.107137,41.5002449 33.107137,41.2820303 C33.1035301,41.1101036 33.1035301,40.9348707 33.1035301,40.762944 C33.0999233,40.3794153 33.0854959,40.3661902 32.6851352,40.3066771 C32.172962,40.2306326 31.6680026,40.1248316 31.1991117,39.9165359 C30.8312127,39.7512218 30.7915373,39.6685647 30.8961361,39.3114863 C30.9754868,39.0469837 31.0548376,38.7824812 31.1450089,38.5212849 C31.2099323,38.3295205 31.2712488,38.2435572 31.3830612,38.2435572 C31.4479846,38.2435572 31.5309422,38.2733137 31.6427546,38.3262143 C32.1621415,38.5741854 32.71399,38.7130492 33.2946933,38.7791749 C33.3920784,38.7890937 33.4894634,38.7957063 33.5868484,38.7957063 C33.8573624,38.7957063 34.1206627,38.7494183 34.3767492,38.6469236 C35.0223759,38.3890336 35.1233678,37.7046332 34.578733,37.2946543 C34.3947835,37.1557904 34.1819792,37.0532957 33.9619611,36.9640261 C33.3956852,36.7358926 32.8077682,36.563966 32.2739539,36.2697069 C31.4083092,35.7936023 30.8600675,35.1422647 30.9249909,34.1768304 C30.997128,33.0857574 31.6716095,32.4046633 32.7644859,32.0409723 C33.2153426,31.8921896 33.2189494,31.8954959 33.2189494,31.4656792 C33.2189494,31.3202028 33.2153426,31.1747264 33.2225563,31.0259437 C33.2333768,30.7019281 33.2910865,30.6457213 33.6445581,30.6358025 C33.6842335,30.6358025 33.7275157,30.6358025 33.7671911,30.6358025 C33.8357213,30.6358025 33.9042515,30.6358025 33.9727817,30.6358025 C34.0016365,30.6358025 34.0304913,30.6358025 34.0557393,30.6358025 C34.726614,30.6358025 34.726614,30.6622527 34.7302208,31.3268154 C34.7338277,31.8161451 34.7338277,31.8161451 35.2640351,31.8921896 C35.6716095,31.9517027 36.0575427,32.06081 36.4326555,32.212899 C36.6382461,32.295556 36.7175968,32.4278073 36.6526735,32.6294905 C36.5588953,32.9270559 36.468724,33.2279275 36.3677321,33.5221866 C36.3028087,33.7007258 36.2414922,33.7833829 36.1260729,33.7833829 C36.0611496,33.7833829 35.9817988,33.7602389 35.8808069,33.713951 C35.3614201,33.4825112 34.8167853,33.3700976 34.2469025,33.3700976 C34.1747655,33.3700976 34.0990215,33.3734039 34.0268845,33.3767102 C33.8573624,33.386629 33.6914472,33.4064667 33.5327456,33.4692861 C32.9700766,33.6941133 32.8799052,34.2627938 33.3596167,34.6132596 C33.6012758,34.7917989 33.8790035,34.9174376 34.1639449,35.0265449 C34.6616906,35.215003 35.1594363,35.3968485 35.6319341,35.6349008 C37.1179575,36.3953456 37.5219251,38.1245311 36.4651171,39.3015674 Z" id="Path" fill="#FFFFFF"></path>
        </g>
    </g>
</svg>