<?xml version="1.0" encoding="UTF-8"?>
<svg width="68px" height="85px" viewBox="0 0 68 85" version="1.1" xmlns="http://www.w3.org/2000/svg" xmlns:xlink="http://www.w3.org/1999/xlink">
    <title>ic_man</title>
    <g id="ic_man" stroke="none" stroke-width="1" fill="none" fill-rule="evenodd">
        <g id="Group-6" transform="translate(20.000000, 7.000000)" fill="#3A82F8" fill-rule="nonzero">
            <path d="M14.3999991,0 C9.62819943,0 5.75999966,3.86819977 5.75999966,8.63999949 C5.75999966,13.4117992 9.62819943,17.279999 14.3999991,17.279999 C19.1698189,17.275319 23.0353186,13.4098192 23.0399986,8.63999949 C23.0399986,3.86819977 19.1717989,0 14.3999991,0 Z M14.3999991,14.3999991 C11.2188593,14.3999991 8.63999949,11.8211393 8.63999949,8.63999949 C8.63999949,5.45885967 11.2188593,2.87999983 14.3999991,2.87999983 C17.581139,2.87999983 20.1599988,5.45885967 20.1599988,8.63999949 C20.1599988,11.8211393 17.581139,14.3999991 14.3999991,14.3999991 Z" id="Shape"></path>
            <path d="M18.7199989,20.1599988 L10.0799994,20.1599988 C4.51565973,20.1662988 0.00629999962,24.6756585 0,30.2399982 L0,50.399997 C0,51.1952369 0.644759962,51.8399969 1.43999991,51.8399969 L5.75999966,51.8399969 L5.75999966,70.5599958 C5.75999966,71.3552357 6.40475962,71.9999957 7.19999957,71.9999957 L21.5999987,71.9999957 C22.3952387,71.9999957 23.0399986,71.3552357 23.0399986,70.5599958 L23.0399986,51.8399969 L27.3599984,51.8399969 C28.1552383,51.8399969 28.7999983,51.1952369 28.7999983,50.399997 L28.7999983,30.2399982 C28.7936983,24.6756585 24.2845186,20.1662988 18.7199989,20.1599988 Z M25.9199985,48.9599971 L23.0399986,48.9599971 L23.0399986,31.6799981 L20.1599988,31.6799981 L20.1599988,69.1199959 L15.8399991,69.1199959 L15.8399991,48.9599971 L12.9599992,48.9599971 L12.9599992,69.1199959 L8.63999949,69.1199959 L8.63999949,31.6799981 L5.75999966,31.6799981 L5.75999966,48.9599971 L2.87999983,48.9599971 L2.87999983,30.2399982 C2.88467983,26.2655984 6.10559964,23.0446786 10.0799994,23.0399986 L18.7199989,23.0399986 C22.6943986,23.0446786 25.9153185,26.2655984 25.9199985,30.2399982 L25.9199985,48.9599971 Z" id="Shape"></path>
        </g>
    </g>
</svg>