<?xml version="1.0" encoding="UTF-8"?>
<svg width="50px" height="50px" viewBox="0 0 50 50" version="1.1" xmlns="http://www.w3.org/2000/svg" xmlns:xlink="http://www.w3.org/1999/xlink">
    <title>Ic_outrasdespesas</title>
    <g id="Ic_outrasdespesas" stroke="none" stroke-width="1" fill="none" fill-rule="evenodd">
        <g id="shopping-cart---coÌpia-2" transform="translate(5, 6)" fill="#788EC0" fill-rule="nonzero">
            <path d="M12.2530503,22.4861263 L35.8285932,22.4861263 L40,7.57709362 L33.8611937,7.57709362 L31.657121,0.76012297 L22.4653409,3.74357783 L23.7224593,7.57709362 L23.2898104,7.57709362 L21.0204125,0.76012297 L11.828567,3.74357783 L13.0856854,7.57709362 L8.17140029,7.57709362 L7.15102046,3.4901817 C6.63671506,1.44672574 4.85712559,0 2.80813495,0 L0,0 L0,1.70829805 L2.80813495,1.70829805 C4.08158466,1.70829805 5.19178666,2.55835898 5.53467871,3.84169197 L10.0489776,21.5297751 C9.11835459,22.2000255 8.50612669,23.2953064 8.50612669,24.5459346 C8.50612669,26.5893906 10.2122253,28.2976886 12.2530503,28.2976886 L35.2326966,28.2976886 L35.2326966,26.5893906 L12.2530503,26.5893906 C11.1428483,26.5893906 10.2122253,25.6493917 10.2122253,24.5459346 C10.2122906,23.4261252 11.1510139,22.4861263 12.2530503,22.4861263 L12.2530503,22.4861263 Z M30.55515,2.88534071 L32.0898352,7.48722106 L25.4531202,7.48722106 L24.5143315,4.8471003 L30.55515,2.88534071 Z M19.9183761,2.88534071 L21.4530614,7.48722106 L14.8163463,7.48722106 L13.8775577,4.8471003 L19.9183761,2.88534071 Z M37.787827,9.19551911 L34.5551435,20.7860044 L11.5754972,20.7860044 L8.59588353,9.19551911 L37.787827,9.19551911 L37.787827,9.19551911 Z" id="Shape"></path>
            <path d="M2.80813495,-0.7 C5.17550084,-0.7 7.23652922,0.961926984 7.83017289,3.32061762 L8.718,6.877 L12.119,6.877 L11.1634181,3.96169901 L10.9446351,3.29453186 L11.612462,3.0777711 L20.8043074,0.0943162391 L21.4651289,-0.120170724 L21.6845763,0.539020085 L22.502,2.995 L31.4410146,0.0943166901 L32.1075788,-0.122035774 L32.3231727,0.544774174 L34.371,6.877 L40.9227362,6.87709362 L40.6741115,7.76570365 L36.5027046,22.6747363 L36.3596225,23.1861263 L12.2530503,23.1861263 C11.536136,23.1861263 10.912268,23.8142362 10.9122253,24.5459346 C10.9122253,25.2662306 11.5328774,25.8893906 12.2530503,25.8893906 L35.9326966,25.8893906 L35.9326966,28.9976886 L12.2530503,28.9976886 C9.82542394,28.9976886 7.80612669,26.9757882 7.80612669,24.5459346 C7.80612669,23.3443679 8.28656017,22.22754 9.10754508,21.4126924 L9.259,21.269 L4.85840222,4.02238539 C4.61437682,3.109078 3.8667455,2.48515767 2.97661597,2.41491551 L2.80813495,2.40829805 L-0.7,2.40829805 L-0.7,6.66133815e-16 L-0.7,-0.7 L2.80813495,-0.7 Z M0.7,0.7 L0.7,1.008 L2.80813495,1.00829805 C4.344833,1.00829805 5.6781539,1.99729137 6.15751265,3.48063221 L6.21293771,3.66858876 L10.7272366,21.3566719 L10.8452203,21.8189599 L10.458072,22.0977907 C9.6775224,22.6599557 9.20612669,23.5592803 9.20612669,24.5459346 C9.20612669,26.202993 10.5990266,27.5976886 12.2530503,27.5976886 L34.532,27.597 L34.532,27.289 L12.2530503,27.2893906 C10.8137691,27.2893906 9.60487623,26.129135 9.51730294,24.7106588 L9.51222529,24.5458938 C9.51231295,23.0431216 10.7608192,21.7861263 12.2530503,21.7861263 L35.297,21.786 L39.076,8.277 L33.3518401,8.27709362 L33.195142,7.79244241 L31.206,1.641 L23.349,4.192 L24.3876083,7.35897243 L24.6886862,8.27709362 L22.7850735,8.27709362 L22.6256466,7.7981965 L20.575,1.64 L12.712,4.192 L13.7508344,7.35897243 L14.0519124,8.27709362 L7.62468187,8.27709362 L7.49224786,7.74665769 L6.47219056,3.6610324 C6.03319398,1.91679609 4.52419191,0.7 2.80813495,0.7 L0.7,0.7 Z M38.7097795,8.49551911 L38.4620925,9.38357743 L35.229409,20.9740628 L35.0866242,21.4860044 L11.0326886,21.4860044 L10.8975409,20.9602895 L7.91792724,9.36980412 L7.6931712,8.49551911 L38.7097795,8.49551911 Z M36.865,9.895 L9.498,9.895 L12.118,20.086 L34.023,20.086 L36.865,9.895 Z M30.9994828,2.00505635 L31.2191969,2.66388711 L32.7538821,7.26576746 L33.0611785,8.18722106 L24.9590925,8.18722106 L24.7935761,7.72174536 L23.8547875,5.08162459 L23.6136907,4.40359698 L24.2981215,4.18132766 L30.3389399,2.21956808 L30.9994828,2.00505635 Z M20.362709,2.00505635 L20.5824231,2.66388711 L22.1171083,7.26576746 L22.4244047,8.18722106 L14.3223187,8.18722106 L14.1568023,7.72174536 L13.2180136,5.08162459 L12.9769169,4.40359698 L13.6613476,4.18132766 L19.7021661,2.21956808 L20.362709,2.00505635 Z M30.111,3.765 L25.414,5.29 L25.947,6.787 L31.118,6.787 L30.111,3.765 Z M19.474,3.765 L14.778,5.29 L15.31,6.787 L20.482,6.787 L19.474,3.765 Z" id="Shape"></path>
            <path d="M27.7469497,30.8397607 C25.7877812,30.8397607 24.1714395,32.4581862 24.1714395,34.4198803 C24.1714395,36.3815745 25.7877812,38 27.7469497,38 C29.7877747,38 31.32246,36.3815745 31.32246,34.4198803 C31.32246,32.4581862 29.7061835,30.8397607 27.7469497,30.8397607 Z M27.7469497,36.3815745 C26.6367477,36.3815745 25.7877812,35.4415756 25.7877812,34.4198803 C25.7877812,33.3082471 26.7265699,32.4581862 27.7469497,32.4581862 C28.8571517,32.4581862 29.7061182,33.3082471 29.7061182,34.4198803 C29.7061835,35.5315136 28.7673949,36.3815745 27.7469497,36.3815745 Z" id="Shape"></path>
            <path d="M27.7469497,30.1397607 C30.0929644,30.1397607 32.02246,32.071768 32.02246,34.4198803 C32.02246,36.7941172 30.1489677,38.7 27.7469497,38.7 C25.4009799,38.7 23.4714395,36.7679721 23.4714395,34.4198803 C23.4714395,32.0717886 25.4009799,30.1397607 27.7469497,30.1397607 Z M27.7469497,31.5397607 C26.1745826,31.5397607 24.8714395,32.8445837 24.8714395,34.4198803 C24.8714395,35.9951769 26.1745826,37.3 27.7469497,37.3 C29.3703467,37.3 30.62246,36.0262391 30.62246,34.4198803 C30.62246,32.8445593 29.3193577,31.5397607 27.7469497,31.5397607 Z M27.7469497,31.7581862 C29.2439531,31.7581862 30.4061182,32.9218495 30.4061182,34.4198392 C30.4062047,35.8925072 29.1806833,37.0815745 27.7469497,37.0815745 C26.2752839,37.0815745 25.0877812,35.8545081 25.0877812,34.4198803 C25.0877812,32.9472398 26.3132885,31.7581862 27.7469497,31.7581862 Z M27.7469497,33.1581862 C27.0771845,33.1581862 26.4877812,33.7300571 26.4877812,34.4198803 C26.4877812,35.0913907 27.058936,35.6815745 27.7469497,35.6815745 C28.4167732,35.6815745 29.0061587,35.1097207 29.0061182,34.4198803 C29.0061182,33.6946447 28.4703504,33.1581862 27.7469497,33.1581862 Z" id="Shape"></path>
            <path d="M14.6367673,30.8397607 C12.6775988,30.8397607 11.0612571,32.4581862 11.0612571,34.4198803 C11.0612571,36.3815745 12.6775988,38 14.6367673,38 C16.5959358,38 18.2122775,36.3815745 18.2122775,34.4198803 C18.2122775,32.4581862 16.5959358,30.8397607 14.6367673,30.8397607 Z M14.6367673,36.3815745 C13.5265653,36.3815745 12.6775988,35.4415756 12.6775988,34.4198803 C12.6775988,33.3082471 13.6163875,32.4581862 14.6367673,32.4581862 C15.6571471,32.4581862 16.5959358,33.3082471 16.5959358,34.4198803 C16.5959358,35.5315136 15.6571471,36.3815745 14.6367673,36.3815745 Z" id="Shape"></path>
            <path d="M14.6367673,30.1397607 C16.9827371,30.1397607 18.9122775,32.0717886 18.9122775,34.4198803 C18.9122775,36.7679721 16.9827371,38.7 14.6367673,38.7 C12.2907975,38.7 10.3612571,36.7679721 10.3612571,34.4198803 C10.3612571,32.0717886 12.2907975,30.1397607 14.6367673,30.1397607 Z M14.6367673,31.5397607 C13.0644002,31.5397607 11.7612571,32.8445837 11.7612571,34.4198803 C11.7612571,35.9951769 13.0644002,37.3 14.6367673,37.3 C16.2091344,37.3 17.5122775,35.9951769 17.5122775,34.4198803 C17.5122775,32.8445837 16.2091344,31.5397607 14.6367673,31.5397607 Z M14.6367673,31.7581862 C16.0704285,31.7581862 17.2959358,32.9472398 17.2959358,34.4198803 C17.2959358,35.8925209 16.0704285,37.0815745 14.6367673,37.0815745 C13.1651015,37.0815745 11.9775988,35.8545081 11.9775988,34.4198803 C11.9775988,32.9472398 13.2031061,31.7581862 14.6367673,31.7581862 Z M14.6367673,33.1581862 C13.9670021,33.1581862 13.3775988,33.7300571 13.3775988,34.4198803 C13.3775988,35.0913907 13.9487536,35.6815745 14.6367673,35.6815745 C15.3065326,35.6815745 15.8959358,35.1097035 15.8959358,34.4198803 C15.8959358,33.7300571 15.3065326,33.1581862 14.6367673,33.1581862 Z" id="Shape"></path>
        </g>
    </g>
</svg>