<?xml version="1.0" encoding="UTF-8"?>
<svg width="24px" height="24px" viewBox="0 0 24 24" version="1.1" xmlns="http://www.w3.org/2000/svg" xmlns:xlink="http://www.w3.org/1999/xlink">
    <title>ic_online_store</title>
    <g id="ic_online_store" stroke="none" stroke-width="1" fill="none" fill-rule="evenodd">
        <g id="grid-world" transform="translate(4.000000, 4.000000)" fill="#515253" fill-rule="nonzero">
            <path d="M8.71544715,0 L8.71492683,0.0327804878 L8.75014619,0.0353167078 C12.5698046,0.390167557 15.6087869,3.42975141 15.9636418,7.24983022 L15.966439,7.28429268 L16,7.28455285 L16,8.71544715 L15.966439,8.71492683 L15.9636427,8.75015747 C15.6088078,12.5700082 12.5700082,15.6088078 8.75015747,15.9636427 L8.71492683,15.966439 L8.71544715,16 L7.28455285,16 L7.28429268,15.966439 L7.24983022,15.9636418 C3.42975141,15.6087869 0.390167557,12.5698046 0.0353167078,8.75014619 L0.0327804878,8.71492683 L0,8.71544715 L0,7.28455285 L0.0327804878,7.28429268 L0.0353176573,7.24984151 C0.390188416,3.429955 3.429955,0.390188416 7.24984151,0.0353176573 L7.28429268,0.0327804878 L7.28455285,0 L8.71544715,0 Z M10.7902439,11.836878 L8.71492683,11.836878 L8.71492683,14.4249756 C9.51616469,14.0911667 10.2336704,13.2219095 10.7346255,11.9822472 L10.7902439,11.836878 Z M7.28429268,11.836878 L5.20897561,11.836878 L5.26542221,11.9824214 C5.76645922,13.2225378 6.48343781,14.0913624 7.27708667,14.4225959 L7.28429268,11.836878 Z M13.3315122,11.836878 L12.2840976,11.836878 L12.2230772,12.0212889 C12.0364388,12.5467667 11.8145506,13.0350022 11.561939,13.4769726 L11.5192195,13.5469268 C12.1817264,13.1262604 12.7638702,12.5906572 13.2378079,11.9662101 L13.3315122,11.836878 Z M3.71512195,11.836878 L2.66770732,11.836878 L2.76233948,11.9664782 C3.18373005,12.5218113 3.69031394,13.0066112 4.26182983,13.402526 L4.47843902,13.5461463 L4.438469,13.4788882 C4.18600839,13.0372928 3.96431559,12.548568 3.77782363,12.0219011 L3.71512195,11.836878 Z M11.425561,8.71492683 L8.71492683,8.71492683 L8.71492683,10.4062439 L11.2023415,10.4062439 L11.239562,10.2332016 C11.3245738,9.79488002 11.3841781,9.33746359 11.4171741,8.86725286 L11.425561,8.71492683 Z M14.528,8.71492683 L12.8569756,8.71492683 L12.8434904,8.96096023 C12.8123619,9.39195541 12.759954,9.81633519 12.6870737,10.2309095 L12.6524878,10.4062439 L14.112,10.4062439 L14.1741129,10.249603 C14.3438128,9.78426689 14.4601368,9.30003734 14.5198292,8.80454086 L14.528,8.71492683 Z M3.1422439,8.71492683 L1.47043902,8.71492683 L1.4795154,8.80457744 C1.53980685,9.30051806 1.65634948,9.78481641 1.82596987,10.2498379 L1.88721951,10.4062439 L3.34673171,10.4062439 L3.31292634,10.2309095 C3.24004598,9.81633519 3.18763814,9.39195541 3.15650957,8.96096023 L3.1422439,8.71492683 Z M7.28429268,8.71492683 L4.57365854,8.71492683 L4.5827804,8.86667142 C4.61569268,9.3362803 4.67511438,9.79378408 4.75976701,10.2328301 L4.79531707,10.4062439 L7.28429268,10.4062439 L7.28429268,8.71492683 Z M14.112,5.59297561 L12.6524878,5.59297561 L12.6870737,5.76909052 C12.759954,6.18366481 12.8123619,6.60804459 12.8434904,7.03903977 L12.8569756,7.28429268 L14.5287805,7.28429268 L14.5204846,7.19542256 C14.4601932,6.69948194 14.3436505,6.21518359 14.1740301,5.75016209 L14.112,5.59297561 Z M11.2023415,5.59297561 L8.71492683,5.59297561 L8.71492683,7.28429268 L11.4247805,7.28429268 L11.4162261,7.12954191 C11.3822485,6.65537177 11.3228734,6.1981422 11.2387658,5.76344582 L11.2023415,5.59297561 Z M7.28429268,5.59297561 L4.79531707,5.59297561 L4.75976701,5.76716989 C4.67511438,6.20621592 4.61569268,6.6637197 4.5827804,7.13332858 L4.57365854,7.28429268 L7.28429268,7.28429268 L7.28429268,5.59297561 Z M3.34673171,5.59297561 L1.88721951,5.59297561 L1.82596987,5.75016209 C1.65634948,6.21518359 1.53980685,6.69948194 1.4795154,7.19542256 L1.47043902,7.28429268 L3.1422439,7.28429268 L3.15650957,7.03903977 C3.18763814,6.60804459 3.24004598,6.18366481 3.31292634,5.76909052 L3.34673171,5.59297561 Z M8.71492683,1.57502439 L8.71492683,4.16234146 L10.7902439,4.16234146 L10.7346103,4.01771494 C10.2336115,2.77796539 9.51610995,1.90893842 8.72287517,1.578272 Z M7.28429268,1.57502439 C6.48349218,1.90874325 5.76651797,2.77733736 5.26543741,4.01754079 L5.20897561,4.16234146 L7.28429268,4.16234146 L7.28429268,1.57502439 Z M4.478,2.453 L4.26233777,2.59730577 C3.69097686,2.99322742 3.18421632,3.47821759 2.76253169,4.03359465 L2.6684878,4.16234146 L3.71668293,4.16234146 L3.77878227,3.97832699 C3.96513864,3.45198446 4.18669461,2.96331258 4.43891583,2.52160963 L4.478,2.453 Z M11.521561,2.45385366 L11.5610732,2.51943747 C11.8033452,2.94285492 12.0174859,3.41026608 12.1999452,3.91395067 L12.284878,4.16234146 L13.3315122,4.16234146 L13.2376161,4.03386328 C12.8160444,3.47875553 12.3090926,2.99369802 11.7376317,2.59759812 L11.521561,2.45385366 Z" id="Combined-Shape"></path>
        </g>
    </g>
</svg>