<?xml version="1.0" encoding="UTF-8"?>
<svg width="20px" height="20px" viewBox="0 0 20 20" version="1.1" xmlns="http://www.w3.org/2000/svg" xmlns:xlink="http://www.w3.org/1999/xlink">
    <title>ic_produtos</title>
    <g id="ic_produtos" stroke="none" stroke-width="1" fill="none" fill-rule="evenodd">
        <g id="Group-2-Copy-2" transform="translate(2.000000, 3.000000)" fill="#515253" fill-rule="nonzero">
            <g id="flyers">
                <path d="M16.1708394,4.93144181 L15.3360534,4.21002344 C15.232503,4.12046984 15.0759138,4.13190704 14.9863926,4.23552224 C14.8968714,4.33910503 14.9082438,4.49566183 15.0118914,4.58518303 L15.8466126,5.3066014 C16.1441742,5.56376019 16.1770278,6.01505977 15.9199014,6.31262136 L10.4978588,12.5864275 C10.4083376,12.6900103 10.41971,12.8465671 10.5233252,12.9361207 C10.570208,12.9766531 10.6279124,12.9964819 10.6853252,12.9964819 C10.754888,12.9964819 10.8239972,12.9673867 10.8730184,12.9106867 L16.2950286,6.63681575 C16.7309706,6.13241257 16.6752426,5.3673514 16.1708394,4.93144181 Z" id="Path"></path>
                <path d="M14.7012078,3.66129706 L10.8396464,0.324064788 C10.5952856,0.112881596 10.2832736,0.00962279963 9.96121762,0.0329507987 C9.63909683,0.0563759979 9.34542324,0.203893192 9.13424005,0.448221583 L8.76630567,0.873957567 C8.67678447,0.977572763 8.68815687,1.13412956 8.79177207,1.22365075 C8.89541966,1.31323675 9.05194406,1.30176715 9.14146525,1.19818435 L9.50939964,0.772448371 C9.63397763,0.628333176 9.80722043,0.541306779 9.99724642,0.52747198 C10.1872724,0.51350758 10.371272,0.574613978 10.5154196,0.699191973 L14.3769811,4.03642425 C14.4238639,4.07695664 14.4815682,4.09678544 14.538981,4.09678544 C14.6085438,4.09678544 14.677653,4.06769025 14.7266742,4.01099025 C14.816163,3.90737505 14.8047906,3.75081826 14.7012078,3.66129706 Z" id="Path"></path>
                <path d="M12.3476071,2.78484469 L5.66711618,0.544125579 C5.03495981,0.332099987 4.34830663,0.673887574 4.13631344,1.30594675 L4.04818545,1.56867834 C4.00463985,1.69847274 4.07459144,1.83902393 4.20441824,1.88256953 C4.33424503,1.92611513 4.47473143,1.85619593 4.51830943,1.72633673 L4.60643742,1.46360514 C4.73150142,1.09071356 5.1365338,0.889088366 5.50945779,1.01418476 L12.1899811,3.25487148 C12.5628727,3.37996787 12.7644655,3.78503266 12.6394015,4.15789184 L9.53117244,13.4249395 C9.48762684,13.5547339 9.55757844,13.6952527 9.68740523,13.7388307 C9.71355203,13.7475787 9.74012003,13.7517583 9.76626683,13.7517583 C9.86988202,13.7517583 9.96649882,13.6862779 10.0012964,13.5826303 L13.1095255,4.31561504 C13.3214863,3.68358826 12.9797311,2.99683789 12.3476071,2.78484469 Z" id="Path"></path>
                <path d="M8.25535769,2.16331552 L1.20910315,2.16331552 C0.542408379,2.16331552 0,2.7056915 0,3.37238627 L0,13.1467855 C0,13.8134803 0.542408379,14.3558887 1.20910315,14.3558887 L8.25539009,14.3558887 C8.92208486,14.3558887 9.46449324,13.8134803 9.46449324,13.1467855 L9.46449324,3.37238627 C9.46449324,2.7056915 8.92208486,2.16331552 8.25535769,2.16331552 Z M8.96864366,13.1467855 C8.96864366,13.5400891 8.64862887,13.8600391 8.25535769,13.8600391 L1.20910315,13.8600391 C0.815799569,13.8600391 0.495849581,13.5400567 0.495849581,13.1467855 L0.495849581,3.37238627 C0.495849581,2.97908269 0.815831969,2.6591327 1.20910315,2.6591327 L8.25539009,2.6591327 C8.64869367,2.6591327 8.96864366,2.97911509 8.96864366,3.37238627 L8.96864366,13.1467855 L8.96864366,13.1467855 Z" id="Shape"></path>
                <path d="M8.38440688,9.00590366 L1.08008636,9.00590366 C0.943163964,9.00590366 0.832161568,9.11690605 0.832161568,9.25382845 C0.832161568,9.39075084 0.943163964,9.50175324 1.08008636,9.50175324 L8.38443928,9.50175324 C8.52136168,9.50175324 8.63236407,9.39075084 8.63236407,9.25382845 C8.63236407,9.11690605 8.52132928,9.00590366 8.38440688,9.00590366 Z" id="Path"></path>
                <path d="M7.22863412,10.4236628 L4.15860464,10.4236628 C4.02168225,10.4236628 3.91067985,10.5346652 3.91067985,10.6715876 C3.91067985,10.80851 4.02168225,10.9195124 4.15860464,10.9195124 L7.22863412,10.9195124 C7.36555652,10.9195124 7.47655892,10.80851 7.47655892,10.6715876 C7.47655892,10.5346652 7.36555652,10.4236628 7.22863412,10.4236628 Z" id="Path"></path>
                <path d="M3.33217787,10.4236628 L2.23579431,10.4236628 C2.09887192,10.4236628 1.98786952,10.5346652 1.98786952,10.6715876 C1.98786952,10.80851 2.09887192,10.9195124 2.23579431,10.9195124 L3.33217787,10.9195124 C3.46910027,10.9195124 3.58010266,10.80851 3.58010266,10.6715876 C3.58010266,10.5346652 3.46910027,10.4236628 3.33217787,10.4236628 Z" id="Path"></path>
                <path d="M7.22863412,11.3713952 L2.23579431,11.3713952 C2.09887192,11.3713952 1.98786952,11.4823976 1.98786952,11.61932 C1.98786952,11.7562424 2.09887192,11.8672447 2.23579431,11.8672447 L7.22863412,11.8672447 C7.36555652,11.8672447 7.47655892,11.7562424 7.47655892,11.61932 C7.47655892,11.4823652 7.36555652,11.3713952 7.22863412,11.3713952 Z" id="Path"></path>
                <path d="M7.22863412,12.3190951 L2.23579431,12.3190951 C2.09887192,12.3190951 1.98786952,12.4300975 1.98786952,12.5670199 C1.98786952,12.7039423 2.09887192,12.8149447 2.23579431,12.8149447 L7.22863412,12.8149447 C7.36555652,12.8149447 7.47655892,12.7039423 7.47655892,12.5670199 C7.47655892,12.4300975 7.36555652,12.3190951 7.22863412,12.3190951 Z" id="Path"></path>
            </g>
            <path d="M2.42999987,3.23999983 L2.42999987,8.09999957 L7.28999961,8.09999957 L7.28999961,3.23999983 L2.42999987,3.23999983 Z M6.13285979,5.22817974 L3.5871397,5.22817974 L3.5871397,4.56545972 L6.13285979,4.56545972 L6.13285979,5.22817974 Z" id="Shape"></path>
        </g>
    </g>
</svg>