<?xml version="1.0" encoding="UTF-8"?>
<svg width="60px" height="60px" viewBox="0 0 60 60" version="1.1" xmlns="http://www.w3.org/2000/svg" xmlns:xlink="http://www.w3.org/1999/xlink">
    <title>Group 5</title>
    <g id="Page-1" stroke="none" stroke-width="1" fill="none" fill-rule="evenodd">
        <g id="1-2_indicadores-eventos-copy-3" transform="translate(-1381.000000, -355.000000)" fill="#0054FE">
            <g id="Group-5" transform="translate(1381.000000, 355.000000)">
                <rect id="background-copy-2" opacity="0.066125" x="0" y="0" width="60" height="60" rx="6"></rect>
                <g id="parking" transform="translate(11.000000, 12.000000)" fill-rule="nonzero">
                    <polygon id="Path" points="11.5570127 12.6413114 0 12.6413114 0 19.2214359 15.9705584 19.2214359"></polygon>
                    <path d="M12.748217,23.3002751 C16.7053954,23.3002751 19.9248832,26.5196934 19.9248832,30.4769414 C19.9248832,30.7590302 19.9081792,31.0373607 19.876372,31.3110976 L24.691649,31.3110976 L24.691649,27.3159175 L21.4670108,27.3159175 L21.4670108,25.2279171 L24.691649,25.2279171 L24.691649,24.2326369 C24.691649,22.618195 23.3828903,21.3094363 21.7684484,21.3094363 L0,21.3094363 L0,31.3110976 L5.62006194,31.3110976 C5.58825474,31.0373607 5.57155073,30.7590998 5.57155073,30.477011 C5.57155073,26.519763 8.79096899,23.3002751 12.748217,23.3002751 Z" id="Path"></path>
                    <path d="M30.368435,15.6230456 L28.2804345,15.6230456 L28.2804345,33.5472068 L19.2328503,33.5472068 L16.8903922,33.5472068 C17.528346,32.6887602 17.9064828,31.6262464 17.9064828,30.4769414 C17.9064828,27.6326672 15.5924912,25.3186755 12.748217,25.3186755 C9.90394281,25.3186755 7.58995114,27.6326672 7.58995114,30.4769414 C7.58995114,31.6262464 7.96808802,32.6887602 8.60604175,33.5472068 L6.26358367,33.5472068 L-3.95630276e-15,33.5472068 L-3.95630276e-15,35.6352072 L35.6352072,35.6352072 L35.6352072,33.5472068 L30.368435,33.5472068 L30.368435,15.6230456 Z" id="Path"></path>
                    <path d="M29.4546564,4.36232009 L28.5138034,4.36232009 L28.5138034,6.30061088 C28.8676499,6.29887088 29.2301963,6.29747888 29.4546564,6.29747888 C30.0005293,6.29747888 30.4616294,5.85440519 30.4616294,5.32996908 C30.4616294,4.80539378 30.0005293,4.36232009 29.4546564,4.36232009 L29.4546564,4.36232009 Z" id="Path"></path>
                    <path d="M22.0305621,0 L22.0305621,13.6046452 L35.6352072,13.6046452 L35.6352072,0 L22.0305621,0 Z M29.4546564,8.3854097 C29.2340243,8.3854097 28.8694595,8.3868713 28.5138034,8.3886113 L28.5138034,11.2056023 L26.425803,11.2056023 L26.425803,2.27431966 L29.4546564,2.27431966 C31.1612487,2.27431966 32.5496298,3.64502234 32.5496298,5.32989948 C32.5496298,7.01477662 31.1612487,8.3854097 29.4546564,8.3854097 L29.4546564,8.3854097 Z" id="Shape"></path>
                </g>
            </g>
        </g>
    </g>
</svg>