<?xml version="1.0" encoding="UTF-8"?>
<svg width="68px" height="68px" viewBox="0 0 68 68" version="1.1" xmlns="http://www.w3.org/2000/svg" xmlns:xlink="http://www.w3.org/1999/xlink">
    <title>ic_recargas</title>
    <g id="ic_recargas" stroke="none" stroke-width="1" fill="none" fill-rule="evenodd">
        <g id="45efff0d17a53ed685be7f3d021afe75" transform="translate(8.000000, 8.000000)" fill="#1BC19B" fill-rule="nonzero">
            <g id="Group" transform="translate(26.000000, 26.868249) scale(-1, 1) rotate(-180.000000) translate(-26.000000, -26.868249) translate(0.000000, 0.868249)">
                <path d="M17.2625247,51.3880491 C16.9559247,51.3371241 16.3332747,51.1124241 15.8838747,50.8976991 C15.0874497,50.4992241 14.9031747,50.3259741 7.95794986,43.3597493 C0.348599994,35.7304494 0.522374991,35.9246994 0.154874997,34.5355494 C-0.161699997,33.3506244 0.0220499996,31.6349245 0.57382499,30.5318995 C0.951824984,29.7963745 3.79102494,26.8957495 17.5591497,13.1685748 C26.0872496,4.67092492 29.8966495,0.952874984 30.2646745,0.738674987 C31.8785245,-0.201074997 33.9827244,-0.242024996 35.6984244,0.60584999 C36.3830244,0.942899984 50.3039241,14.8128747 50.7737991,15.6197997 C51.7340241,17.2845747 51.6626241,19.7357997 50.6204991,21.3191996 C50.4262491,21.6053246 43.8285743,28.2749245 35.9535744,36.1593744 C21.6441746,50.4687741 21.6341996,50.4792741 20.7962996,50.8877241 C19.6423497,51.4494741 18.6007497,51.6027741 17.2625247,51.3880491 Z M19.5709497,49.1515492 C19.9384497,48.9677992 20.4592497,48.5693242 20.8886996,48.1304242 L21.6037496,47.4153742 L12.8194498,38.6310743 L4.03567493,29.8478245 L3.29017494,30.5933245 C2.32994996,31.5430495 2.00339997,32.1866995 2.00339997,33.1059744 C2.01337497,34.3927494 1.74824997,34.0866744 9.42847484,41.7773993 C13.2583498,45.6177742 16.5474747,48.8454742 16.7417247,48.9677992 C17.6709747,49.5494992 18.6516747,49.6214242 19.5709497,49.1515492 Z M43.8180743,25.0981496 C43.8180743,25.0367246 39.8858243,21.0635246 35.0852244,16.2634497 L26.3528996,7.53059987 L15.9652497,17.9282247 L5.56814991,28.3153495 L14.3519248,37.0991244 L23.1356996,45.8828992 L33.4718994,35.5466994 C39.1607993,29.8577995 43.8180743,25.1595746 43.8180743,25.0981496 Z M47.2090492,21.8095496 C49.1289742,19.8791247 49.4355742,19.4092497 49.4355742,18.3980997 C49.4355742,17.0908497 49.8235492,17.5502247 41.9894993,9.69622483 C36.6686244,4.35434993 34.7481744,2.49532496 34.3706994,2.29109996 C33.9622494,2.08687496 33.7065744,2.02544997 33.1448244,2.02544997 C31.9908745,2.01547497 31.6842745,2.20919996 29.6514745,4.24199993 L27.8843245,5.9986499 L36.6376494,14.7519747 C41.4587243,19.5725247 45.4214242,23.5152746 45.4518742,23.5152746 C45.4828492,23.5152746 46.2692992,22.7492996 47.2090492,21.8095496 Z" id="Shape"></path>
                <path d="M17.8547247,33.6572244 C17.3239497,33.0854994 17.3953497,32.5032744 18.0694497,31.8496495 L18.4679247,31.4616745 L18.1718247,30.8384995 C18.0185247,30.5014495 17.8242747,29.9601745 17.7633747,29.6535745 C17.6000997,28.8571495 17.7019497,27.4779745 17.9775747,26.7629245 C18.2636997,25.9864496 19.0396497,25.1390996 19.7956497,24.7710746 C20.3269497,24.5054246 20.4797247,24.4849496 21.5013746,24.4849496 C22.8700496,24.4849496 23.3703746,24.6382496 25.5869246,25.7207996 C27.4459495,26.6295745 28.1504995,26.8033495 28.8450745,26.5376995 C29.9176495,26.1292496 30.3875245,24.9238496 29.9685745,23.6780246 C29.7743245,23.1062996 28.8959995,22.1156246 28.2628495,21.7475996 C27.6601495,21.3900746 26.4652495,20.9816246 25.8215996,20.9102246 C24.9532496,20.7978746 24.6161996,20.6650496 24.4019996,20.3075247 C24.1673246,19.9195497 24.1568246,19.6234497 24.3715496,19.2144747 C24.5962496,18.7650747 25.0556246,18.6017997 25.8016496,18.7141497 C26.8946995,18.8674497 27.7730245,19.1430747 28.7841745,19.6334247 L29.7748495,20.1237747 L30.2546995,19.6743747 C30.6836245,19.2758997 30.7959745,19.2249747 31.2044245,19.2249747 C31.8580495,19.2249747 32.2769995,19.6234497 32.2769995,20.2466247 C32.2769995,20.6041496 32.2055995,20.7369746 31.8071245,21.1758746 L31.3272745,21.6761996 L31.6543495,22.3807496 C32.0932495,23.3304746 32.2570495,24.4744496 32.0832745,25.4246996 C31.8380995,26.8033495 31.2049495,27.7331245 30.1118995,28.3153495 C29.5606495,28.6114495 29.3459245,28.6728745 28.5899245,28.7033245 C27.3540745,28.7647495 26.3938496,28.4990995 24.3206246,27.5084245 C23.3913746,27.0689995 22.4001746,26.6505745 22.1245496,26.5891495 C21.4504496,26.4258745 20.8986746,26.5277245 20.4697497,26.9162245 C19.3257747,27.9068995 19.4281497,29.4593245 20.7044246,30.7460995 C21.4703996,31.5120745 22.0116746,31.7367745 23.0333246,31.7162995 C23.4827246,31.7063245 23.9830496,31.7467495 24.1363496,31.8081745 C24.8513996,32.0837995 24.9023246,33.3196494 24.2182496,33.6771744 C23.4622496,34.0651494 21.9203246,33.9118494 20.6534996,33.3196494 L19.9893747,33.0130494 L19.4990247,33.4724244 C19.0700997,33.8708994 18.9472497,33.9318127 18.5592747,33.9318127 C18.2122497,33.9328494 18.0589497,33.8719494 17.8547247,33.6572244 Z" id="Path"></path>
                <path d="M38.5171493,15.0275997 C37.7406744,14.8028997 36.9137994,14.0573998 36.5562744,13.2604498 C35.9840244,11.9941498 36.7195494,10.3393498 38.1496494,9.66524984 C38.8851743,9.31769984 39.5387993,9.33817484 40.3252493,9.73664983 C41.7653243,10.4516998 42.3984743,12.0245998 41.7758243,13.3318498 C41.4592493,13.9959748 40.5704243,14.7923997 39.9167993,14.9866497 C39.3240743,15.1604247 39.0174743,15.1703997 38.5171493,15.0275997 Z M39.7529993,12.7700998 C39.7939493,12.6986998 39.8348993,12.4430248 39.8348993,12.2083498 C39.8348993,11.7284998 39.6611243,11.5646998 39.1298243,11.5646998 C38.7213743,11.5646998 38.5066493,11.8098748 38.5066493,12.2797498 C38.5066493,12.5758498 38.5680743,12.7191748 38.7413243,12.8414998 C38.9969993,13.0257748 39.6101993,12.9848248 39.7529993,12.7700998 Z" id="Shape"></path>
                <path d="M33.2062494,51.1633491 C32.8896744,50.9690991 32.6954244,50.6115741 32.6854494,50.1931491 C32.6854494,49.9379991 32.7673494,49.7642242 33.0224994,49.5190492 L33.3495744,49.1819992 L34.7282244,49.1205742 C37.0366494,49.0286992 38.8746743,48.5687992 40.9074743,47.5781242 C44.8192492,45.6681742 47.6993992,42.0220493 48.6800992,37.7422494 C48.8228992,37.1190744 48.9761992,35.9346744 49.0481242,35.0153994 C49.1604742,33.5753244 49.2014242,33.3605994 49.4056492,33.1154244 C49.8959992,32.5331994 50.8357491,32.6864994 51.1418241,33.3910494 C51.4583991,34.1470494 51.0604491,37.4660994 50.4062991,39.4169993 C48.4249492,45.3101242 43.4815493,49.7122492 37.4041494,50.9890491 C36.0963744,51.2657241 33.5632494,51.3675741 33.2062494,51.1633491 Z" id="Path"></path>
                <path d="M32.3683494,44.9741242 C31.7656495,44.3714242 32.0927245,43.3093493 32.9300994,43.1870243 C33.1038744,43.1565743 33.7065744,43.1156243 34.2683244,43.0846493 C39.1098743,42.8189993 42.7764743,39.0400493 43.0620743,34.0352244 C43.1334743,32.7788994 43.2358493,32.4418494 43.6238243,32.2475995 C44.0732242,32.0129245 44.4921742,32.0533495 44.8596742,32.3903994 C45.1457992,32.6455494 45.1862242,32.7479244 45.2271742,33.3506244 C45.2476492,33.7081494 45.2171992,34.4126994 45.1557742,34.8930744 C44.3792992,40.6943243 39.3235493,45.2702242 33.6860994,45.2702242 C32.6954244,45.2702242 32.6649744,45.2597242 32.3683494,44.9741242 Z" id="Path"></path>
                <path d="M6.79349988,19.3378497 C6.68114989,19.2869247 6.49739989,19.1435997 6.38504989,19.0212747 C6.1094249,18.7146747 6.0579749,17.6016747 6.27269989,16.2944247 C7.00822488,11.6266498 10.5519748,7.72537487 15.1278747,6.56092489 C16.2718497,6.26482489 18.0899247,6.1015499 18.5393247,6.25432489 C19.3257747,6.50947489 19.5604497,7.39829987 19.0091997,8.01097486 C18.7230747,8.33804986 18.7130997,8.33804986 17.4058497,8.40944986 C15.9043497,8.50132486 14.8627497,8.73652485 13.7597248,9.24682484 C10.4810998,10.7582998 8.50972486,13.7712748 8.30549986,17.5811997 C8.24407486,18.6432747 8.22359986,18.7760997 7.97894986,19.0417497 C7.69229987,19.3583247 7.15102488,19.4911497 6.79349988,19.3378497 Z" id="Path"></path>
                <path d="M0.552824991,18.5309247 C0.0729749988,18.1429497 0.00104999998,17.5706997 0.215774996,15.6712497 C0.634724989,11.8103998 2.24804996,8.35799986 4.89352492,5.6106749 C7.47757487,2.93474995 10.3886998,1.29044998 13.9119748,0.524474991 C15.1577997,0.258824996 17.7728247,0.136499998 18.1403247,0.340724994 C18.7325247,0.657299989 18.8653497,1.46422498 18.3954747,1.98502497 L18.0993747,2.31209996 L16.6897497,2.38349996 C15.9032997,2.42444996 14.8616997,2.52629996 14.3508748,2.62867496 C9.72509983,3.49649994 5.8133249,6.45854989 3.83144993,10.5950248 C2.88172495,12.5658748 2.50372496,14.0878498 2.30999996,16.5390747 C2.18767496,18.1833747 2.17717496,18.2342997 1.90154997,18.4694997 C1.56397497,18.7655997 0.879899985,18.7965747 0.552824991,18.5309247 Z" id="Path"></path>
            </g>
        </g>
    </g>
</svg>