<?xml version="1.0" encoding="UTF-8"?>
<svg width="20px" height="20px" viewBox="0 0 20 20" version="1.1" xmlns="http://www.w3.org/2000/svg" xmlns:xlink="http://www.w3.org/1999/xlink">
    <title>ic_relatorio</title>
    <g id="ic_relatorio" stroke="none" stroke-width="1" fill="none" fill-rule="evenodd">
        <path d="M9.30236219,16.4140625 C9.30236219,16.7377014 9.04984777,17 8.73828111,17 L6.25632434,17 C5.01215097,17 4,15.9486313 4,14.65625 L4,4.34375 C4,3.05136872 5.01215097,2 6.25632434,2 L13.1914369,2 C14.4355001,2 15.4477612,3.05136872 15.4477612,4.34375 L15.4477612,9.93945312 C15.4477612,10.263092 15.1951366,10.5253906 14.8836801,10.5253906 C14.5721134,10.5253906 14.319599,10.263092 14.319599,9.93945312 L14.319599,4.34375 C14.319599,3.69761656 13.8134684,3.171875 13.1914369,3.171875 L6.25632434,3.171875 C5.63429272,3.171875 5.12816217,3.69761656 5.12816217,4.34375 L5.12816217,14.65625 C5.12816217,15.3023834 5.63429272,15.828125 6.25632434,15.828125 L8.73828111,15.828125 C9.04984777,15.828125 9.30236219,16.0904236 9.30236219,16.4140625 Z M12.7455406,5.6 L6.89625046,5.6 C6.58257872,5.6 6.32835821,5.86859375 6.32835821,6.2 C6.32835821,6.53140625 6.58257872,6.8 6.89625046,6.8 L12.7455406,6.8 C13.0591014,6.8 13.3134328,6.53140625 13.3134328,6.2 C13.3134328,5.86859375 13.0591014,5.6 12.7455406,5.6 Z M13.3134328,8.4 C13.3134328,8.06859375 13.0591014,7.8 12.7455406,7.8 L6.89625046,7.8 C6.58257872,7.8 6.32835821,8.06859375 6.32835821,8.4 C6.32835821,8.73140625 6.58257872,9 6.89625046,9 L12.7455406,9 C13.0591014,9 13.3134328,8.73140625 13.3134328,8.4 Z M6.88995209,10.2 C6.57975922,10.2 6.32835821,10.4685937 6.32835821,10.8 C6.32835821,11.1314062 6.57975922,11.4 6.88995209,11.4 L9.84139119,11.4 C10.1515841,11.4 10.4029851,11.1314062 10.4029851,10.8 C10.4029851,10.4685937 10.1515841,10.2 9.84139119,10.2 L6.88995209,10.2 Z M16.8952052,14.531846 C16.8749387,14.5608247 16.8054697,14.6592622 16.762347,14.7137242 C16.5692523,14.9569426 16.1173091,15.5262564 15.4884844,16.0288177 C14.6822151,16.6732281 13.8525268,17 13.0223881,17 C12.1922494,17 11.362561,16.6732281 10.5562917,16.0288177 C9.92746702,15.5262564 9.47552386,14.9568299 9.28254168,14.7137242 C9.23930646,14.6592622 9.16983738,14.560712 9.14957087,14.531846 C9.00984453,14.3327158 9.00984453,14.0671714 9.14957087,13.8680412 C9.16983738,13.8391753 9.23930646,13.740625 9.28254168,13.686163 C9.47552386,13.4430574 9.92746702,12.8737436 10.5562917,12.3711823 C11.362561,11.7267719 12.1922494,11.4 13.0223881,11.4 C13.8525268,11.4 14.6822151,11.7267719 15.4884844,12.3711823 C16.1173091,12.8737436 16.5692523,13.4431701 16.7622344,13.6862758 C16.8054697,13.7407378 16.8749387,13.839288 16.8952052,13.868154 C17.0349316,14.0672842 17.0349316,14.3327158 16.8952052,14.531846 Z M15.8358209,14.1 C14.9366954,12.9716763 14.0563454,12.4 13.2164179,12.4 C12.3766009,12.4 11.4961404,12.9715597 10.5970149,14.1 C11.4961404,15.2283237 12.3764904,15.8 13.2164179,15.8 C14.0563454,15.8 14.9366954,15.2284403 15.8358209,14.1 L15.8358209,14.1 Z M13.2164179,13 C12.6269984,13 12.1492537,13.4924445 12.1492537,14.1 C12.1492537,14.7075555 12.6269984,15.2 13.2164179,15.2 C13.8058374,15.2 14.2835821,14.7075555 14.2835821,14.1 C14.2835821,13.4924445 13.8058374,13 13.2164179,13 Z" id="Shape-Copy-3" fill="#515253" fill-rule="nonzero"></path>
    </g>
</svg>