<?xml version="1.0" encoding="UTF-8"?>
<svg width="50px" height="50px" viewBox="0 0 50 50" version="1.1" xmlns="http://www.w3.org/2000/svg" xmlns:xlink="http://www.w3.org/1999/xlink">
    <title>ic_sangria</title>
    <g id="ic_sangria" stroke="none" stroke-width="1" fill="none" fill-rule="evenodd">
        <g id="pay-(4)" transform="translate(3.000000, 0.000000)" fill="#E41743" fill-rule="nonzero">
            <path d="M34.683046,32.3999991 C33.9472256,32.3999991 33.2553507,32.6865226 32.7339836,33.2071866 L32.0702336,33.8716397 L31.9246867,33.2912101 C31.6870304,32.3423429 30.8390617,31.6799992 29.8613664,31.6799992 C28.916718,31.6799992 28.0757805,32.3142179 27.8163273,33.2230069 L26.8171868,36.719999 L22.4085932,36.719999 L20.5270307,36.2506631 C20.3111714,36.1965225 20.1599995,36.0021085 20.1599995,35.7795693 C20.1599995,35.6494913 20.2102729,35.5278506 20.3016792,35.4360928 L22.9521088,32.7853116 C23.4734759,32.2646476 23.7599994,31.5734757 23.7599994,30.8362492 C23.7599994,29.3167961 22.5239057,28.0799993 21.0030464,28.0799993 C20.267226,28.0799993 19.575351,28.3665227 19.0539839,28.8871867 L13.0837497,34.8581241 C12.8109372,35.1302335 12.4495309,35.2799991 12.0649216,35.2799991 L7.19999981,35.2799991 L7.19999981,34.5599991 C7.19999981,33.7658194 6.55417954,33.1199991 5.75999985,33.1199991 L1.43999996,33.1199991 C0.645820273,33.1199991 -5.11590756e-15,33.7658194 -5.11590756e-15,34.5599991 L-5.11590756e-15,43.1999989 C-5.11590756e-15,43.9941785 0.645820273,44.6399988 1.43999996,44.6399988 L5.75999985,44.6399988 C6.55417954,44.6399988 7.19999981,43.9941785 7.19999981,43.1999989 L23.2407416,43.1999989 C23.6295697,43.1999989 24.0198041,43.1648426 24.4001946,43.0948816 L30.7023039,41.9494911 C31.5706632,41.7909364 32.3588664,41.3785536 32.9839444,40.7534755 L36.6314053,37.1053115 C37.1534756,36.5846475 37.439999,35.8934756 37.439999,35.1562491 C37.439999,33.636796 36.2039053,32.3999991 34.683046,32.3999991 Z M5.75999985,43.1999989 L4.31999989,43.1999989 L4.31999989,41.0399989 L2.87999992,41.0399989 L2.87999992,43.1999989 L1.43999996,43.1999989 L1.43999996,34.5599991 L2.87999992,34.5599991 L2.87999992,39.599999 L4.31999989,39.599999 L4.31999989,34.5599991 L5.75999985,34.5599991 L5.75999985,43.1999989 Z M29.201132,33.6174601 C29.2844523,33.3246085 29.5558586,33.1199991 29.8613664,33.1199991 C30.176718,33.1199991 30.4509367,33.3344522 30.5279289,33.6406631 L30.883007,35.0595694 L29.4328117,36.5097646 C29.296757,36.6451162 29.1153508,36.719999 28.9230462,36.719999 L28.3141398,36.719999 L29.201132,33.6174601 Z M35.6139835,36.0871865 L31.9658194,39.7353505 C31.5488664,40.1516005 31.0225773,40.4272255 30.4446086,40.5323427 L24.1414447,41.6787879 C23.8464838,41.732577 23.5434369,41.7599989 23.2407416,41.7599989 L7.19999981,41.7599989 L7.19999981,36.719999 L12.0649216,36.719999 C12.8341402,36.719999 13.5569527,36.4204678 14.1018746,35.876249 L20.0721089,29.9053117 C20.3213667,29.656757 20.6518354,29.5199992 21.0030464,29.5199992 C21.729726,29.5199992 22.3199994,30.1102727 22.3199994,30.8362492 C22.3199994,31.1825382 22.179726,31.5214445 21.9339838,31.7671867 L19.2839057,34.4172647 C18.9200385,34.7811319 18.7199995,35.2648819 18.7199995,35.7788663 C18.7199995,36.663749 19.3197651,37.431913 20.1779292,37.6467178 L22.1449213,38.1385537 L28.9230462,38.159999 C29.4999602,38.159999 30.0427727,37.9353505 30.4509367,37.5271865 L33.7521085,34.2253116 C34.0013663,33.9767569 34.3318351,33.8399991 34.683046,33.8399991 C35.4097256,33.8399991 35.999999,34.4302725 35.999999,35.1562491 C35.999999,35.5032413 35.8597256,35.8414443 35.6139835,36.0871865 L35.6139835,36.0871865 Z" id="Shape"></path>
            <path d="M43.1999989,4.31999989 L41.7599989,4.31999989 C40.9658192,4.31999989 40.3199989,4.96582016 40.3199989,5.75999985 L37.8432412,5.75999985 C37.6421475,5.75999985 37.4428115,5.73187485 37.2498037,5.67632793 L32.9867569,4.45957017 C32.6650772,4.36675767 32.3314444,4.31999989 31.9967569,4.31999989 L30.2399992,4.31999989 L30.2399992,0 L0,0 L0,18.7199995 L22.3199994,18.7199995 L22.3199994,23.7599994 L19.8618745,23.7599994 L25.1999993,29.0981242 L30.5381242,23.7599994 L28.0799993,23.7599994 L28.0799993,18.7199995 L30.2399992,18.7199995 L30.2399992,16.4714058 L30.9311711,16.7487886 C32.8816397,17.5285542 35.1094913,17.4505073 37.0634756,16.4735151 C37.8907021,16.059023 38.8188271,15.8399996 39.7462489,15.8399996 L40.3199989,15.8399996 C40.3199989,16.6341793 40.9658192,17.2799995 41.7599989,17.2799995 L43.1999989,17.2799995 C43.9941785,17.2799995 44.6399988,16.6341793 44.6399988,15.8399996 L44.6399988,5.75999985 C44.6399988,4.96582016 43.9941785,4.31999989 43.1999989,4.31999989 Z M27.0618743,25.1999993 L25.1999993,27.0618743 L23.3381244,25.1999993 L23.7599994,25.1999993 L23.7599994,18.7199995 L26.6399993,18.7199995 L26.6399993,25.1999993 L27.0618743,25.1999993 Z M28.7999992,17.2799995 L1.43999996,17.2799995 L1.43999996,1.43999996 L28.7999992,1.43999996 L28.7999992,10.7999997 L23.7599994,10.7999997 C23.4527338,10.7999997 23.1588275,10.8502732 22.8730072,10.9237497 C22.9774213,10.4111716 23.0399994,9.89050753 23.0399994,9.35999975 C23.0399994,4.99324208 19.4867573,1.43999996 15.1199996,1.43999996 C10.7532419,1.43999996 7.19999981,4.99324208 7.19999981,9.35999975 C7.19999981,13.7267574 10.7532419,17.2799995 15.1199996,17.2799995 C17.1035151,17.2799995 18.9864839,16.5332808 20.42789,15.2300386 C20.6883979,15.5981246 21.1155464,15.8399996 21.5999994,15.8399996 L27.5062493,15.8399996 C27.9439445,15.8399996 28.376718,15.8867574 28.7999992,15.980273 L28.7999992,17.2799995 Z M15.1199996,15.8399996 C11.5474216,15.8399996 8.63999977,12.9332809 8.63999977,9.35999975 C8.63999977,5.7867186 11.5474216,2.87999992 15.1199996,2.87999992 C18.6925776,2.87999992 21.5999994,5.7867186 21.5999994,9.35999975 C21.5999994,10.3443747 21.3760541,11.2960544 20.9390619,12.1911325 C20.7267182,12.4618356 20.5474214,12.7560934 20.4183979,13.0809372 C19.2023432,14.8074606 17.2297261,15.8399996 15.1199996,15.8399996 Z M39.7462489,14.3999996 C38.596288,14.3999996 37.445624,14.6714059 36.3758193,15.206484 C34.8637491,15.9637496 33.0380851,16.0400386 31.4662492,15.4107418 L30.2681242,14.9312106 C29.3853508,14.5785934 28.4565227,14.3999996 27.5062493,14.3999996 L21.5999994,14.3999996 C21.5999994,13.2092574 22.5692572,12.2399997 23.7599994,12.2399997 L30.2399992,12.2399997 L30.2399992,5.75999985 L31.9967569,5.75999985 C32.1978507,5.75999985 32.3971866,5.78812485 32.5901944,5.84367177 L36.8532412,7.06042952 C37.1749209,7.15324202 37.5085537,7.19999981 37.8432412,7.19999981 L40.3199989,7.19999981 L40.3199989,14.3999996 L39.7462489,14.3999996 Z M41.7599989,15.8399996 L41.7599989,5.75999985 L43.1999989,5.75999985 L43.2007019,15.8399996 L41.7599989,15.8399996 Z" id="Shape"></path>
            <path d="M14.3999996,7.19999981 L15.8399996,7.19999981 C16.2365621,7.19999981 16.5599996,7.52273422 16.5599996,7.91999979 L17.9999995,7.91999979 C17.9999995,6.72925761 17.0307418,5.75999985 15.8399996,5.75999985 L15.8399996,4.31999989 L14.3999996,4.31999989 L14.3999996,5.75999985 C13.2092574,5.75999985 12.2399997,6.72925761 12.2399997,7.91999979 C12.2399997,9.11074197 13.2092574,10.0799997 14.3999996,10.0799997 L15.8399996,10.0799997 C16.2365621,10.0799997 16.5599996,10.4027341 16.5599996,10.7999997 C16.5599996,11.1972653 16.2365621,11.5199997 15.8399996,11.5199997 L14.3999996,11.5199997 C14.0034371,11.5199997 13.6799996,11.1972653 13.6799996,10.7999997 L12.2399997,10.7999997 C12.2399997,11.9907419 13.2092574,12.9599997 14.3999996,12.9599997 L14.3999996,14.3999996 L15.8399996,14.3999996 L15.8399996,12.9599997 C17.0307418,12.9599997 17.9999995,11.9907419 17.9999995,10.7999997 C17.9999995,9.60925754 17.0307418,8.63999977 15.8399996,8.63999977 L14.3999996,8.63999977 C14.0034371,8.63999977 13.6799996,8.31726536 13.6799996,7.91999979 C13.6799996,7.52273422 14.0034371,7.19999981 14.3999996,7.19999981 Z" id="Path"></path>
            <polygon id="Path" points="25.9199993 5.75999985 27.3599993 5.75999985 27.3599993 2.87999992 24.4799994 2.87999992 24.4799994 4.31999989 25.9199993 4.31999989"></polygon>
            <polygon id="Path" points="2.87999992 5.75999985 4.31999989 5.75999985 4.31999989 4.31999989 5.75999985 4.31999989 5.75999985 2.87999992 2.87999992 2.87999992"></polygon>
            <polygon id="Path" points="4.31999989 12.9599997 2.87999992 12.9599997 2.87999992 15.8399996 5.75999985 15.8399996 5.75999985 14.3999996 4.31999989 14.3999996"></polygon>
            <polygon id="Path" points="35.999999 24.4799994 37.439999 24.4799994 37.439999 29.5199992 35.999999 29.5199992"></polygon>
            <polygon id="Path" points="35.999999 21.5999994 37.439999 21.5999994 37.439999 23.0399994 35.999999 23.0399994"></polygon>
            <polygon id="Path" points="35.999999 18.7199995 37.439999 18.7199995 37.439999 20.1599995 35.999999 20.1599995"></polygon>
            <polygon id="Path" points="33.1199991 24.4799994 34.5599991 24.4799994 34.5599991 30.2399992 33.1199991 30.2399992"></polygon>
            <polygon id="Path" points="33.1199991 21.5999994 34.5599991 21.5999994 34.5599991 23.0399994 33.1199991 23.0399994"></polygon>
        </g>
    </g>
</svg>