<?xml version="1.0" encoding="UTF-8"?>
<svg width="68px" height="68px" viewBox="0 0 68 68" version="1.1" xmlns="http://www.w3.org/2000/svg" xmlns:xlink="http://www.w3.org/1999/xlink">
    <title>ic_total-receita</title>
    <g id="ic_total-receita" stroke="none" stroke-width="1" fill="none" fill-rule="evenodd">
        <g id="transaction-copy" transform="translate(25.000000, 14.000000)" fill="#10B862" fill-rule="nonzero" stroke="#10B862">
            <path d="M8.80708,18.84708 C5.09572,18.84708 2.08708,15.83844 2.08708,12.12708 C2.08708,8.41572 5.09572,5.40708 8.80708,5.40708 C12.51664,5.41128 15.52288,8.41752 15.52708,12.12708 L17.44708,12.12708 C17.44072,7.72992 14.13652,4.03704 9.76708,3.54372 L9.76708,0.60708 L7.84708,0.60708 L7.84708,3.54372 C3.1066,4.089 -0.29432,8.37396 0.25096,13.11444 C0.75136,17.46504 4.4278,20.75328 8.80708,20.76708 C12.51844,20.76708 15.52708,23.77572 15.52708,27.48708 C15.52708,31.19844 12.51844,34.20708 8.80708,34.20708 C5.09572,34.20708 2.08708,31.19844 2.08708,27.48708 L0.16708,27.48708 C0.17344,31.88424 3.47764,35.57712 7.84708,36.07044 L7.84708,39.00708 L9.76708,39.00708 L9.76708,36.07044 C14.50756,35.52516 17.90848,31.2402 17.3632,26.49972 C16.86268,22.149 13.18636,18.86088 8.80708,18.84708 Z" id="Path"></path>
        </g>
        <circle id="Oval" stroke="#10B862" stroke-width="3" cx="34" cy="34" r="29"></circle>
    </g>
</svg>