<?xml version="1.0" encoding="UTF-8"?>
<svg width="50px" height="50px" viewBox="0 0 50 50" version="1.1" xmlns="http://www.w3.org/2000/svg" xmlns:xlink="http://www.w3.org/1999/xlink">
    <title>ic_total-extornos</title>
    <g id="ic_total-extornos" stroke="none" stroke-width="1" fill="none" fill-rule="evenodd">
        <g id="transfer---coÌpia-3" transform="translate(3.000000, 1.000000)" fill="#5BDB6E" fill-rule="nonzero">
            <path d="M21.6074219,17.9574219 C18.5148438,17.9574219 16.0074219,20.4648438 16.0074219,23.5574219 C16.0074219,26.6503906 18.5148438,29.1574219 21.6074219,29.1574219 C24.7003906,29.1574219 27.2074219,26.6503906 27.2074219,23.5574219 C27.2039062,20.4664062 24.6988281,17.9609375 21.6074219,17.9574219 L21.6074219,17.9574219 Z M21.6074219,27.5574219 C19.3984375,27.5574219 17.6074219,25.7667969 17.6074219,23.5574219 C17.6074219,21.3484375 19.3984375,19.5574219 21.6074219,19.5574219 C23.8167969,19.5574219 25.6074219,21.3484375 25.6074219,23.5574219 C25.6050781,25.765625 23.815625,27.5550781 21.6074219,27.5574219 L21.6074219,27.5574219 Z" id="Shape"></path>
            <path d="M4.8074219,15.5574219 L6.4074219,15.5574219 L6.4074219,13.9574219 L4.0074219,13.9574219 C3.565625,13.9574219 3.2074219,14.315625 3.2074219,14.7574219 L3.2074219,17.1574219 L4.8074219,17.1574219 L4.8074219,15.5574219 Z" id="Path"></path>
            <path d="M4.8074219,29.9574219 L3.2074219,29.9574219 L3.2074219,32.3574219 C3.2074219,32.7996094 3.565625,33.1574219 4.0074219,33.1574219 L6.4074219,33.1574219 L6.4074219,31.5574219 L4.8074219,31.5574219 L4.8074219,29.9574219 Z" id="Path"></path>
            <path d="M0.00742188,11.5574219 L0.00742188,35.5574219 C0.00742188,35.9996094 0.365625,36.3574219 0.8074219,36.3574219 L42.4074219,36.3574219 C42.8496094,36.3574219 43.2074219,35.9996094 43.2074219,35.5574219 L43.2074219,11.5574219 C43.2074219,11.115625 42.8496094,10.7574219 42.4074219,10.7574219 L0.8074219,10.7574219 C0.365625,10.7574219 0.00742188,11.115625 0.00742188,11.5574219 Z M1.6074219,12.3574219 L41.6074219,12.3574219 L41.6074219,34.7574219 L1.6074219,34.7574219 L1.6074219,12.3574219 Z" id="Shape"></path>
            <path d="M39.2074219,19.5574219 C36.5578125,19.5550781 34.4101562,17.4074219 34.4074219,14.7574219 C34.4074219,14.315625 34.0496094,13.9574219 33.6074219,13.9574219 L9.6074219,13.9574219 C9.165625,13.9574219 8.8074219,14.315625 8.8074219,14.7574219 C8.8050781,17.4074219 6.6574219,19.5550781 4.0074219,19.5574219 C3.565625,19.5574219 3.2074219,19.915625 3.2074219,20.3574219 L3.2074219,26.7574219 C3.2074219,27.1996094 3.565625,27.5574219 4.0074219,27.5574219 C6.6574219,27.5601562 8.8050781,29.7078125 8.8074219,32.3574219 C8.8074219,32.7996094 9.165625,33.1574219 9.6074219,33.1574219 L33.6074219,33.1574219 C34.0496094,33.1574219 34.4074219,32.7996094 34.4074219,32.3574219 C34.4101562,29.7078125 36.5578125,27.5601562 39.2074219,27.5574219 C39.6496094,27.5574219 40.0074219,27.1996094 40.0074219,26.7574219 L40.0074219,20.3574219 C40.0074219,19.915625 39.6496094,19.5574219 39.2074219,19.5574219 Z M38.4074219,26.0070312 C35.509375,26.3773438 33.2273438,28.659375 32.8570312,31.5574219 L10.3578125,31.5574219 C9.9875,28.659375 7.7058594,26.3773438 4.8074219,26.0070312 L4.8074219,21.1078125 C7.7058594,20.7375 9.9875,18.4558594 10.3578125,15.5574219 L32.8570312,15.5574219 C33.2273438,18.4558594 35.509375,20.7375 38.4074219,21.1078125 L38.4074219,26.0070312 Z" id="Shape"></path>
            <path d="M39.2074219,13.9574219 L36.8074219,13.9574219 L36.8074219,15.5574219 L38.4074219,15.5574219 L38.4074219,17.1574219 L40.0074219,17.1574219 L40.0074219,14.7574219 C40.0074219,14.315625 39.6496094,13.9574219 39.2074219,13.9574219 Z" id="Path"></path>
            <path d="M38.4074219,31.5574219 L36.8074219,31.5574219 L36.8074219,33.1574219 L39.2074219,33.1574219 C39.6496094,33.1574219 40.0074219,32.7996094 40.0074219,32.3574219 L40.0074219,29.9574219 L38.4074219,29.9574219 L38.4074219,31.5574219 Z" id="Path"></path>
            <path d="M10.8074219,4.8480469 L11.6074219,6.2320312 C17.0484375,3.0945312 23.6472656,2.6953125 29.4269531,5.1535156 L26.05,6.8414062 L26.7652344,8.2734375 L31.5652344,5.8734375 C31.7558594,5.7796875 31.9011719,5.6132812 31.9691406,5.4121094 C32.0371094,5.2105469 32.0222656,4.9902344 31.9277344,4.8 L29.5277344,0 L28.0957031,0.7152344 L29.4554688,3.4351562 C23.3476562,1.05 16.4867188,1.5695312 10.8074219,4.8480469 L10.8074219,4.8480469 Z" id="Path"></path>
            <path d="M31.6074219,41.4671875 L30.8074219,40.0832031 C25.3667969,43.2203125 18.7683594,43.6199219 12.9890625,41.1617188 L16.3660156,39.4734375 L15.6507812,38.0414062 L10.8507812,40.4414062 C10.4550781,40.6390625 10.2945312,41.1199219 10.4925781,41.5152344 L12.8925781,46.3152344 L14.3242188,45.6 L12.9644531,42.8800781 C19.0710938,45.2636719 25.9300781,44.7441406 31.6074219,41.4671875 Z" id="Path"></path>
        </g>
    </g>
</svg>