<?xml version="1.0" encoding="UTF-8"?>
<svg width="50px" height="50px" viewBox="0 0 50 50" version="1.1" xmlns="http://www.w3.org/2000/svg" xmlns:xlink="http://www.w3.org/1999/xlink">
    <title>ic_total</title>
    <g id="ic_total" stroke="none" stroke-width="1" fill="none" fill-rule="evenodd">
        <g id="payment" transform="translate(3.000000, 3.000000)" fill="#1FAA34" fill-rule="nonzero">
            <path d="M22.1972,20.0018 C21.0944,20.0018 20.1972,19.1046 20.1972,18.0018 C20.1972,16.899 21.0944,16.0018 22.1972,16.0018 C22.9056,16.0018 23.6538,16.3632 24.3602,17.0472 C25.154,17.8154 26.42,17.7946 27.188,17.0006 C27.956,16.2068 27.9352,14.9408 27.1414,14.1728 C26.1264,13.1906 25.1108,12.6352 24.1968,12.3318 L24.1968,10.0022 C24.1968,8.8976 23.3014,8.0024 22.1968,8.0024 C21.0922,8.0024 20.1968,8.8978 20.1968,10.0022 L20.1968,12.346 C17.8692,13.1716 16.197,15.3944 16.197,18.0018 C16.197,21.31 18.8884,24.0014 22.1966,24.0014 C23.2994,24.0014 24.1966,24.8986 24.1966,26.0014 C24.1966,27.1042 23.2994,28.0014 22.1966,28.0014 C21.3422,28.0014 20.4198,27.464 19.5996,26.4884 C18.8888,25.6428 17.6276,25.5336 16.782,26.2446 C15.9364,26.9554 15.8274,28.217 16.5382,29.0622 C17.6074,30.334 18.8644,31.22 20.1968,31.6668 L20.1968,34.0008 C20.1968,35.1054 21.0922,36.0006 22.1968,36.0006 C23.3014,36.0006 24.1966,35.1052 24.1966,34.0008 L24.1966,31.657 C26.5242,30.8314 28.1964,28.6086 28.1964,26.0012 C28.1968,22.6932 25.5054,20.0018 22.1972,20.0018 Z" id="Path"></path>
            <path d="M22.1972,0.0028 C10.067,0.0028 0.1984,9.8716 0.1984,22.0016 C0.1984,34.1316 10.0672,44.0004 22.1972,44.0004 C34.3274,44.0004 44.196,34.1316 44.196,22.0016 C44.196,9.8716 34.3274,0.0028 22.1972,0.0028 Z M22.1984,41.0028 C11.7218513,41.0028 3.1984,32.4793487 3.1984,22.0028 C3.1984,11.5262513 11.7218513,3.0028 22.1984,3.0028 C32.6749487,3.0028 41.1984,11.5262513 41.1984,22.0028 C41.1984,32.4793487 32.6749487,41.0028 22.1984,41.0028 Z" id="Shape"></path>
        </g>
    </g>
</svg>