<?xml version="1.0" encoding="UTF-8"?>
<svg width="50px" height="50px" viewBox="0 0 50 50" version="1.1" xmlns="http://www.w3.org/2000/svg" xmlns:xlink="http://www.w3.org/1999/xlink">
    <title>ic_total-credito</title>
    <g id="ic_total-credito" stroke="none" stroke-width="1" fill="none" fill-rule="evenodd">
        <path d="M43.4295006,10 L6.5704994,10 C4.59783946,10 3,11.5926522 3,13.558908 L3,17.4864756 L3,22.3726296 L3,36.4410932 C3,38.407349 4.59783946,40 6.5704994,40 L43.4295006,40 C45.4021605,40 47,38.407349 47,36.4410932 L47,22.3676855 L47,17.4815315 L47,13.5539639 C46.9950398,11.5926522 45.3972003,10 43.4295006,10 Z M6.5704994,11.9613117 L43.4295006,11.9613117 C44.2826593,11.9613117 45.0273401,12.6494762 45.0273401,13.5539639 L45.0273401,16.5278892 L4.97265995,16.5278892 L4.97265995,13.5539639 C4.97265995,12.708519 5.66802599,11.9613117 6.5704994,11.9613117 Z M45.0273401,21.3599445 L4.97265995,21.3599445 L4.97265995,18.4400463 L45.0273401,18.4400463 L45.0273401,21.3599445 L45.0273401,21.3599445 Z M43.4295006,38.0288012 L6.5704994,38.0288012 C5.71734069,38.0288012 4.97265995,37.3406368 4.97265995,36.436149 L4.97265995,23.3262003 L45.0273401,23.3262003 L45.0273401,36.3869944 C45.0273401,37.286538 44.331974,38.0288012 43.4295006,38.0288012 Z M40.4458174,28.5810139 C40.4458174,29.1118979 40.0216822,29.5346562 39.489069,29.5346562 L29.2609412,29.5346562 C28.728328,29.5346562 28.3041928,29.1118979 28.3041928,28.5810139 C28.3041928,28.0501298 28.728328,27.6273716 29.2609412,27.6273716 L39.434866,27.6273716 C39.9674792,27.5733445 40.4458174,27.9960311 40.4458174,28.5810139 Z M40.4458174,33.7817287 C40.4458174,34.3126128 40.0216822,34.735371 39.489069,34.735371 L33.6303244,34.735371 C33.0977112,34.735371 32.673576,34.3126128 32.673576,33.7817287 C32.673576,33.2508446 33.0977112,32.8280864 33.6303244,32.8280864 L39.489069,32.8280864 C39.9674792,32.8280864 40.4458174,33.2508446 40.4458174,33.7817287 Z" id="Shape" fill="#E41743" fill-rule="nonzero"></path>
    </g>
</svg>