<?xml version="1.0" encoding="UTF-8"?>
<svg width="50px" height="50px" viewBox="0 0 50 50" version="1.1" xmlns="http://www.w3.org/2000/svg" xmlns:xlink="http://www.w3.org/1999/xlink">
    <title>ic_total-debito</title>
    <g id="ic_total-debito" stroke="none" stroke-width="1" fill="none" fill-rule="evenodd">
        <g id="pay-(2)" transform="translate(2.000000, 1.000000)" fill="#F7B500" fill-rule="nonzero">
            <path d="M46.7073,36.6761 C46.676,36.6365 43.6125,32.6959 42.6167,29.5459 C42.3802,28.7959 42.0854,27.7396 41.7469,26.5303 C40.1271,20.7386 38.6542,15.8126 37.0209,14.1793 C35.2512,12.4096 28.4115,11.2288 25.6001,10.8083 L25.6001,4.2667 C25.6,1.9136 23.6865,0 21.3333,0 L4.2667,0 C1.9135,0 0,1.9136 0,4.2667 L0,34.1334 C0,36.4865 1.9135,38.4 4.2667,38.4 L21.3334,38.4 C21.7942,38.4 22.2391,38.2977 22.6745,38.1478 C23.6033,39.0095 24.6554,39.6652 25.7584,40.3333 C27.9324,41.6521 30.1813,43.0156 32.1438,46.4021 C32.3344,46.7313 32.6865,46.9334 33.0667,46.9334 C43.2167,46.9334 46.8271,37.8074 46.8625,37.7146 C46.9969,37.3657 46.9375,36.9709 46.7073,36.6761 Z M4.2667,36.2667 C3.0907,36.2667 2.1334,35.3094 2.1334,34.1334 L2.1334,4.2667 C2.1334,3.0907 3.0907,2.1334 4.2667,2.1334 L4.2667,36.2667 Z M25.6,19.7088 L28.9802,21.0615 C29.1458,21.6407 29.426,22.5782 29.7073,23.3094 C29.5781,23.5386 29.4667,23.7927 29.3479,24.0636 C29.1541,24.5053 28.9427,24.9876 28.6469,25.3626 C27.5793,24.6017 26.4955,22.9885 25.6,21.2746 L25.6,19.7088 L25.6,19.7088 Z M8.5333,36.2667 L6.4,36.2667 L6.4,2.1334 L8.5333,2.1334 L8.5333,36.2667 Z M10.6667,36.2667 L10.6667,2.1334 L21.3334,2.1334 C22.5094,2.1334 23.4667,3.0907 23.4667,4.2667 L23.4667,17.0565 C22.1354,15.103 19.8909,12.7931 17.8563,12.3792 C16.8355,12.1667 15.9334,12.424 15.2459,13.1125 C12.6771,15.6813 14.148,20.0469 16.1886,23.0052 C17.8219,25.3729 19.0334,28.1708 19.2053,29.9677 C19.2334,30.2667 19.2459,30.55 19.2595,30.8292 C19.3259,32.2536 19.4158,33.7365 21.1108,36.2667 L10.6667,36.2667 L10.6667,36.2667 Z M33.6625,44.7875 C31.4927,41.3156 28.9375,39.7667 26.8646,38.5094 C25.4104,37.6281 24.1552,36.8667 23.2625,35.6396 C21.5062,33.224 21.4552,32.124 21.3906,30.7302 C21.376,30.4167 21.3604,30.0989 21.3281,29.7656 C21.1229,27.6052 19.7948,24.476 17.9448,21.7948 C16.3,19.4104 15.2271,16.149 16.7542,14.6208 C16.8782,14.4958 17.0438,14.3937 17.4302,14.4687 C19.1021,14.8093 21.799,17.9177 22.4771,19.5989 C23.2938,21.6208 25.5042,26.4531 28.3906,27.652 C28.7187,27.7853 29.0948,27.751 29.3916,27.5541 C30.4583,26.8437 30.9447,25.7322 31.301,24.9208 C31.4041,24.6875 31.5437,24.3666 31.5406,24.3437 C31.9771,24.0416 32.125,23.4645 31.8875,22.9895 C31.5625,22.3405 31.0625,20.6041 30.8969,19.9895 C30.8094,19.6655 30.575,19.401 30.2625,19.276 L25.6,17.4111 L25.6,12.9698 C29.4766,13.5698 34.5074,14.6833 35.5125,15.6875 C36.8833,17.0583 38.6417,23.3469 39.6927,27.1042 C40.0385,28.3417 40.3406,29.4219 40.5833,30.1875 C41.4771,33.0208 43.7208,36.2333 44.6343,37.4708 C43.7938,39.175 40.6177,44.4979 33.6625,44.7875 Z" id="Shape"></path>
        </g>
    </g>
</svg>