<?xml version="1.0" encoding="UTF-8"?>
<svg width="47px" height="47px" viewBox="0 0 47 47" version="1.1" xmlns="http://www.w3.org/2000/svg" xmlns:xlink="http://www.w3.org/1999/xlink">
    <title>icon_pix</title>
    <defs>
        <polygon id="path-1" points="0 43 37 43 37 0 0 0"></polygon>
    </defs>
    <g id="icon_pix" stroke="none" stroke-width="1" fill="none" fill-rule="evenodd">
        <g id="Group-55" transform="translate(5.000000, 2.000000)">
            <path d="M13.5767168,26.0818478 L15.1961142,26.0818478 C16.1510118,26.0818478 16.9249081,26.841094 16.9249081,27.7775519 L16.9249081,37.0424695 M0.389318401,42.6181333 L0.389318401,30.2154314 C0.389318401,27.9334657 2.27541091,26.0836362 4.60207235,26.0836362 L8.33530563,26.0890013 C10.6551712,26.0935535 12.5333076,27.9394811 12.5333076,30.2149437 L12.5333076,32.8549095 C12.5333076,35.1368753 10.6472151,36.9868674 8.32071945,36.9868674 L3.0451634,36.9868674" id="Stroke-1" stroke="#939598" stroke-width="0.768061523" stroke-linecap="round" stroke-linejoin="round"></path>
            <path d="M16.5776741,24.6465147 L15.8432268,23.926125 C15.6610653,23.7474501 15.6610653,23.4575709 15.8432268,23.2787335 L16.5771768,22.558994 C16.7596698,22.3798314 17.0555372,22.3798314 17.2380302,22.558994 L17.972146,23.2787335 C18.1543075,23.4575709 18.1543075,23.7474501 17.972146,23.926125 L17.2376987,24.6465147 C17.0553715,24.8253522 16.7600013,24.8253522 16.5776741,24.6465147" id="Fill-3" fill="#32BCAD"></path>
            <path d="M20.031897,36.9612936 L21.6378685,36.9612936 C22.4641425,36.9612936 23.2564372,36.6393862 23.8407132,36.0662935 L27.5971518,32.3817544 C28.0837998,31.904421 28.8727795,31.904421 29.3594275,32.3817544 L33.1022744,36.0527994 C33.6863846,36.6258921 34.4786794,36.9477995 35.3049533,36.9477995 L36.6105821,36.9477995 M20.031897,26.0736701 L21.6378685,26.0736701 C22.4641425,26.0736701 23.2564372,26.3955775 23.8407132,26.9685076 L27.5971518,30.6530467 C28.0837998,31.1305426 28.8727795,31.1305426 29.3594275,30.6530467 L33.1022744,26.9820017 C33.6863846,26.4090716 34.4786794,26.0871642 35.3049533,26.0871642 L36.6105821,26.0871642" id="Stroke-5" stroke="#939598" stroke-width="0.768061523" stroke-linecap="round" stroke-linejoin="round"></path>
            <path d="M24.2498555,15.4160152 C23.4438033,15.4160152 22.6856535,15.1080897 22.115798,14.5493039 L19.034136,11.5267886 C18.8178295,11.313972 18.4407436,11.3146223 18.2244372,11.5267886 L15.1316698,14.5603593 C14.5616486,15.1191451 13.8034987,15.4270706 12.9974465,15.4270706 L12.3902968,15.4270706 L16.2930944,19.2551674 C17.5118692,20.450777 19.4881308,20.450777 20.7070713,19.2551674 L24.6211401,15.4160152 L24.2498555,15.4160152 Z" id="Fill-7" fill="#32BCAD"></path>
            <path d="M12.9974631,4.72469015 C13.8035153,4.72469015 14.5616651,5.03261572 15.1315207,5.59140144 L18.2244538,8.62562253 C18.4470588,8.84396679 18.8108845,8.84494227 19.0341525,8.62529737 L22.1156488,5.60245684 C22.6856701,5.04367112 23.4438199,4.73574556 24.2498721,4.73574556 L24.6209909,4.73574556 L20.7070879,0.896755972 C19.4881474,-0.298853626 17.5118858,-0.298853626 16.2929452,0.896755972 L12.3903134,4.72469015 L12.9974631,4.72469015 Z" id="Fill-9" fill="#32BCAD"></path>
            <path d="M27.8584267,7.91116694 L25.493145,5.59115757 C25.4410989,5.61164258 25.3847432,5.62448636 25.3252382,5.62448636 L24.249839,5.62448636 C23.6939066,5.62448636 23.1495769,5.84559447 22.7567445,6.23123303 L19.6752483,9.2537484 C19.3870055,9.53663672 19.0080963,9.67824346 18.6295186,9.67824346 C18.2506095,9.67824346 17.8720318,9.53663672 17.5836233,9.25407356 L14.4905244,6.22017763 C14.097692,5.83453907 13.5535281,5.61343096 12.9974299,5.61343096 L11.6752259,5.61343096 C11.6188702,5.61343096 11.5659953,5.6004246 11.5162697,5.58189053 L9.1417059,7.91116694 C7.92276537,9.10661396 7.92276537,11.0450493 9.1417059,12.2406589 L11.5161039,14.5697727 C11.5659953,14.5514012 11.6187044,14.5383948 11.6750601,14.5383948 L12.9974299,14.5383948 C13.5535281,14.5383948 14.0975263,14.3172867 14.4905244,13.9316482 L17.5832917,10.8980774 C18.1423734,10.3501845 19.1168297,10.3498593 19.6752483,10.89824 L22.7569103,13.9205928 C23.1495769,14.3062313 23.6939066,14.5273394 24.2500047,14.5273394 L25.3252382,14.5273394 C25.3847432,14.5273394 25.4410989,14.5400206 25.4933108,14.5605057 L27.8584267,12.2406589 C29.0773672,11.0450493 29.0773672,9.10661396 27.8584267,7.91116694" id="Fill-11" fill="#32BCAD"></path>
            <path d="M2.89089797,42.9674353 L2.89089797,41.472842 L2.99697928,41.472842 L3.00808467,41.5378738 C3.18693112,41.4965786 3.43423317,41.4426023 3.6107591,41.4426023 C3.75446612,41.4426023 3.89137731,41.4640627 4.00607772,41.5551073 C4.13867936,41.6612717 4.18061463,41.8323053 4.18061463,42.0184588 C4.18061463,42.2135542 4.11431381,42.3977568 3.93331258,42.4995315 C3.80734102,42.5687904 3.63727943,42.5969167 3.4849533,42.5969167 C3.32815186,42.5969167 3.17814626,42.5730175 3.02117908,42.5276578 L3.02117908,42.9674353 L2.89089797,42.9674353 Z M3.59981946,41.5638866 C3.42544831,41.5638866 3.22223631,41.6050192 3.02134483,41.6503788 L3.02134483,42.4063735 C3.16057655,42.4561228 3.31936701,42.480022 3.47185889,42.480022 C3.8582269,42.480022 4.04154866,42.3523971 4.04154866,42.0186214 C4.04154866,41.7045178 3.89137731,41.5638866 3.59981946,41.5638866 L3.59981946,41.5638866 Z" id="Fill-13" fill="#939598"></path>
            <path d="M5.64755337,42.480087 C5.51959279,42.5708064 5.34737641,42.5969817 5.15079449,42.5969817 C4.94990301,42.5969817 4.77752089,42.5686929 4.65154933,42.480087 C4.51032859,42.3825393 4.45281263,42.2220734 4.45281263,42.0208 C4.45281263,41.8214775 4.51032859,41.6592232 4.65154933,41.5592368 C4.77752089,41.470631 4.94990301,41.4425047 5.15079449,41.4425047 C5.34953119,41.4425047 5.51959279,41.470631 5.64755337,41.5592368 C5.79126039,41.6592232 5.84629007,41.8214775 5.84629007,42.0185239 C5.84629007,42.2199598 5.78893986,42.3825393 5.64755337,42.480087 Z M5.15079449,41.5593994 C4.76426072,41.5593994 4.59204435,41.6785701 4.59204435,42.0121833 C4.59204435,42.3349035 4.76210595,42.480087 5.15079449,42.480087 C5.53500773,42.480087 5.7072241,42.3630298 5.7072241,42.0294167 C5.7072241,41.7066964 5.53732826,41.5593994 5.15079449,41.5593994 L5.15079449,41.5593994 Z" id="Fill-15" fill="#939598"></path>
            <polygon id="Fill-17" fill="#939598" points="7.47689237 42.5666769 7.04626856 41.6593207 7.03731795 41.6593207 6.61332422 42.5666769 6.49630328 42.5666769 6.03717012 41.472842 6.18054564 41.472842 6.5626041 42.391091 6.57138896 42.391091 6.98659783 41.472842 7.1059393 41.472842 7.5320878 42.391091 7.54103841 42.391091 7.91414626 41.472842 8.05321223 41.472842 7.59391332 42.5666769"></polygon>
            <path d="M8.88183985,42.5970142 C8.66752245,42.5970142 8.52845649,42.5666118 8.41806563,42.4754047 C8.28761877,42.3650133 8.24352873,42.205035 8.24352873,42.0208325 C8.24352873,41.8454092 8.30319946,41.6592557 8.45121604,41.5529287 C8.57486706,41.4685499 8.72719319,41.4425372 8.8861494,41.4425372 C9.02985642,41.4425372 9.19544271,41.4576571 9.33218815,41.5487016 C9.49346489,41.6547035 9.52446052,41.8411821 9.52446052,42.0531858 L8.38043991,42.0531858 C8.38491522,42.278521 8.4600009,42.478006 8.89277948,42.478006 C9.09814626,42.478006 9.29025288,42.445165 9.46926509,42.4150878 L9.46926509,42.5298689 C9.2836228,42.5623848 9.07825602,42.5970142 8.88183985,42.5970142 M8.8861494,41.5571558 C8.52845649,41.5571558 8.40696024,41.7130695 8.38491522,41.9385673 L9.38738358,41.9385673 C9.37644395,41.6894955 9.24616284,41.5571558 8.8861494,41.5571558" id="Fill-19" fill="#939598"></path>
            <path d="M9.89836398,42.5666769 L9.89836398,41.472842 L10.0042795,41.472842 L10.0155507,41.5378738 C10.2515816,41.4793452 10.3621382,41.4426023 10.5696598,41.4426023 L10.5852405,41.4426023 L10.5852405,41.5638866 L10.5542448,41.5638866 C10.3797079,41.5638866 10.2737924,41.5874606 10.0288108,41.6503788 L10.0288108,42.5666769 L9.89836398,42.5666769 Z" id="Fill-21" fill="#939598"></path>
            <path d="M11.3375558,42.5970142 C11.1232384,42.5970142 10.9841725,42.5666118 10.8737816,42.4754047 C10.7433348,42.3650133 10.6992447,42.205035 10.6992447,42.0208325 C10.6992447,41.8454092 10.7589154,41.6592557 10.906932,41.5529287 C11.030583,41.4685499 11.1829092,41.4425372 11.3418654,41.4425372 C11.4855724,41.4425372 11.6511587,41.4576571 11.7879041,41.5487016 C11.9491809,41.6547035 11.9801765,41.8411821 11.9801765,42.0531858 L10.8361559,42.0531858 C10.8406312,42.278521 10.9157169,42.478006 11.3484955,42.478006 C11.5538622,42.478006 11.7459689,42.445165 11.9249811,42.4150878 L11.9249811,42.5298689 C11.7393388,42.5623848 11.533972,42.5970142 11.3375558,42.5970142 M11.3418654,41.5571558 C10.9841725,41.5571558 10.8626762,41.7130695 10.8406312,41.9385673 L11.8430996,41.9385673 C11.8321599,41.6894955 11.7018788,41.5571558 11.3418654,41.5571558" id="Fill-23" fill="#939598"></path>
            <path d="M13.4318163,42.5667256 L13.4207109,42.5015313 C13.2418645,42.5428265 12.9945624,42.5969654 12.8178708,42.5969654 C12.6744952,42.5969654 12.5374183,42.5774559 12.4225521,42.4842978 C12.2901163,42.3779709 12.2480152,42.2070998 12.2480152,42.0209463 C12.2480152,41.8260135 12.314316,41.6416483 12.495483,41.5419871 C12.6214546,41.4706147 12.7913504,41.4424884 12.9459971,41.4424884 C13.1006437,41.4424884 13.2506493,41.4686637 13.4074508,41.5119099 L13.4074508,41.0114902 L13.5377319,41.0114902 L13.5377319,42.5667256 L13.4318163,42.5667256 Z M13.4074508,41.6331942 C13.2683848,41.5832823 13.1094286,41.5593831 12.9571025,41.5593831 C12.5705687,41.5593831 12.3872469,41.6873332 12.3872469,42.0209463 C12.3872469,42.3370008 12.5374183,42.4755186 12.8288104,42.4755186 C13.0033473,42.4755186 13.2065593,42.4343859 13.4074508,42.3911398 L13.4074508,41.6331942 Z" id="Fill-25" fill="#939598"></path>
            <path d="M15.7816168,42.4994828 C15.6556452,42.5687416 15.4857494,42.5968679 15.3332575,42.5968679 C15.1676712,42.5968679 15.0022506,42.5687416 14.8341781,42.5146027 L14.8277137,42.5666281 L14.7392022,42.5666281 L14.7392022,41.0115552 L14.869649,41.0115552 L14.869649,41.5332728 C15.0484955,41.4945789 15.2891674,41.4425535 15.459229,41.4425535 C15.6029361,41.4425535 15.7396815,41.464014 15.8545477,41.5550585 C15.9871493,41.6613855 16.0290846,41.8322565 16.0290846,42.0185726 C16.0290846,42.213668 15.962618,42.397708 15.7816168,42.4994828 M15.4482894,41.5638378 C15.2737525,41.5638378 15.0705405,41.605133 14.869649,41.6504927 L14.869649,42.4042112 C15.0110355,42.4562366 15.1676712,42.4801358 15.3201631,42.4801358 C15.7065311,42.4801358 15.8898528,42.3523483 15.8898528,42.0185726 C15.8898528,41.7046316 15.7396815,41.5638378 15.4482894,41.5638378" id="Fill-27" fill="#939598"></path>
            <path d="M16.2018479,42.9867498 L16.2018479,42.8677416 C16.265994,42.8742448 16.3256647,42.8786344 16.3676,42.8786344 C16.5288767,42.8786344 16.6258416,42.8329496 16.716508,42.6531366 L16.7584433,42.5666444 L16.1754933,41.4728095 L16.3256647,41.4728095 L16.8247441,42.4170712 L16.833529,42.4170712 L17.3082428,41.4728095 L17.4562594,41.4728095 L16.8290536,42.700935 C16.7143532,42.9239941 16.5905365,42.9976426 16.3631247,42.9976426 C16.3122388,42.9976426 16.2572091,42.9934155 16.2018479,42.9867498" id="Fill-29" fill="#939598"></path>
            <path d="M19.8439341,42.4628048 C19.6848122,42.5624661 19.4927056,42.5666931 19.141477,42.5666931 L18.4812866,42.5666931 L18.4812866,41.0829927 L19.126062,41.0829927 C19.4287253,41.0829927 19.6142018,41.0872197 19.7686827,41.1782643 C19.8792393,41.2432961 19.9233294,41.3429573 19.9233294,41.4728583 C19.9233294,41.628772 19.8571943,41.7326603 19.6848122,41.8020818 L19.6848122,41.8105359 C19.8792393,41.8541072 20.0050451,41.9516549 20.0050451,42.1617076 C20.0050451,42.3044524 19.9520045,42.397773 19.8439341,42.4628048 L19.8439341,42.4628048 Z M19.1724726,41.3210091 L18.819255,41.3210091 L18.819255,41.7110373 L19.1747931,41.7110373 C19.4685058,41.7110373 19.5855267,41.6764078 19.5855267,41.5139909 C19.5855267,41.3408437 19.4375101,41.3210091 19.1726384,41.3210091 L19.1724726,41.3210091 Z M19.2520336,41.9428756 L18.819255,41.9428756 L18.819255,42.3262381 L19.2541884,42.3262381 C19.5523763,42.3262381 19.6649219,42.2935596 19.6649219,42.1335814 C19.6649219,41.9622226 19.510441,41.9428756 19.2520336,41.9428756 L19.2520336,41.9428756 Z" id="Fill-31" fill="#939598"></path>
            <path d="M21.3923069,42.5667256 L21.383522,42.5015313 C21.1937359,42.5472161 20.9727884,42.5969654 20.7783613,42.5969654 C20.6591856,42.5969654 20.5310592,42.5818455 20.4405586,42.5166512 C20.3566881,42.4582851 20.3169076,42.362851 20.3169076,42.2524595 C20.3169076,42.1290617 20.372103,42.0142805 20.5045389,41.9559145 C20.6217256,41.9016129 20.778527,41.8973859 20.9220683,41.8973859 C21.0390893,41.8973859 21.1958907,41.9038891 21.3261718,41.9125058 L21.3261718,41.8928336 C21.3261718,41.7219626 21.2113056,41.6655475 20.8977028,41.6655475 C20.7763723,41.6655475 20.6283557,41.6718881 20.4869692,41.6848945 L20.4869692,41.4639489 C20.6437706,41.4512677 20.8202966,41.4424884 20.9661584,41.4424884 C21.1605855,41.4424884 21.361477,41.4576083 21.485128,41.5442632 C21.6130886,41.6331942 21.6374541,41.7567546 21.6374541,41.9190089 L21.6374541,42.5667256 L21.3923069,42.5667256 Z M21.3261718,42.1074386 C21.1957249,42.0965458 21.0632891,42.0902052 20.9242231,42.0902052 C20.6968113,42.0902052 20.6172503,42.1355648 20.6172503,42.2373396 C20.6172503,42.3327738 20.6835511,42.3847992 20.8577565,42.3847992 C21.0036183,42.3847992 21.1781552,42.3522833 21.3261718,42.3196048 L21.3261718,42.1074386 Z" id="Fill-33" fill="#939598"></path>
            <path d="M23.0934367,42.5666769 L23.0934367,41.9622063 C23.0934367,41.7630464 22.9896759,41.691674 22.8040336,41.691674 C22.6672882,41.691674 22.4950718,41.7261409 22.34921,41.7609329 L22.34921,42.5666769 L22.0379277,42.5666769 L22.0379277,41.472842 L22.2918598,41.472842 L22.3027994,41.5419383 C22.4993813,41.4923516 22.7180083,41.4426023 22.8991753,41.4426023 C23.0360865,41.4426023 23.1751524,41.4619492 23.2812337,41.5551073 C23.3694138,41.6331454 23.40273,41.7412608 23.40273,41.8973371 L23.40273,42.5666769 L23.0934367,42.5666769 Z" id="Fill-35" fill="#939598"></path>
            <path d="M24.2823429,42.5969492 C24.1388017,42.5969492 23.9820002,42.5774396 23.8671341,42.4821681 C23.7303886,42.3737275 23.6904424,42.2028565 23.6904424,42.0184913 C23.6904424,41.8453442 23.7479583,41.656752 23.9178542,41.5507501 C24.0570859,41.4618192 24.2293023,41.4424722 24.4083145,41.4424722 C24.5362751,41.4424722 24.6622466,41.4512515 24.8013126,41.4639327 L24.8013126,41.6980472 C24.6886012,41.6873169 24.5538448,41.6785376 24.4457744,41.6785376 C24.1497413,41.6785376 24.0106753,41.7695821 24.0106753,42.02093 C24.0106753,42.2569955 24.1144361,42.3587702 24.3572629,42.3587702 C24.4986493,42.3587702 24.6644014,42.3327575 24.8256781,42.3025177 L24.8256781,42.5276903 C24.6511412,42.5624823 24.4611894,42.5969492 24.2823429,42.5969492" id="Fill-37" fill="#939598"></path>
            <path d="M26.2796716,42.4822168 C26.1427604,42.5729362 25.963914,42.596998 25.745287,42.596998 C25.5221848,42.596998 25.3433383,42.5708227 25.2087477,42.4822168 C25.054101,42.3825556 24.9989056,42.2178626 24.9989056,42.0208162 C24.9989056,41.8236073 25.054101,41.6568007 25.2087477,41.5571395 C25.3433383,41.4685337 25.5221848,41.442521 25.745287,41.442521 C25.9660688,41.442521 26.1427604,41.4685337 26.2796716,41.5571395 C26.4341525,41.6568007 26.4873589,41.8236073 26.4873589,42.0185401 C26.4873589,42.215749 26.4321635,42.3825556 26.2796716,42.4822168 Z M25.745287,41.6719206 C25.4492539,41.6719206 25.3189728,41.7631277 25.3189728,42.0121995 C25.3189728,42.2612713 25.4470991,42.3674357 25.745287,42.3674357 C26.0389997,42.3674357 26.1669602,42.2785047 26.1669602,42.0292704 C26.1669602,41.7803612 26.0413202,41.6719206 25.745287,41.6719206 L25.745287,41.6719206 Z" id="Fill-39" fill="#939598"></path>
            <path d="M28.2849896,42.5969492 C28.0973583,42.5969492 27.8941463,42.5667094 27.7416544,42.443149 C27.5606532,42.2956894 27.5056235,42.0684032 27.5056235,41.8235585 C27.5056235,41.6048891 27.5762338,41.3450871 27.8124305,41.1934004 C27.9955865,41.0765058 28.2231641,41.0526066 28.4528964,41.0526066 C28.6208032,41.0526066 28.7928538,41.0634994 28.9808167,41.0786193 L28.9808167,41.3450871 C28.8195399,41.3319181 28.6208032,41.3211879 28.4661566,41.3211879 C28.0355328,41.3211879 27.852211,41.4814913 27.852211,41.8235585 C27.852211,42.1726167 28.0222726,42.3285304 28.3403508,42.3285304 C28.5477066,42.3285304 28.7797594,42.2872352 29.0138013,42.2395994 L29.0138013,42.5037911 C28.7795937,42.5493134 28.5344464,42.5969492 28.2849896,42.5969492" id="Fill-41" fill="#939598"></path>
            <path d="M29.8823255,42.5969492 C29.6990037,42.5969492 29.5334174,42.5753261 29.4097664,42.4755023 C29.2773305,42.3673869 29.2307542,42.20497 29.2307542,42.0184913 C29.2307542,41.8516848 29.2861154,41.6655313 29.440762,41.5570907 C29.5775074,41.4618192 29.7520443,41.4424722 29.928736,41.4424722 C30.0876922,41.4424722 30.2753236,41.4597056 30.4122347,41.5528637 C30.5912469,41.6764241 30.6066619,41.8671298 30.6088167,42.0923024 L29.5488323,42.0923024 C29.5554624,42.259109 29.645963,42.3673869 29.9595659,42.3673869 C30.1539931,42.3673869 30.3702995,42.3392607 30.5536212,42.3109718 L30.5536212,42.5254142 C30.3394696,42.5602062 30.1054277,42.5969492 29.8823255,42.5969492 M29.928736,41.637405 C29.6703286,41.637405 29.5708774,41.7286121 29.5509871,41.8952561 L30.3018439,41.8952561 C30.293059,41.7175567 30.1869777,41.637405 29.928736,41.637405" id="Fill-43" fill="#939598"></path>
            <path d="M31.9941059,42.5666769 L31.9941059,41.9622063 C31.9941059,41.7630464 31.8903452,41.691674 31.7047029,41.691674 C31.5679574,41.691674 31.3957411,41.7261409 31.2498793,41.7609329 L31.2498793,42.5666769 L30.9385969,42.5666769 L30.9385969,41.472842 L31.1925291,41.472842 L31.2034687,41.5419383 C31.4000506,41.4923516 31.6186776,41.4426023 31.7998446,41.4426023 C31.9367557,41.4426023 32.0758217,41.4619492 32.181903,41.5551073 C32.2702489,41.6331454 32.3033993,41.7412608 32.3033993,41.8973371 L32.3033993,42.5666769 L31.9941059,42.5666769 Z" id="Fill-45" fill="#939598"></path>
            <path d="M33.1896754,42.5969492 C33.0395041,42.5969492 32.9024271,42.555654 32.8275072,42.4408729 C32.7723118,42.3629973 32.7457915,42.2569955 32.7457915,42.1095359 L32.7457915,41.7001607 L32.5205344,41.7001607 L32.5205344,41.4728746 L32.7457915,41.4728746 L32.7789419,41.141375 L33.054919,41.141375 L33.054919,41.4728746 L33.4943277,41.4728746 L33.4943277,41.7001607 L33.054919,41.7001607 L33.054919,42.0511698 C33.054919,42.1357112 33.0615491,42.2070836 33.0857489,42.259109 C33.1190651,42.3327575 33.1918302,42.3608838 33.2889609,42.3608838 C33.3618918,42.3608838 33.4502377,42.3499909 33.5118974,42.3392607 L33.5118974,42.5579301 C33.4104572,42.5774396 33.2932705,42.5969492 33.1896754,42.5969492" id="Fill-47" fill="#939598"></path>
            <path d="M33.7981346,42.5666769 L33.7981346,41.472842 L34.0520667,41.472842 L34.0631721,41.5419383 C34.2687047,41.4856858 34.420865,41.4426023 34.6152922,41.4426023 C34.6240771,41.4426023 34.637503,41.4426023 34.6550727,41.4445532 L34.6550727,41.7045178 C34.6196017,41.7024043 34.5776665,41.7024043 34.5468366,41.7024043 C34.3943447,41.7024043 34.2794786,41.7196377 34.1095827,41.7588194 L34.1095827,42.5666769 L33.7981346,42.5666769 Z" id="Fill-49" fill="#939598"></path>
            <path d="M35.8531616,42.5667256 L35.8443767,42.5015313 C35.6544249,42.5472161 35.4336432,42.5969654 35.239216,42.5969654 C35.1200403,42.5969654 34.991914,42.5818455 34.9014134,42.5166512 C34.8175428,42.4582851 34.7777623,42.362851 34.7777623,42.2524595 C34.7777623,42.1290617 34.8329578,42.0142805 34.9653937,41.9559145 C35.0824146,41.9016129 35.2393818,41.8973859 35.3829231,41.8973859 C35.4997783,41.8973859 35.6567454,41.9038891 35.7870265,41.9125058 L35.7870265,41.8928336 C35.7870265,41.7219626 35.6721604,41.6655475 35.3585575,41.6655475 C35.2370613,41.6655475 35.0892104,41.6718881 34.9478239,41.6848945 L34.9478239,41.4639489 C35.1046254,41.4512677 35.2813171,41.4424884 35.4270131,41.4424884 C35.6212745,41.4424884 35.8223317,41.4576083 35.9459828,41.5442632 C36.0739433,41.6331942 36.0983089,41.7567546 36.0983089,41.9190089 L36.0983089,42.5667256 L35.8531616,42.5667256 Z M35.7870265,42.1074386 C35.6565797,42.0965458 35.5241438,42.0902052 35.3849121,42.0902052 C35.157666,42.0902052 35.0779393,42.1355648 35.0779393,42.2373396 C35.0779393,42.3327738 35.1444059,42.3847992 35.3186113,42.3847992 C35.4644731,42.3847992 35.63901,42.3522833 35.7870265,42.3196048 L35.7870265,42.1074386 Z" id="Fill-51" fill="#939598"></path>
            <mask id="mask-2" fill="white">
                <use xlink:href="#path-1"></use>
            </mask>
            <g id="Clip-54"></g>
            <polygon id="Fill-53" fill="#939598" mask="url(#mask-2)" points="36.4987658 42.5667256 36.8102139 42.5667256 36.8102139 41.0114902 36.4987658 41.0114902"></polygon>
        </g>
    </g>
</svg>