<?xml version="1.0" encoding="UTF-8"?>
<svg width="50px" height="50px" viewBox="0 0 50 50" version="1.1" xmlns="http://www.w3.org/2000/svg" xmlns:xlink="http://www.w3.org/1999/xlink">
    <title>ic_total-dinheiro</title>
    <g id="ic_total-dinheiro" stroke="none" stroke-width="1" fill="none" fill-rule="evenodd">
        <g id="pay-(1)" transform="translate(1.000000, 5.000000)" fill="#2D961A" fill-rule="nonzero">
            <path d="M47.2,0 L32,0 C31.5582,0 31.2,0.3582 31.2,0.8 L31.2,3.2 L28.8,3.2 C28.3582,3.2 28,3.5582 28,4 L28,13.1056 L22.2112,16 L0.8,16 C0.3582,16 0,16.3582 0,16.8 L0,37.6 C0,38.0418 0.3582,38.4 0.8,38.4 L16.8,38.4 C17.2418,38.4 17.6,38.0418 17.6,37.6 L17.6,35.344 L26.268,36.7888 C26.3116,36.7961 26.3558,36.7998 26.4,36.8 L38.4,36.8 C39.5381,36.7964 40.588,36.1867 41.1552,35.2 L44,35.2 C44.4418,35.2 44.8,34.8418 44.8,34.4 L44.8,32 L47.2,32 C47.6418,32 48,31.6418 48,31.2 L48,0.8 C48,0.3582 47.6418,0 47.2,0 Z M16,36.8 L1.6,36.8 L1.6,17.6 L16,17.6 L16,36.8 Z M32.8,1.6 L46.4,1.6 L46.4,19.1072 C46.3852,18.6026 46.2502,18.0942 45.9821,17.6253 C45.7006,17.1329 45.2924,16.7247 44.8,16.4432 L44.8,4 C44.8,3.5582 44.4418,3.2 44,3.2 L32.8,3.2 L32.8,1.6 Z M29.6,4.8 L43.2,4.8 L43.2,16 L41.6,16 L41.6,8.8 C41.6,8.3582 41.2418,8 40.8,8 C40.3582,8 40,7.6418 40,7.2 C40,6.7582 39.6418,6.4 39.2,6.4 L33.6,6.4 C33.1582,6.4 32.8,6.7582 32.8,7.2 C32.8,7.6418 32.4418,8 32,8 C31.5582,8 31.2,8.3582 31.2,8.8 L31.2,16 L29.6,16 L29.6,4.8 Z M40,9.4632 L40,16 L32.8,16 L32.8,9.4632 C33.4827,9.22 34.02,8.6827 34.2632,8 L38.5368,8 C38.78,8.6827 39.3173,9.22 40,9.4632 Z M43.2,33.6 L41.6,33.6 C41.6006,32.966 41.412,32.3462 41.0584,31.82 C42.7261,31.2351 43.6039,29.409 43.019,27.7413 C42.9297,27.4866 42.8085,27.2443 42.6584,27.02 C42.8467,26.9519 43.0281,26.8659 43.2,26.7632 L43.2,33.6 Z M43.2,20.8 L40,20.8 C39.5582,20.8 39.2,21.1582 39.2,21.6 C39.2,22.0418 39.5582,22.4 40,22.4 L41.6,22.4 C42.4837,22.4 43.2,23.1163 43.2,24 C43.2,24.8837 42.4837,25.6 41.6,25.6 L38.4,25.6 C37.9582,25.6 37.6,25.9582 37.6,26.4 C37.6,26.8418 37.9582,27.2 38.4,27.2 L40,27.2 C40.8837,27.2 41.6,27.9163 41.6,28.8 C41.6,29.6837 40.8837,30.4 40,30.4 L36.8,30.4 C36.3582,30.4 36,30.7582 36,31.2 C36,31.6418 36.3582,32 36.8,32 L38.4,32 C39.2837,32 40,32.7163 40,33.6 C40,34.4837 39.2837,35.2 38.4,35.2 L26.4664,35.2 L17.6,33.7224 L17.6,17.6 L22.4,17.6 C22.5241,17.6001 22.6465,17.5714 22.7576,17.516 L28,14.8944 L28,16.8 C28,17.2418 28.3582,17.6 28.8,17.6 L43.2,17.6 C44.0837,17.6 44.8,18.3163 44.8,19.2 C44.8,20.0837 44.0837,20.8 43.2,20.8 Z M44.8,30.4 L44.8,21.9632 C45.7958,21.3939 46.3667,20.3676 46.4,19.2993 L46.4,30.4 L44.8,30.4 Z" id="Shape"></path>
            <path d="M11.2,28.8 C9.4327,28.8 8,30.2327 8,32 C8,33.7673 9.4327,35.2 11.2,35.2 C12.9673,35.2 14.4,33.7673 14.4,32 C14.4,30.2327 12.9673,28.8 11.2,28.8 Z M11.2,33.6 C10.3163,33.6 9.6,32.8837 9.6,32 C9.6,31.1163 10.3163,30.4 11.2,30.4 C12.0837,30.4 12.8,31.1163 12.8,32 C12.8,32.8837 12.0837,33.6 11.2,33.6 Z" id="Shape"></path>
        </g>
    </g>
</svg>