<?xml version="1.0" encoding="UTF-8"?>
<svg width="60px" height="60px" viewBox="0 0 60 60" version="1.1" xmlns="http://www.w3.org/2000/svg" xmlns:xlink="http://www.w3.org/1999/xlink">
    <title>Group 4</title>
    <g id="Page-1" stroke="none" stroke-width="1" fill="none" fill-rule="evenodd">
        <g id="1-2_indicadores-eventos-copy-3" transform="translate(-827.000000, -355.000000)" fill="#0054FE">
            <g id="Group-4" transform="translate(827.000000, 355.000000)">
                <rect id="background-copy" opacity="0.066125" x="0" y="0" width="60" height="60" rx="6"></rect>
                <g id="tickets" transform="translate(12.000000, 12.000000)" fill-rule="nonzero">
                    <path d="M32.439801,9.73042998 C30.6352118,11.5350191 27.7093664,11.5350191 25.9047077,9.73042998 C24.1000489,7.92584081 24.1001185,4.99992582 25.9047077,3.19533665 L22.709371,4.156675e-13 L-1.4033219e-12,22.709371 L3.19540625,25.9047773 C5,24.1001881 7.92591041,24.1001881 9.73049958,25.9047773 C11.5350887,27.7093664 11.5350887,30.6352814 9.73049958,32.4398706 L12.9258362,35.6352072 L35.6352072,12.9258362 L32.439801,9.73042998 Z M17.784126,12.7330442 L16.3017849,11.2507031 L17.77821,9.77427799 L19.2605511,11.2566191 L17.784126,12.7330442 Z M20.7488082,15.697796 L19.2663975,14.2154549 L20.7428226,12.7390298 L22.2252333,14.2213709 L20.7488082,15.697796 Z M23.7134904,18.6625478 L22.2311493,17.1801371 L23.7075744,15.703712 L25.1899155,17.1861227 L23.7134904,18.6625478 Z" id="Shape"></path>
                </g>
            </g>
        </g>
    </g>
</svg>