<?xml version="1.0" encoding="UTF-8"?>
<svg width="68px" height="68px" viewBox="0 0 68 68" version="1.1" xmlns="http://www.w3.org/2000/svg" xmlns:xlink="http://www.w3.org/1999/xlink">
    <title>ic_taxa_de_ativacao</title>
    <g id="ic_taxa_de_ativacao" stroke="none" stroke-width="1" fill="none" fill-rule="evenodd">
        <g id="NFC_tag_1" transform="translate(1.000000, 12.000000)" fill="#085CD4" fill-rule="nonzero">
            <path d="M0.29166584,19.6021457 C0.489778487,18.6721169 0.638362971,17.7310818 0.897010038,16.8175624 C2.07467966,12.706725 4.55659087,9.49289764 7.8584683,6.87891133 C11.9708387,3.69204229 16.8230913,1.59817128 21.9629881,0.792450585 C25.9166007,0.0902098895 29.9592058,0.0474408384 33.9267907,0.665878617 C40.420483,1.67845436 46.2593029,4.08882489 50.9864908,8.8050065 C52.5637906,10.3990074 53.8655474,12.2437827 54.8386811,14.2641105 C55.2421026,14.9090509 55.6850331,15.5284185 56.1649352,16.118665 C58.0213241,18.9289296 59.8557005,21.7483661 61.6680643,24.5769744 C62.9741403,26.5947884 64.2582037,28.6346149 65.5202546,30.6964539 C65.7252848,31.0527148 65.7900408,31.4726476 65.7018579,31.8741235 C65.5626931,32.1879865 65.2754418,32.4111745 64.936923,32.4684615 C64.5337537,32.4311888 64.1626963,32.2327624 63.9078378,31.9181486 C62.8842558,30.399285 61.9487239,28.82539 60.9581606,27.2790108 C58.9330092,24.1238834 56.8968514,20.9760936 54.8496874,17.8356413 C54.5651069,17.4160135 54.2583296,17.0118758 53.9306648,16.6249529 C52.7640015,15.1831331 51.3607036,14.3906825 49.4125959,14.8144234 C48.5890578,14.9360989 47.7576593,14.9967984 46.9251815,14.9960267 C46.6555282,14.9960267 46.3748686,14.9960267 46.3418499,15.3977551 C46.3088311,15.7994835 45.9786433,16.2287276 46.5839875,16.5479091 C48.1413731,17.3788816 49.6822492,18.2538791 51.2286285,19.1123672 C51.5588162,19.2939705 51.8890039,19.48658 52.274223,19.7067052 L51.2891629,21.5062284 L49.715268,20.636734 L40.6185956,15.562849 C40.3929673,15.4417802 40.1618359,15.3317176 39.9307045,15.2271581 C38.9511475,14.8034172 38.4228471,14.9299892 37.9550812,15.7004272 C37.5863715,16.3057714 37.7459623,16.8836 38.5053941,17.5219629 C39.7601075,18.5785637 41.020324,19.6351645 42.2915469,20.6752559 C44.4377672,22.4289197 46.5876563,24.1770804 48.7412141,25.9197379 C49.503687,26.6119876 50.0566147,27.5042984 50.3371216,28.4952023 C50.8874345,30.0250722 51.5037849,31.5054139 52.6979639,32.6830835 C53.7306928,33.715609 55.0749124,34.3790153 56.5226386,34.5706568 C57.265561,34.6807194 57.6837989,35.1209697 57.6232644,35.7208108 C57.56273,36.3206518 57.0234234,36.711374 56.2474822,36.6123177 C54.1322208,36.3563772 52.1909794,35.3130582 50.8103907,33.6901561 C50.7113343,33.7782062 50.6177811,33.8497469 50.5352342,33.9267907 C46.3033279,37.9385718 41.2184367,40.2443828 35.5667231,41.3340024 C29.6010254,42.5463763 23.4262867,42.2398155 17.610013,40.4424955 C12.150909,38.7420286 7.37419295,35.9409359 3.85219035,31.3017981 C1.97453951,28.9158377 0.786853612,26.0608235 0.418237809,23.0471045 C0.390533979,22.9264267 0.351850956,22.8085356 0.302672099,22.6949043 L0.29166584,19.6021457 Z M48.4275358,32.9527368 C47.5826492,33.3110017 46.6245518,33.2889534 45.7970401,32.8922024 C44.2836796,32.1657894 42.7703191,31.4283701 41.2899774,30.6359195 C40.6118649,30.2437995 40.163477,29.5497196 40.0847921,28.7703587 C40.0004974,27.9249167 40.2492545,27.0799322 40.7781864,26.4150195 C39.3528759,25.4189531 38.2577533,24.2798054 38.9566506,22.342704 C37.3057119,22.0565413 35.7593327,21.7923911 34.1909409,21.5007253 C32.8725446,21.3293798 31.941832,20.1229004 32.1107581,18.804192 C32.5730209,15.9572399 33.0591307,13.1084534 33.5690873,10.2578326 C33.6714263,9.59024933 34.0467222,8.99527028 34.6051162,8.61535356 C35.1635103,8.23543684 35.8547255,8.10478974 36.5132613,8.2546936 C39.1987883,8.71145331 41.8898184,9.14620051 44.558836,9.6745009 C45.1953238,9.81831407 45.7833188,10.1255889 46.264806,10.5660078 C46.9251815,11.1603457 46.9692066,12.024337 46.815119,12.9048377 L51.3937223,12.6571968 C51.3937223,12.5966624 51.3937223,12.5471343 51.3937223,12.5196186 C51.3001691,12.3765373 51.2066159,12.238959 51.1020565,12.1013808 C48.665085,8.9610315 45.4360925,6.52599127 41.7467371,5.04636935 C34.389297,1.88810553 26.1527592,1.43008698 18.4905137,3.75313402 C13.7027914,5.11791003 9.46538199,7.48975866 6.16350455,11.3364459 C1.61791994,16.6249529 1.10062581,23.3938017 4.82074106,29.1335653 C7.10453962,32.6555679 10.3238701,35.0989572 14.0770041,36.837946 C19.2591777,39.2497069 24.9756511,40.2845857 30.6744414,39.8426544 C35.1723052,39.6093015 39.5700437,38.4278195 43.5792791,36.3756831 C45.3520051,35.4745207 46.9850095,34.3215937 48.4275358,32.9527368 L48.4275358,32.9527368 Z M44.2726733,15.2546738 C44.4432703,14.2476011 44.5533329,13.3615974 44.7459424,12.5031092 C44.8725144,11.9527963 44.6578924,11.7656899 44.1956295,11.683143 C41.5761401,11.2373895 38.9566506,10.7916361 36.3426643,10.3238701 C35.858389,10.2413232 35.6987982,10.4119202 35.6217544,10.874183 C35.1631603,13.4753287 34.6972288,16.0874806 34.2239597,18.7106388 C34.1304065,19.2169267 34.2899972,19.4700706 34.8293038,19.5085925 C35.2310323,19.5416113 35.6217544,19.657177 36.0234829,19.7232146 L37.9770937,20.0258867 C37.4267808,19.4205425 36.8434491,18.9252609 36.3811862,18.2979041 C35.7314518,17.4177127 35.5513946,16.2761225 35.8986702,15.2386777 C36.2459458,14.201233 37.0769828,13.3980978 38.1256782,13.0864409 C39.4024041,12.706725 40.5030299,13.1854972 41.5871463,13.774332 C42.4621439,14.2365949 43.3261351,14.7263734 44.2726733,15.2546738 Z M47.32691,27.4661172 C45.3843054,25.8647066 43.5297509,24.3733586 41.6531839,22.8930169 C41.4309166,22.8245583 41.1891316,22.8720886 41.0093178,23.0195889 C40.5690675,23.4653423 40.8662364,23.8505614 41.2459523,24.1202147 C42.5226783,25.0777591 43.832423,25.9802723 45.0981427,26.9598293 C45.7243841,27.4608894 46.5456559,27.6474499 47.32691,27.4661172 Z M48.4275358,29.4032186 C46.3033279,30.146141 44.5423266,29.4032186 42.9629286,28.0384426 C42.9483892,28.0208798 42.9293758,28.0075704 42.9078973,27.9999207 L42.3025531,27.9063675 C42.2525183,28.1951765 42.2377351,28.4889923 42.2585281,28.781365 C42.2585281,28.9189432 42.5391877,29.0290058 42.7042815,29.1115528 C43.8049074,29.6618657 44.9055332,30.1681535 46.006159,30.7624915 C47.1067848,31.3568294 47.8992354,30.8780572 48.8567798,30.4818319 L48.4275358,29.4032186 Z" id="Shape"></path>
            <path d="M28.4511773,20.3615775 C28.5120605,24.1325502 27.5984127,27.8553808 25.7986691,31.169723 C25.4244563,31.8411048 24.8906528,32.0612299 24.3348367,31.7695641 C23.7790207,31.4778982 23.6139268,30.8725541 23.9881396,30.1791598 C25.123185,28.1326365 25.8695135,25.8936508 26.1893912,23.5754049 C26.7203769,19.7098738 26.0296181,15.7750498 24.2137679,12.321506 C24.0982022,12.0958777 23.9661271,11.8757525 23.8670708,11.6446211 C23.7378506,11.3956878 23.714644,11.1051174 23.8027157,10.83883 C23.8907875,10.5725425 24.0826717,10.3531112 24.3348367,10.2303169 C24.573444,10.0994167 24.8561147,10.0749446 25.1136684,10.1628897 C25.3712222,10.2508349 25.5798913,10.4430817 25.6886065,10.6925798 C26.3104601,12.0188339 26.904798,13.3615974 27.4275953,14.7263734 C27.7199499,15.4801622 27.9338669,16.2620656 28.0659582,17.0597001 C28.2530646,18.3474323 28.3686303,19.6406676 28.4511773,20.3615775 Z" id="Path"></path>
            <path d="M23.663455,21.0384624 C23.6117736,23.7176353 22.9212534,26.3457628 21.6493097,28.7043212 C21.1705375,29.590325 20.6037152,29.8599783 19.998371,29.5132812 C19.3930268,29.166584 19.3324924,28.6162711 19.8112646,27.7302674 C22.0730096,23.591885 22.1019617,18.5935097 19.8883084,14.4292044 C19.783749,14.242098 19.6791895,14.0604948 19.5856363,13.8788915 C19.4403937,13.6381496 19.399977,13.3484634 19.4737797,13.0771605 C19.5475824,12.8058576 19.7291771,12.5765654 19.9763585,12.4425748 C20.2213128,12.3023698 20.5138605,12.2713908 20.7827465,12.3571832 C21.0516326,12.4429756 21.2721771,12.637665 21.3906627,12.8938314 C22.3407657,14.4892049 22.9933768,16.2437964 23.3167578,18.0722758 C23.4818517,19.0463297 23.5478893,20.0478992 23.663455,21.0384624 Z" id="Path"></path>
            <path d="M18.974789,21.021953 C18.9708373,23.0509371 18.4297016,25.0426965 17.4063972,26.7947354 C17.0101719,27.4881297 16.4488528,27.7027517 15.8820305,27.3890734 C15.3152082,27.075395 15.2051456,26.4700508 15.5848615,25.7876628 C17.3663016,22.8117636 17.3472183,19.0926358 15.5353333,16.1351744 C15.1556174,15.4527864 15.26568,14.8474422 15.8269992,14.5337639 C16.3883184,14.2200855 16.927625,14.4402107 17.3403597,15.1336049 C18.4066803,16.9128788 18.9714645,18.9476232 18.974789,21.021953 L18.974789,21.021953 Z" id="Path"></path>
            <path d="M14.5062482,21.1155062 C14.5108658,22.4387739 14.1178318,23.7329103 13.3781068,24.8301183 C12.9543658,25.4739844 12.4040529,25.6610908 11.8702494,25.3419093 C11.3364459,25.0227279 11.215377,24.3953711 11.6226086,23.7294925 C12.71997,22.0852407 12.71997,19.942156 11.6226086,18.2979041 C11.4374242,18.0616223 11.3567911,17.7599503 11.3993918,17.4627844 C11.4419925,17.1656186 11.6041297,16.8987493 11.8482369,16.7240092 C12.3985498,16.3663058 12.9488627,16.5369028 13.3946161,17.2192908 C14.1469729,18.3774041 14.5342387,19.7347515 14.5062482,21.1155062 Z" id="Path"></path>
        </g>
    </g>
</svg>