<?xml version="1.0" encoding="UTF-8"?>
<svg width="68px" height="85px" viewBox="0 0 68 85" version="1.1" xmlns="http://www.w3.org/2000/svg" xmlns:xlink="http://www.w3.org/1999/xlink">
    <title>ic_woman</title>
    <g id="ic_woman" stroke="none" stroke-width="1" fill="none" fill-rule="evenodd">
        <g id="toilet" transform="translate(18.000000, 7.000000)" fill="#F16DCD" fill-rule="nonzero">
            <g id="Group-7">
                <path d="M15.840036,0 C11.0682363,0 7.20003649,3.86819977 7.20003649,8.63999949 C7.20471649,13.4098192 11.0702163,17.275319 15.840036,17.279999 C20.6118357,17.279999 24.4800355,13.4117992 24.4800355,8.63999949 C24.4800355,3.86819977 20.6118357,0 15.840036,0 Z M15.840036,14.3999991 C12.6588962,14.3999991 10.0800363,11.8211393 10.0800363,8.63999949 C10.0800363,5.45885967 12.6588962,2.87999983 15.840036,2.87999983 C19.0211758,2.87999983 21.6000356,5.45885967 21.6000356,8.63999949 C21.6000356,11.8211393 19.0211758,14.3999991 15.840036,14.3999991 Z" id="Shape"></path>
                <path d="M31.619555,49.986717 L22.9795556,21.1867187 C22.7970356,20.5774188 22.2361556,20.1599988 21.6000356,20.1599988 L10.0800363,20.1599988 C9.44391636,20.1599988 8.88303639,20.5774188 8.7005164,21.1867187 L0.0605169173,49.986717 C-0.0705230749,50.424477 0.01389692,50.898417 0.288036904,51.2639969 C0.560016887,51.6265169 0.986796862,51.8399969 1.44003684,51.8399969 L7.20003649,51.8399969 L7.20003649,70.5599958 C7.20003649,71.3552357 7.84479645,71.9999957 8.64003641,71.9999957 L23.0400355,71.9999957 C23.8352755,71.9999957 24.4800355,71.3552357 24.4800355,70.5599958 L24.4800355,51.8399969 L30.2400351,51.8399969 C31.0352751,51.8399969 31.680215,51.1954169 31.680215,50.400177 C31.680215,50.260137 31.659695,50.120817 31.619555,49.986717 Z M23.0400355,48.9599971 C22.2447956,48.9599971 21.6000356,49.604757 21.6000356,50.399997 L21.6000356,69.1199959 L17.2800359,69.1199959 L17.2800359,48.9599971 L14.4000361,48.9599971 L14.4000361,69.1199959 L10.0800363,69.1199959 L10.0800363,50.399997 C10.0800363,49.604757 9.43527636,48.9599971 8.64003641,48.9599971 L3.37539672,48.9599971 L11.1513963,23.0399986 L20.5286757,23.0399986 L28.3046752,48.9599971 L23.0400355,48.9599971 Z" id="Shape"></path>
            </g>
        </g>
    </g>
</svg>