<?xml version="1.0" encoding="UTF-8"?>
<svg width="285px" height="73px" viewBox="0 0 285 73" version="1.1" xmlns="http://www.w3.org/2000/svg" xmlns:xlink="http://www.w3.org/1999/xlink">
    <title>Group 15</title>
    <defs>
        <polygon id="path-1" points="6.33599963e-06 0.00899711948 71.841245 0.00899711948 71.841245 71.8502105 6.33599963e-06 71.8502105"></polygon>
    </defs>
    <g id="Page-1" stroke="none" stroke-width="1" fill="none" fill-rule="evenodd">
        <g id="Artboard" transform="translate(-705.000000, -375.000000)">
            <g id="Group-15" transform="translate(705.000000, 375.000000)">
                <g id="Group-3" transform="translate(0.000000, 0.054490)">
                    <mask id="mask-2" fill="white">
                        <use xlink:href="#path-1"></use>
                    </mask>
                    <g id="Clip-2"></g>
                    <path d="M60.4546934,0.00897177548 L11.386558,0.00897177548 C5.09795164,0.00897177548 6.33599963e-06,5.10691708 6.33599963e-06,11.3955868 L6.33599963e-06,60.4636588 C6.33599963e-06,66.7522652 5.09795164,71.8502105 11.386558,71.8502105 L60.4546934,71.8502105 C66.7432997,71.8502105 71.841245,66.7522652 71.841245,60.4636588 L71.841245,11.3955868 C71.841245,5.10691708 66.7432997,0.00897177548 60.4546934,0.00897177548" id="Fill-1" fill="#0097FF" mask="url(#mask-2)"></path>
                </g>
                <path d="M100.043825,66.004142 C98.1049456,67.1063525 95.4622635,67.6578379 92.117426,67.6578379 C87.7453328,67.6578379 84.380917,66.602894 82.0242419,64.4929428 C79.6666798,62.3831182 78.4887541,59.2182231 78.4887541,54.9985107 L78.4887541,28.8815202 L91.376114,28.8815202 L91.376114,37.6061917 L97.762865,37.6061917 L97.762865,47.0151511 L91.376114,47.0151511 L91.376114,54.8844627 C91.376114,55.8351794 91.6229645,56.576428 92.117426,57.1083985 C92.6110637,57.6411928 93.2579059,57.9067345 94.0563052,57.9067345 C95.1584523,57.9067345 96.1278603,57.6216145 96.9644657,57.0513745 L100.043825,66.004142 Z" id="Fill-4" fill="#0097FF"></path>
                <path d="M102.894923,67.0875916 L115.782347,67.0875916 L115.782347,35.8954654 L102.894923,35.8954654 L102.894923,67.0875916 Z M103.721708,31.5331297 C102.296108,30.29818 101.583308,28.7300201 101.583308,26.82865 C101.583308,24.9281035 102.296108,23.3599436 103.721708,22.1241702 C105.147308,20.8892205 107.019342,20.2708903 109.338635,20.2708903 C111.69531,20.2708903 113.577102,20.8607085 114.983947,22.0386342 C116.389969,23.2173836 117.093835,24.7383403 117.093835,26.600554 C117.093835,28.5777027 116.389969,30.2028232 114.983947,31.4761057 C113.577102,32.7502119 111.69531,33.3864096 109.338635,33.3864096 C107.019342,33.3864096 105.147308,32.7689031 103.721708,31.5331297 L103.721708,31.5331297 Z" id="Fill-6" fill="#0097FF"></path>
                <path d="M128.355473,65.6049867 C125.561297,64.2363474 123.374807,62.3171732 121.797713,59.8455631 C120.219796,57.3747766 119.431217,54.5806008 119.431217,51.4630355 C119.431217,48.346294 120.219796,45.5609885 121.797713,43.1089567 C123.374807,40.6569882 125.561297,38.7466843 128.355473,37.3781084 C131.149648,36.0094691 134.31448,35.3252445 137.849968,35.3252445 C141.650998,35.3252445 144.901365,36.1431587 147.601071,37.7772763 C150.299954,39.4122177 152.162991,41.6744863 153.189423,44.5630686 L143.210224,49.4671957 C141.993078,46.7300438 140.187952,45.3614679 137.792944,45.3614679 C136.271987,45.3614679 135.007639,45.8942621 134.000848,46.9580764 C132.993107,48.0228412 132.489712,49.5241563 132.489712,51.4630355 C132.489712,53.4401209 132.993107,54.9610776 134.000848,56.0249553 C135.007639,57.0896567 136.271987,57.6216272 137.792944,57.6216272 C140.187952,57.6216272 141.993078,56.2529879 143.210224,53.5158361 L153.189423,58.4199631 C152.162991,61.3094324 150.299954,63.5717011 147.601071,65.2057554 C144.901365,66.8407601 141.650998,67.6577872 137.849968,67.6577872 C134.31448,67.6577872 131.149648,66.9735626 128.355473,65.6049867" id="Fill-8" fill="#0097FF"></path>
                <polygon id="Fill-9" fill="#0097FF" points="170.695233 57.5075285 168.642432 59.7315277 168.642432 67.0875599 155.754945 67.0875599 155.754945 24.7757544 168.642432 24.7757544 168.642432 44.9622492 177.595136 35.8954338 192.820543 35.8954338 179.93312 49.410121 193.846975 67.0875599 178.279424 67.0875599"></polygon>
                <path d="M207.276348,45.4184539 C206.344386,46.2934554 205.783903,47.5853658 205.59414,49.2960857 L215.57334,47.3573331 C215.231196,46.3691706 214.651198,45.5806555 213.834108,44.9907739 C213.016194,44.4018427 212.037852,44.106902 210.897372,44.106902 C209.414748,44.106902 208.207423,44.5444027 207.276348,45.4184539 M215.658876,57.6216525 C216.589951,57.2794452 217.606625,56.690514 218.70966,55.8538453 L225.438491,62.6397009 C222.320862,65.9853621 217.777634,67.6578126 211.809756,67.6578126 C208.046172,67.6578126 204.73878,66.9646542 201.88758,65.5764367 C199.036381,64.1891696 196.831199,62.2601745 195.272797,59.788501 C193.713507,57.317778 192.934813,54.5422933 192.934813,51.4629975 C192.934813,48.3463193 193.713507,45.5610139 195.272797,43.108982 C196.831199,40.6570135 198.969599,38.7466463 201.687996,37.3781337 C204.405507,36.0094944 207.456354,35.3252065 210.840348,35.3252065 C213.919644,35.3252065 216.751265,35.9436 219.336923,37.1784864 C221.921758,38.4143231 223.974558,40.239091 225.495515,42.6528534 C227.015585,45.0674395 227.776475,47.947088 227.776475,51.2919255 L206.4495,55.3976533 C207.399267,57.2224212 209.319391,58.1348051 212.208924,58.1348051 C213.5775,58.1348051 214.726913,57.9637331 215.658876,57.6216525" id="Fill-10" fill="#0097FF"></path>
                <path d="M252.867021,66.004142 C250.928142,67.1063525 248.28546,67.6578379 244.940622,67.6578379 C240.568529,67.6578379 237.204113,66.602894 234.847438,64.4929428 C232.489876,62.3831182 231.31195,59.2182231 231.31195,54.9985107 L231.31195,28.8815202 L244.19931,28.8815202 L244.19931,37.6061917 L250.586061,37.6061917 L250.586061,47.0151511 L244.19931,47.0151511 L244.19931,54.8844627 C244.19931,55.8351794 244.446161,56.576428 244.940622,57.1083985 C245.43426,57.6411928 246.081102,57.9067345 246.879501,57.9067345 C247.981648,57.9067345 248.951056,57.6216145 249.787662,57.0513745 L252.867021,66.004142 Z" id="Fill-11" fill="#0097FF"></path>
                <path d="M260.052006,66.8024526 C257.466285,66.2322127 255.375975,65.4909007 253.779367,64.5785168 L257.314855,56.0819413 C258.759146,56.9568794 260.469866,57.6411674 262.447014,58.1348051 C264.423213,58.6293299 266.343337,58.8761171 268.206375,58.8761171 C269.689062,58.8761171 270.724364,58.7531987 271.314246,58.5054611 C271.903177,58.2586739 272.198054,57.888018 272.198054,57.3934932 C272.198054,56.8999188 271.827462,56.5577748 271.086086,56.3670612 C270.344774,56.1772981 269.137513,55.9875349 267.465126,55.7968213 C264.917737,55.4930101 262.750825,55.1035996 260.964327,54.6278927 C259.177005,54.1528828 257.608845,53.2307414 256.259847,51.8621655 C254.910026,50.4936529 254.235495,48.5360825 254.235495,45.9886938 C254.235495,43.9741628 254.843181,42.1680861 256.060327,40.5714142 C257.276522,38.9747423 259.091469,37.7015231 261.506055,36.7508064 C263.919817,35.80104 266.81822,35.3252065 270.202214,35.3252065 C272.558953,35.3252065 274.868425,35.5443687 277.130693,35.9809824 C279.392012,36.4184832 281.321894,37.055568 282.918566,37.8912863 L279.383141,46.3878618 C276.645926,44.8678555 273.642409,44.106902 270.373286,44.106902 C267.559532,44.106902 266.153574,44.6013634 266.153574,45.5895259 C266.153574,46.0840506 266.5331,46.4360154 267.294054,46.6445332 C268.054057,46.8538746 269.251561,47.0534586 270.886566,47.2432218 C273.433004,47.54792 275.591046,47.947088 277.358726,48.4407257 C279.126533,48.9352505 280.684872,49.8663256 282.034694,51.2349015 C283.383691,52.6034775 284.059046,54.5619349 284.059046,57.1083732 C284.059046,59.0472524 283.450536,60.814933 282.234341,62.4116049 C281.017259,64.0082768 279.192428,65.2824463 276.759974,66.2322127 C274.326697,67.1820424 271.38014,67.6578126 267.921255,67.6578126 C265.259881,67.6578126 262.636777,67.3726926 260.052006,66.8024526" id="Fill-12" fill="#0097FF"></path>
                <path d="M37.2109774,55.252806 C38.5601651,53.6787536 39.234759,51.6365342 39.234759,49.1252608 C39.234759,47.3262804 38.7288294,45.9024546 37.7169069,44.8527695 C36.7050478,43.8040348 35.2995964,43.2787805 33.5006793,43.2787805 C31.3644971,43.2787805 29.6217804,44.0658383 28.2725926,45.6398274 C26.9234048,47.2138798 26.248811,49.275424 26.248811,51.8236363 C26.248811,53.6225533 26.7548039,55.0376355 27.766663,56.0679324 C28.7785855,57.0991797 30.1839736,57.6139163 31.9828906,57.6139163 C34.1190729,57.6139163 35.8617896,56.8268584 37.2109774,55.252806 M22.9321052,64.5003242 C20.5332324,63.3575633 18.6781151,61.7370047 17.3666899,59.6376346 C16.0543776,57.5392148 15.3991085,55.1035299 15.3991085,52.3295659 C15.3991085,48.994359 16.2046042,45.9964174 17.8164191,43.3349808 C19.427347,40.6743678 21.6575555,38.5759481 24.5060943,37.0387712 C27.3538093,35.5024814 30.5581144,34.7338613 34.1190729,34.7338613 C37.3418158,34.7338613 40.1526553,35.3057486 42.5515281,36.4485095 C44.9494505,37.5921574 46.8046312,39.2030853 48.1168801,41.2831307 C49.4283053,43.3631126 50.0844614,45.7899906 50.0844614,48.5630675 C50.0844614,51.8991614 49.2781421,54.9067337 47.6671508,57.5857211 C46.0553359,60.2656588 43.8348215,62.373836 41.0055442,63.9101258 C38.1754432,65.4472393 34.9623311,66.2149724 31.3644971,66.2149724 C28.1408672,66.2149724 25.3300277,65.6439721 22.9321052,64.5003242" id="Fill-13" fill="#FFFFFF"></path>
                <path d="M57.335975,30.3490517 C56.2116518,29.3371292 55.6494586,28.0819677 55.6494586,26.5826168 C55.6494586,24.8214623 56.2766592,23.3695046 57.5327078,22.2257933 C58.7879327,21.0830324 60.4463172,20.5112085 62.5078614,20.5112085 C64.3814165,20.5112085 65.8808308,20.9890696 67.0051539,21.9447284 C68.1294771,22.9003872 68.691607,24.1283673 68.691607,25.6268946 C68.691607,27.4635742 68.053952,28.9629885 66.7802893,30.1241871 C65.5057396,31.2862728 63.8377244,31.8669038 61.7770672,31.8669038 C59.9403243,31.8669038 58.4602981,31.3609742 57.335975,30.3490517 L57.335975,30.3490517 Z M54.9748647,35.2398099 L65.5997659,35.2398099 L59.5284209,65.7089985 L48.9035831,65.7089985 L54.9748647,35.2398099 Z" id="Fill-14" fill="#FFFFFF"></path>
            </g>
        </g>
    </g>
</svg>